<svg width="420" height="207" viewBox="0 0 420 207" fill="none" xmlns="http://www.w3.org/2000/svg">
<g opacity="0.1" filter="url(#filter0_i_2503_76460)">
<g filter="url(#filter1_i_2503_76460)">
<path d="M98.4802 3.97313C84.8541 -3.42217 74.0386 3.35403 75.745 7.01229C87.0248 1.77817 89.9608 12.3139 103.273 12.7192C115.193 12.3365 119.421 6.19059 119.12 0.753865C118.869 -3.48971 113.323 12.0213 98.4802 3.97313Z" fill="#9790E1"/>
</g>
<g filter="url(#filter2_i_2503_76460)">
<path d="M98.4802 158.67C84.8541 151.274 74.0386 158.051 75.745 161.709C87.0248 156.475 89.9608 167.011 103.273 167.416C115.193 167.033 119.421 160.887 119.12 155.45C118.869 151.207 113.323 166.718 98.4802 158.67Z" fill="#9790E1"/>
</g>
<g filter="url(#filter3_i_2503_76460)">
<path d="M325.183 3.97313C311.557 -3.42217 300.742 3.35403 302.448 7.01229C313.728 1.77817 316.664 12.3139 329.976 12.7192C341.896 12.3365 346.124 6.19059 345.823 0.753865C345.572 -3.48971 340.026 12.0213 325.183 3.97313Z" fill="#9790E1"/>
</g>
<g filter="url(#filter4_i_2503_76460)">
<path d="M325.183 158.67C311.557 151.274 300.742 158.051 302.448 161.709C313.728 156.475 316.664 167.011 329.976 167.416C341.896 167.033 346.124 160.887 345.823 155.45C345.572 151.207 340.026 166.718 325.183 158.67Z" fill="#9790E1"/>
</g>
<g filter="url(#filter5_i_2503_76460)">
<path d="M400.751 3.97313C387.125 -3.42217 376.309 3.35403 378.015 7.01229C389.295 1.77817 392.231 12.3139 405.544 12.7192C417.463 12.3365 421.692 6.19059 421.39 0.753865C421.14 -3.48971 415.594 12.0213 400.751 3.97313Z" fill="#9790E1"/>
</g>
<g filter="url(#filter6_i_2503_76460)">
<path d="M400.751 158.67C387.125 151.274 376.309 158.051 378.015 161.709C389.295 156.475 392.231 167.011 405.544 167.416C417.463 167.033 421.692 160.887 421.39 155.45C421.14 151.207 415.594 166.718 400.751 158.67Z" fill="#9790E1"/>
</g>
<g filter="url(#filter7_i_2503_76460)">
<path d="M174.048 3.97313C160.422 -3.42217 149.606 3.35403 151.312 7.01229C162.592 1.77817 165.528 12.3139 178.841 12.7192C190.76 12.3365 194.989 6.19059 194.687 0.753865C194.437 -3.48971 188.891 12.0213 174.048 3.97313Z" fill="#9790E1"/>
</g>
<g filter="url(#filter8_i_2503_76460)">
<path d="M174.048 158.67C160.422 151.274 149.606 158.051 151.312 161.709C162.592 156.475 165.528 167.011 178.841 167.416C190.76 167.033 194.989 160.887 194.687 155.45C194.437 151.207 188.891 166.718 174.048 158.67Z" fill="#9790E1"/>
</g>
<g filter="url(#filter9_i_2503_76460)">
<path d="M249.616 3.97313C235.99 -3.42217 225.174 3.35403 226.881 7.01229C238.16 1.77817 241.096 12.3139 254.409 12.7192C266.329 12.3365 270.557 6.19059 270.256 0.753865C270.005 -3.48971 264.459 12.0213 249.616 3.97313Z" fill="#9790E1"/>
</g>
<g filter="url(#filter10_i_2503_76460)">
<path d="M249.616 158.67C235.99 151.274 225.174 158.051 226.881 161.709C238.16 156.475 241.096 167.011 254.409 167.416C266.329 167.033 270.557 160.887 270.256 155.45C270.005 151.207 264.459 166.718 249.616 158.67Z" fill="#9790E1"/>
</g>
<g filter="url(#filter11_i_2503_76460)">
<path d="M98.4802 42.6473C84.8541 35.252 74.0386 42.0282 75.745 45.6865C87.0248 40.4524 89.9608 50.9881 103.273 51.3933C115.193 51.0106 119.421 44.8648 119.12 39.4281C118.869 35.1845 113.323 50.6954 98.4802 42.6473Z" fill="#9790E1"/>
</g>
<g filter="url(#filter12_i_2503_76460)">
<path d="M98.4802 197.344C84.8541 189.948 74.0386 196.725 75.745 200.383C87.0248 195.149 89.9608 205.685 103.273 206.09C115.193 205.707 119.421 199.561 119.12 194.124C118.869 189.881 113.323 205.392 98.4802 197.344Z" fill="#9790E1"/>
</g>
<g filter="url(#filter13_i_2503_76460)">
<path d="M325.183 42.6473C311.557 35.252 300.742 42.0282 302.448 45.6865C313.728 40.4524 316.664 50.9881 329.976 51.3933C341.896 51.0106 346.124 44.8648 345.823 39.4281C345.572 35.1845 340.026 50.6954 325.183 42.6473Z" fill="#9790E1"/>
</g>
<g filter="url(#filter14_i_2503_76460)">
<path d="M325.183 197.344C311.557 189.948 300.742 196.725 302.448 200.383C313.728 195.149 316.664 205.685 329.976 206.09C341.896 205.707 346.124 199.561 345.823 194.124C345.572 189.881 340.026 205.392 325.183 197.344Z" fill="#9790E1"/>
</g>
<g filter="url(#filter15_i_2503_76460)">
<path d="M400.751 42.6473C387.125 35.252 376.309 42.0282 378.015 45.6865C389.295 40.4524 392.231 50.9881 405.544 51.3933C417.463 51.0106 421.692 44.8648 421.39 39.4281C421.14 35.1845 415.594 50.6954 400.751 42.6473Z" fill="#9790E1"/>
</g>
<g filter="url(#filter16_i_2503_76460)">
<path d="M400.751 197.344C387.125 189.948 376.309 196.725 378.015 200.383C389.295 195.149 392.231 205.685 405.544 206.09C417.463 205.707 421.692 199.561 421.39 194.124C421.14 189.881 415.594 205.392 400.751 197.344Z" fill="#9790E1"/>
</g>
<g filter="url(#filter17_i_2503_76460)">
<path d="M174.048 42.6473C160.422 35.252 149.606 42.0282 151.312 45.6865C162.592 40.4524 165.528 50.9881 178.841 51.3933C190.76 51.0106 194.989 44.8648 194.687 39.4281C194.437 35.1845 188.891 50.6954 174.048 42.6473Z" fill="#9790E1"/>
</g>
<g filter="url(#filter18_i_2503_76460)">
<path d="M174.048 197.344C160.422 189.948 149.606 196.725 151.312 200.383C162.592 195.149 165.528 205.685 178.841 206.09C190.76 205.707 194.989 199.561 194.687 194.124C194.437 189.881 188.891 205.392 174.048 197.344Z" fill="#9790E1"/>
</g>
<g filter="url(#filter19_i_2503_76460)">
<path d="M249.616 42.6473C235.99 35.252 225.174 42.0282 226.881 45.6865C238.16 40.4524 241.096 50.9881 254.409 51.3933C266.329 51.0106 270.557 44.8648 270.256 39.4281C270.005 35.1845 264.459 50.6954 249.616 42.6473Z" fill="#9790E1"/>
</g>
<g filter="url(#filter20_i_2503_76460)">
<path d="M249.616 197.344C235.99 189.948 225.174 196.725 226.881 200.383C238.16 195.149 241.096 205.685 254.409 206.09C266.329 205.707 270.557 199.561 270.256 194.124C270.005 189.881 264.459 205.392 249.616 197.344Z" fill="#9790E1"/>
</g>
<g filter="url(#filter21_i_2503_76460)">
<path d="M98.4802 81.3214C84.8541 73.9261 74.0386 80.7023 75.745 84.3605C87.0248 79.1264 89.9608 89.6622 103.273 90.0674C115.193 89.6847 119.421 83.5388 119.12 78.1021C118.869 73.8586 113.323 89.3695 98.4802 81.3214Z" fill="#9790E1"/>
</g>
<g filter="url(#filter22_i_2503_76460)">
<path d="M325.183 81.3214C311.557 73.9261 300.742 80.7023 302.448 84.3605C313.728 79.1264 316.664 89.6622 329.976 90.0674C341.896 89.6847 346.124 83.5388 345.823 78.1021C345.572 73.8586 340.026 89.3695 325.183 81.3214Z" fill="#9790E1"/>
</g>
<g filter="url(#filter23_i_2503_76460)">
<path d="M400.751 81.3214C387.125 73.9261 376.309 80.7023 378.015 84.3605C389.295 79.1264 392.231 89.6622 405.544 90.0674C417.463 89.6847 421.692 83.5388 421.39 78.1021C421.14 73.8586 415.594 89.3695 400.751 81.3214Z" fill="#9790E1"/>
</g>
<g filter="url(#filter24_i_2503_76460)">
<path d="M174.048 81.3214C160.422 73.9261 149.606 80.7023 151.312 84.3605C162.592 79.1264 165.528 89.6622 178.841 90.0674C190.76 89.6847 194.989 83.5388 194.687 78.1021C194.437 73.8586 188.891 89.3695 174.048 81.3214Z" fill="#9790E1"/>
</g>
<g filter="url(#filter25_i_2503_76460)">
<path d="M249.616 81.3214C235.99 73.9261 225.174 80.7023 226.881 84.3605C238.16 79.1264 241.096 89.6622 254.409 90.0674C266.329 89.6847 270.557 83.5388 270.256 78.1021C270.005 73.8586 264.459 89.3695 249.616 81.3214Z" fill="#9790E1"/>
</g>
<g filter="url(#filter26_i_2503_76460)">
<path d="M98.4802 119.995C84.8541 112.6 74.0386 119.376 75.745 123.035C87.0248 117.801 89.9608 128.336 103.273 128.742C115.193 128.359 119.421 122.213 119.12 116.776C118.869 112.533 113.323 128.044 98.4802 119.995Z" fill="#9790E1"/>
</g>
<g filter="url(#filter27_i_2503_76460)">
<path d="M22.9128 3.97313C9.28674 -3.42217 -1.52879 3.35403 0.177601 7.01229C11.4574 1.77817 14.3934 12.3139 27.7057 12.7192C39.6254 12.3365 43.8537 6.19059 43.5526 0.753865C43.3017 -3.48971 37.7559 12.0213 22.9128 3.97313Z" fill="#9790E1"/>
</g>
<g filter="url(#filter28_i_2503_76460)">
<path d="M22.9128 158.67C9.28674 151.274 -1.52879 158.051 0.177601 161.709C11.4574 156.475 14.3934 167.011 27.7057 167.416C39.6254 167.033 43.8537 160.887 43.5526 155.45C43.3017 151.207 37.7559 166.718 22.9128 158.67Z" fill="#9790E1"/>
</g>
<g filter="url(#filter29_i_2503_76460)">
<path d="M22.9128 42.6473C9.28674 35.252 -1.52879 42.0282 0.177601 45.6865C11.4574 40.4524 14.3934 50.9881 27.7057 51.3933C39.6254 51.0106 43.8537 44.8648 43.5526 39.4281C43.3017 35.1845 37.7559 50.6954 22.9128 42.6473Z" fill="#9790E1"/>
</g>
<g filter="url(#filter30_i_2503_76460)">
<path d="M22.9128 197.344C9.28674 189.948 -1.52879 196.725 0.177601 200.383C11.4574 195.149 14.3934 205.685 27.7057 206.09C39.6254 205.707 43.8537 199.561 43.5526 194.124C43.3017 189.881 37.7559 205.392 22.9128 197.344Z" fill="#9790E1"/>
</g>
<g filter="url(#filter31_i_2503_76460)">
<path d="M22.9128 81.3214C9.28674 73.9261 -1.52879 80.7023 0.177601 84.3605C11.4574 79.1264 14.3934 89.6622 27.7057 90.0674C39.6254 89.6847 43.8537 83.5388 43.5526 78.1021C43.3017 73.8586 37.7559 89.3695 22.9128 81.3214Z" fill="#9790E1"/>
</g>
<g filter="url(#filter32_i_2503_76460)">
<path d="M22.9128 119.995C9.28674 112.6 -1.52879 119.376 0.177601 123.035C11.4574 117.801 14.3934 128.336 27.7057 128.742C39.6254 128.359 43.8537 122.213 43.5526 116.776C43.3017 112.533 37.7559 128.044 22.9128 119.995Z" fill="#9790E1"/>
</g>
<g filter="url(#filter33_i_2503_76460)">
<path d="M325.183 119.995C311.557 112.6 300.742 119.376 302.448 123.035C313.728 117.801 316.664 128.336 329.976 128.742C341.896 128.359 346.124 122.213 345.823 116.776C345.572 112.533 340.026 128.044 325.183 119.995Z" fill="#9790E1"/>
</g>
<g filter="url(#filter34_i_2503_76460)">
<path d="M400.751 119.995C387.125 112.6 376.309 119.376 378.015 123.035C389.295 117.801 392.231 128.336 405.544 128.742C417.463 128.359 421.692 122.213 421.39 116.776C421.14 112.533 415.594 128.044 400.751 119.995Z" fill="#9790E1"/>
</g>
<g filter="url(#filter35_i_2503_76460)">
<path d="M174.048 119.995C160.422 112.6 149.606 119.376 151.312 123.035C162.592 117.801 165.528 128.336 178.841 128.742C190.76 128.359 194.989 122.213 194.687 116.776C194.437 112.533 188.891 128.044 174.048 119.995Z" fill="#9790E1"/>
</g>
<g filter="url(#filter36_i_2503_76460)">
<path d="M249.616 119.995C235.99 112.6 225.174 119.376 226.881 123.035C238.16 117.801 241.096 128.336 254.409 128.742C266.329 128.359 270.557 122.213 270.256 116.776C270.005 112.533 264.459 128.044 249.616 119.995Z" fill="#9790E1"/>
</g>
</g>
<defs>
<filter id="filter0_i_2503_76460" x="0" y="0.00390625" width="421.405" height="210.086" filterUnits="userSpaceOnUse" color-interpolation-filters="sRGB">
<feFlood flood-opacity="0" result="BackgroundImageFix"/>
<feBlend mode="normal" in="SourceGraphic" in2="BackgroundImageFix" result="shape"/>
<feColorMatrix in="SourceAlpha" type="matrix" values="0 0 0 0 0 0 0 0 0 0 0 0 0 0 0 0 0 0 127 0" result="hardAlpha"/>
<feOffset dy="4"/>
<feGaussianBlur stdDeviation="2"/>
<feComposite in2="hardAlpha" operator="arithmetic" k2="-1" k3="1"/>
<feColorMatrix type="matrix" values="0 0 0 0 0 0 0 0 0 0 0 0 0 0 0 0 0 0 0.01 0"/>
<feBlend mode="normal" in2="shape" result="effect1_innerShadow_2503_76460"/>
</filter>
<filter id="filter1_i_2503_76460" x="75.5674" y="0.00390625" width="43.5674" height="12.7152" filterUnits="userSpaceOnUse" color-interpolation-filters="sRGB">
<feFlood flood-opacity="0" result="BackgroundImageFix"/>
<feBlend mode="normal" in="SourceGraphic" in2="BackgroundImageFix" result="shape"/>
<feColorMatrix in="SourceAlpha" type="matrix" values="0 0 0 0 0 0 0 0 0 0 0 0 0 0 0 0 0 0 127 0" result="hardAlpha"/>
<feOffset/>
<feGaussianBlur stdDeviation="4"/>
<feComposite in2="hardAlpha" operator="arithmetic" k2="-1" k3="1"/>
<feColorMatrix type="matrix" values="0 0 0 0 1 0 0 0 0 0.807843 0 0 0 0 0.423529 0 0 0 0.05 0"/>
<feBlend mode="normal" in2="shape" result="effect1_innerShadow_2503_76460"/>
</filter>
<filter id="filter2_i_2503_76460" x="75.5674" y="154.7" width="43.5674" height="12.7153" filterUnits="userSpaceOnUse" color-interpolation-filters="sRGB">
<feFlood flood-opacity="0" result="BackgroundImageFix"/>
<feBlend mode="normal" in="SourceGraphic" in2="BackgroundImageFix" result="shape"/>
<feColorMatrix in="SourceAlpha" type="matrix" values="0 0 0 0 0 0 0 0 0 0 0 0 0 0 0 0 0 0 127 0" result="hardAlpha"/>
<feOffset/>
<feGaussianBlur stdDeviation="4"/>
<feComposite in2="hardAlpha" operator="arithmetic" k2="-1" k3="1"/>
<feColorMatrix type="matrix" values="0 0 0 0 1 0 0 0 0 0.807843 0 0 0 0 0.423529 0 0 0 0.05 0"/>
<feBlend mode="normal" in2="shape" result="effect1_innerShadow_2503_76460"/>
</filter>
<filter id="filter3_i_2503_76460" x="302.271" y="0.00390625" width="43.5674" height="12.7152" filterUnits="userSpaceOnUse" color-interpolation-filters="sRGB">
<feFlood flood-opacity="0" result="BackgroundImageFix"/>
<feBlend mode="normal" in="SourceGraphic" in2="BackgroundImageFix" result="shape"/>
<feColorMatrix in="SourceAlpha" type="matrix" values="0 0 0 0 0 0 0 0 0 0 0 0 0 0 0 0 0 0 127 0" result="hardAlpha"/>
<feOffset/>
<feGaussianBlur stdDeviation="4"/>
<feComposite in2="hardAlpha" operator="arithmetic" k2="-1" k3="1"/>
<feColorMatrix type="matrix" values="0 0 0 0 1 0 0 0 0 0.807843 0 0 0 0 0.423529 0 0 0 0.05 0"/>
<feBlend mode="normal" in2="shape" result="effect1_innerShadow_2503_76460"/>
</filter>
<filter id="filter4_i_2503_76460" x="302.271" y="154.7" width="43.5674" height="12.7153" filterUnits="userSpaceOnUse" color-interpolation-filters="sRGB">
<feFlood flood-opacity="0" result="BackgroundImageFix"/>
<feBlend mode="normal" in="SourceGraphic" in2="BackgroundImageFix" result="shape"/>
<feColorMatrix in="SourceAlpha" type="matrix" values="0 0 0 0 0 0 0 0 0 0 0 0 0 0 0 0 0 0 127 0" result="hardAlpha"/>
<feOffset/>
<feGaussianBlur stdDeviation="4"/>
<feComposite in2="hardAlpha" operator="arithmetic" k2="-1" k3="1"/>
<feColorMatrix type="matrix" values="0 0 0 0 1 0 0 0 0 0.807843 0 0 0 0 0.423529 0 0 0 0.05 0"/>
<feBlend mode="normal" in2="shape" result="effect1_innerShadow_2503_76460"/>
</filter>
<filter id="filter5_i_2503_76460" x="377.838" y="0.00390625" width="43.5674" height="12.7152" filterUnits="userSpaceOnUse" color-interpolation-filters="sRGB">
<feFlood flood-opacity="0" result="BackgroundImageFix"/>
<feBlend mode="normal" in="SourceGraphic" in2="BackgroundImageFix" result="shape"/>
<feColorMatrix in="SourceAlpha" type="matrix" values="0 0 0 0 0 0 0 0 0 0 0 0 0 0 0 0 0 0 127 0" result="hardAlpha"/>
<feOffset/>
<feGaussianBlur stdDeviation="4"/>
<feComposite in2="hardAlpha" operator="arithmetic" k2="-1" k3="1"/>
<feColorMatrix type="matrix" values="0 0 0 0 1 0 0 0 0 0.807843 0 0 0 0 0.423529 0 0 0 0.05 0"/>
<feBlend mode="normal" in2="shape" result="effect1_innerShadow_2503_76460"/>
</filter>
<filter id="filter6_i_2503_76460" x="377.838" y="154.7" width="43.5674" height="12.7153" filterUnits="userSpaceOnUse" color-interpolation-filters="sRGB">
<feFlood flood-opacity="0" result="BackgroundImageFix"/>
<feBlend mode="normal" in="SourceGraphic" in2="BackgroundImageFix" result="shape"/>
<feColorMatrix in="SourceAlpha" type="matrix" values="0 0 0 0 0 0 0 0 0 0 0 0 0 0 0 0 0 0 127 0" result="hardAlpha"/>
<feOffset/>
<feGaussianBlur stdDeviation="4"/>
<feComposite in2="hardAlpha" operator="arithmetic" k2="-1" k3="1"/>
<feColorMatrix type="matrix" values="0 0 0 0 1 0 0 0 0 0.807843 0 0 0 0 0.423529 0 0 0 0.05 0"/>
<feBlend mode="normal" in2="shape" result="effect1_innerShadow_2503_76460"/>
</filter>
<filter id="filter7_i_2503_76460" x="151.135" y="0.00390625" width="43.5674" height="12.7152" filterUnits="userSpaceOnUse" color-interpolation-filters="sRGB">
<feFlood flood-opacity="0" result="BackgroundImageFix"/>
<feBlend mode="normal" in="SourceGraphic" in2="BackgroundImageFix" result="shape"/>
<feColorMatrix in="SourceAlpha" type="matrix" values="0 0 0 0 0 0 0 0 0 0 0 0 0 0 0 0 0 0 127 0" result="hardAlpha"/>
<feOffset/>
<feGaussianBlur stdDeviation="4"/>
<feComposite in2="hardAlpha" operator="arithmetic" k2="-1" k3="1"/>
<feColorMatrix type="matrix" values="0 0 0 0 1 0 0 0 0 0.807843 0 0 0 0 0.423529 0 0 0 0.05 0"/>
<feBlend mode="normal" in2="shape" result="effect1_innerShadow_2503_76460"/>
</filter>
<filter id="filter8_i_2503_76460" x="151.135" y="154.7" width="43.5674" height="12.7153" filterUnits="userSpaceOnUse" color-interpolation-filters="sRGB">
<feFlood flood-opacity="0" result="BackgroundImageFix"/>
<feBlend mode="normal" in="SourceGraphic" in2="BackgroundImageFix" result="shape"/>
<feColorMatrix in="SourceAlpha" type="matrix" values="0 0 0 0 0 0 0 0 0 0 0 0 0 0 0 0 0 0 127 0" result="hardAlpha"/>
<feOffset/>
<feGaussianBlur stdDeviation="4"/>
<feComposite in2="hardAlpha" operator="arithmetic" k2="-1" k3="1"/>
<feColorMatrix type="matrix" values="0 0 0 0 1 0 0 0 0 0.807843 0 0 0 0 0.423529 0 0 0 0.05 0"/>
<feBlend mode="normal" in2="shape" result="effect1_innerShadow_2503_76460"/>
</filter>
<filter id="filter9_i_2503_76460" x="226.703" y="0.00390625" width="43.5674" height="12.7152" filterUnits="userSpaceOnUse" color-interpolation-filters="sRGB">
<feFlood flood-opacity="0" result="BackgroundImageFix"/>
<feBlend mode="normal" in="SourceGraphic" in2="BackgroundImageFix" result="shape"/>
<feColorMatrix in="SourceAlpha" type="matrix" values="0 0 0 0 0 0 0 0 0 0 0 0 0 0 0 0 0 0 127 0" result="hardAlpha"/>
<feOffset/>
<feGaussianBlur stdDeviation="4"/>
<feComposite in2="hardAlpha" operator="arithmetic" k2="-1" k3="1"/>
<feColorMatrix type="matrix" values="0 0 0 0 1 0 0 0 0 0.807843 0 0 0 0 0.423529 0 0 0 0.05 0"/>
<feBlend mode="normal" in2="shape" result="effect1_innerShadow_2503_76460"/>
</filter>
<filter id="filter10_i_2503_76460" x="226.703" y="154.7" width="43.5674" height="12.7153" filterUnits="userSpaceOnUse" color-interpolation-filters="sRGB">
<feFlood flood-opacity="0" result="BackgroundImageFix"/>
<feBlend mode="normal" in="SourceGraphic" in2="BackgroundImageFix" result="shape"/>
<feColorMatrix in="SourceAlpha" type="matrix" values="0 0 0 0 0 0 0 0 0 0 0 0 0 0 0 0 0 0 127 0" result="hardAlpha"/>
<feOffset/>
<feGaussianBlur stdDeviation="4"/>
<feComposite in2="hardAlpha" operator="arithmetic" k2="-1" k3="1"/>
<feColorMatrix type="matrix" values="0 0 0 0 1 0 0 0 0 0.807843 0 0 0 0 0.423529 0 0 0 0.05 0"/>
<feBlend mode="normal" in2="shape" result="effect1_innerShadow_2503_76460"/>
</filter>
<filter id="filter11_i_2503_76460" x="75.5674" y="38.6781" width="43.5674" height="12.7152" filterUnits="userSpaceOnUse" color-interpolation-filters="sRGB">
<feFlood flood-opacity="0" result="BackgroundImageFix"/>
<feBlend mode="normal" in="SourceGraphic" in2="BackgroundImageFix" result="shape"/>
<feColorMatrix in="SourceAlpha" type="matrix" values="0 0 0 0 0 0 0 0 0 0 0 0 0 0 0 0 0 0 127 0" result="hardAlpha"/>
<feOffset/>
<feGaussianBlur stdDeviation="4"/>
<feComposite in2="hardAlpha" operator="arithmetic" k2="-1" k3="1"/>
<feColorMatrix type="matrix" values="0 0 0 0 1 0 0 0 0 0.807843 0 0 0 0 0.423529 0 0 0 0.05 0"/>
<feBlend mode="normal" in2="shape" result="effect1_innerShadow_2503_76460"/>
</filter>
<filter id="filter12_i_2503_76460" x="75.5674" y="193.375" width="43.5674" height="12.7153" filterUnits="userSpaceOnUse" color-interpolation-filters="sRGB">
<feFlood flood-opacity="0" result="BackgroundImageFix"/>
<feBlend mode="normal" in="SourceGraphic" in2="BackgroundImageFix" result="shape"/>
<feColorMatrix in="SourceAlpha" type="matrix" values="0 0 0 0 0 0 0 0 0 0 0 0 0 0 0 0 0 0 127 0" result="hardAlpha"/>
<feOffset/>
<feGaussianBlur stdDeviation="4"/>
<feComposite in2="hardAlpha" operator="arithmetic" k2="-1" k3="1"/>
<feColorMatrix type="matrix" values="0 0 0 0 1 0 0 0 0 0.807843 0 0 0 0 0.423529 0 0 0 0.05 0"/>
<feBlend mode="normal" in2="shape" result="effect1_innerShadow_2503_76460"/>
</filter>
<filter id="filter13_i_2503_76460" x="302.271" y="38.6781" width="43.5674" height="12.7152" filterUnits="userSpaceOnUse" color-interpolation-filters="sRGB">
<feFlood flood-opacity="0" result="BackgroundImageFix"/>
<feBlend mode="normal" in="SourceGraphic" in2="BackgroundImageFix" result="shape"/>
<feColorMatrix in="SourceAlpha" type="matrix" values="0 0 0 0 0 0 0 0 0 0 0 0 0 0 0 0 0 0 127 0" result="hardAlpha"/>
<feOffset/>
<feGaussianBlur stdDeviation="4"/>
<feComposite in2="hardAlpha" operator="arithmetic" k2="-1" k3="1"/>
<feColorMatrix type="matrix" values="0 0 0 0 1 0 0 0 0 0.807843 0 0 0 0 0.423529 0 0 0 0.05 0"/>
<feBlend mode="normal" in2="shape" result="effect1_innerShadow_2503_76460"/>
</filter>
<filter id="filter14_i_2503_76460" x="302.271" y="193.375" width="43.5674" height="12.7153" filterUnits="userSpaceOnUse" color-interpolation-filters="sRGB">
<feFlood flood-opacity="0" result="BackgroundImageFix"/>
<feBlend mode="normal" in="SourceGraphic" in2="BackgroundImageFix" result="shape"/>
<feColorMatrix in="SourceAlpha" type="matrix" values="0 0 0 0 0 0 0 0 0 0 0 0 0 0 0 0 0 0 127 0" result="hardAlpha"/>
<feOffset/>
<feGaussianBlur stdDeviation="4"/>
<feComposite in2="hardAlpha" operator="arithmetic" k2="-1" k3="1"/>
<feColorMatrix type="matrix" values="0 0 0 0 1 0 0 0 0 0.807843 0 0 0 0 0.423529 0 0 0 0.05 0"/>
<feBlend mode="normal" in2="shape" result="effect1_innerShadow_2503_76460"/>
</filter>
<filter id="filter15_i_2503_76460" x="377.838" y="38.6781" width="43.5674" height="12.7152" filterUnits="userSpaceOnUse" color-interpolation-filters="sRGB">
<feFlood flood-opacity="0" result="BackgroundImageFix"/>
<feBlend mode="normal" in="SourceGraphic" in2="BackgroundImageFix" result="shape"/>
<feColorMatrix in="SourceAlpha" type="matrix" values="0 0 0 0 0 0 0 0 0 0 0 0 0 0 0 0 0 0 127 0" result="hardAlpha"/>
<feOffset/>
<feGaussianBlur stdDeviation="4"/>
<feComposite in2="hardAlpha" operator="arithmetic" k2="-1" k3="1"/>
<feColorMatrix type="matrix" values="0 0 0 0 1 0 0 0 0 0.807843 0 0 0 0 0.423529 0 0 0 0.05 0"/>
<feBlend mode="normal" in2="shape" result="effect1_innerShadow_2503_76460"/>
</filter>
<filter id="filter16_i_2503_76460" x="377.838" y="193.375" width="43.5674" height="12.7153" filterUnits="userSpaceOnUse" color-interpolation-filters="sRGB">
<feFlood flood-opacity="0" result="BackgroundImageFix"/>
<feBlend mode="normal" in="SourceGraphic" in2="BackgroundImageFix" result="shape"/>
<feColorMatrix in="SourceAlpha" type="matrix" values="0 0 0 0 0 0 0 0 0 0 0 0 0 0 0 0 0 0 127 0" result="hardAlpha"/>
<feOffset/>
<feGaussianBlur stdDeviation="4"/>
<feComposite in2="hardAlpha" operator="arithmetic" k2="-1" k3="1"/>
<feColorMatrix type="matrix" values="0 0 0 0 1 0 0 0 0 0.807843 0 0 0 0 0.423529 0 0 0 0.05 0"/>
<feBlend mode="normal" in2="shape" result="effect1_innerShadow_2503_76460"/>
</filter>
<filter id="filter17_i_2503_76460" x="151.135" y="38.6781" width="43.5674" height="12.7152" filterUnits="userSpaceOnUse" color-interpolation-filters="sRGB">
<feFlood flood-opacity="0" result="BackgroundImageFix"/>
<feBlend mode="normal" in="SourceGraphic" in2="BackgroundImageFix" result="shape"/>
<feColorMatrix in="SourceAlpha" type="matrix" values="0 0 0 0 0 0 0 0 0 0 0 0 0 0 0 0 0 0 127 0" result="hardAlpha"/>
<feOffset/>
<feGaussianBlur stdDeviation="4"/>
<feComposite in2="hardAlpha" operator="arithmetic" k2="-1" k3="1"/>
<feColorMatrix type="matrix" values="0 0 0 0 1 0 0 0 0 0.807843 0 0 0 0 0.423529 0 0 0 0.05 0"/>
<feBlend mode="normal" in2="shape" result="effect1_innerShadow_2503_76460"/>
</filter>
<filter id="filter18_i_2503_76460" x="151.135" y="193.375" width="43.5674" height="12.7153" filterUnits="userSpaceOnUse" color-interpolation-filters="sRGB">
<feFlood flood-opacity="0" result="BackgroundImageFix"/>
<feBlend mode="normal" in="SourceGraphic" in2="BackgroundImageFix" result="shape"/>
<feColorMatrix in="SourceAlpha" type="matrix" values="0 0 0 0 0 0 0 0 0 0 0 0 0 0 0 0 0 0 127 0" result="hardAlpha"/>
<feOffset/>
<feGaussianBlur stdDeviation="4"/>
<feComposite in2="hardAlpha" operator="arithmetic" k2="-1" k3="1"/>
<feColorMatrix type="matrix" values="0 0 0 0 1 0 0 0 0 0.807843 0 0 0 0 0.423529 0 0 0 0.05 0"/>
<feBlend mode="normal" in2="shape" result="effect1_innerShadow_2503_76460"/>
</filter>
<filter id="filter19_i_2503_76460" x="226.703" y="38.6781" width="43.5674" height="12.7152" filterUnits="userSpaceOnUse" color-interpolation-filters="sRGB">
<feFlood flood-opacity="0" result="BackgroundImageFix"/>
<feBlend mode="normal" in="SourceGraphic" in2="BackgroundImageFix" result="shape"/>
<feColorMatrix in="SourceAlpha" type="matrix" values="0 0 0 0 0 0 0 0 0 0 0 0 0 0 0 0 0 0 127 0" result="hardAlpha"/>
<feOffset/>
<feGaussianBlur stdDeviation="4"/>
<feComposite in2="hardAlpha" operator="arithmetic" k2="-1" k3="1"/>
<feColorMatrix type="matrix" values="0 0 0 0 1 0 0 0 0 0.807843 0 0 0 0 0.423529 0 0 0 0.05 0"/>
<feBlend mode="normal" in2="shape" result="effect1_innerShadow_2503_76460"/>
</filter>
<filter id="filter20_i_2503_76460" x="226.703" y="193.375" width="43.5674" height="12.7153" filterUnits="userSpaceOnUse" color-interpolation-filters="sRGB">
<feFlood flood-opacity="0" result="BackgroundImageFix"/>
<feBlend mode="normal" in="SourceGraphic" in2="BackgroundImageFix" result="shape"/>
<feColorMatrix in="SourceAlpha" type="matrix" values="0 0 0 0 0 0 0 0 0 0 0 0 0 0 0 0 0 0 127 0" result="hardAlpha"/>
<feOffset/>
<feGaussianBlur stdDeviation="4"/>
<feComposite in2="hardAlpha" operator="arithmetic" k2="-1" k3="1"/>
<feColorMatrix type="matrix" values="0 0 0 0 1 0 0 0 0 0.807843 0 0 0 0 0.423529 0 0 0 0.05 0"/>
<feBlend mode="normal" in2="shape" result="effect1_innerShadow_2503_76460"/>
</filter>
<filter id="filter21_i_2503_76460" x="75.5674" y="77.3522" width="43.5674" height="12.7152" filterUnits="userSpaceOnUse" color-interpolation-filters="sRGB">
<feFlood flood-opacity="0" result="BackgroundImageFix"/>
<feBlend mode="normal" in="SourceGraphic" in2="BackgroundImageFix" result="shape"/>
<feColorMatrix in="SourceAlpha" type="matrix" values="0 0 0 0 0 0 0 0 0 0 0 0 0 0 0 0 0 0 127 0" result="hardAlpha"/>
<feOffset/>
<feGaussianBlur stdDeviation="4"/>
<feComposite in2="hardAlpha" operator="arithmetic" k2="-1" k3="1"/>
<feColorMatrix type="matrix" values="0 0 0 0 1 0 0 0 0 0.807843 0 0 0 0 0.423529 0 0 0 0.05 0"/>
<feBlend mode="normal" in2="shape" result="effect1_innerShadow_2503_76460"/>
</filter>
<filter id="filter22_i_2503_76460" x="302.271" y="77.3522" width="43.5674" height="12.7152" filterUnits="userSpaceOnUse" color-interpolation-filters="sRGB">
<feFlood flood-opacity="0" result="BackgroundImageFix"/>
<feBlend mode="normal" in="SourceGraphic" in2="BackgroundImageFix" result="shape"/>
<feColorMatrix in="SourceAlpha" type="matrix" values="0 0 0 0 0 0 0 0 0 0 0 0 0 0 0 0 0 0 127 0" result="hardAlpha"/>
<feOffset/>
<feGaussianBlur stdDeviation="4"/>
<feComposite in2="hardAlpha" operator="arithmetic" k2="-1" k3="1"/>
<feColorMatrix type="matrix" values="0 0 0 0 1 0 0 0 0 0.807843 0 0 0 0 0.423529 0 0 0 0.05 0"/>
<feBlend mode="normal" in2="shape" result="effect1_innerShadow_2503_76460"/>
</filter>
<filter id="filter23_i_2503_76460" x="377.838" y="77.3522" width="43.5674" height="12.7152" filterUnits="userSpaceOnUse" color-interpolation-filters="sRGB">
<feFlood flood-opacity="0" result="BackgroundImageFix"/>
<feBlend mode="normal" in="SourceGraphic" in2="BackgroundImageFix" result="shape"/>
<feColorMatrix in="SourceAlpha" type="matrix" values="0 0 0 0 0 0 0 0 0 0 0 0 0 0 0 0 0 0 127 0" result="hardAlpha"/>
<feOffset/>
<feGaussianBlur stdDeviation="4"/>
<feComposite in2="hardAlpha" operator="arithmetic" k2="-1" k3="1"/>
<feColorMatrix type="matrix" values="0 0 0 0 1 0 0 0 0 0.807843 0 0 0 0 0.423529 0 0 0 0.05 0"/>
<feBlend mode="normal" in2="shape" result="effect1_innerShadow_2503_76460"/>
</filter>
<filter id="filter24_i_2503_76460" x="151.135" y="77.3522" width="43.5674" height="12.7152" filterUnits="userSpaceOnUse" color-interpolation-filters="sRGB">
<feFlood flood-opacity="0" result="BackgroundImageFix"/>
<feBlend mode="normal" in="SourceGraphic" in2="BackgroundImageFix" result="shape"/>
<feColorMatrix in="SourceAlpha" type="matrix" values="0 0 0 0 0 0 0 0 0 0 0 0 0 0 0 0 0 0 127 0" result="hardAlpha"/>
<feOffset/>
<feGaussianBlur stdDeviation="4"/>
<feComposite in2="hardAlpha" operator="arithmetic" k2="-1" k3="1"/>
<feColorMatrix type="matrix" values="0 0 0 0 1 0 0 0 0 0.807843 0 0 0 0 0.423529 0 0 0 0.05 0"/>
<feBlend mode="normal" in2="shape" result="effect1_innerShadow_2503_76460"/>
</filter>
<filter id="filter25_i_2503_76460" x="226.703" y="77.3522" width="43.5674" height="12.7152" filterUnits="userSpaceOnUse" color-interpolation-filters="sRGB">
<feFlood flood-opacity="0" result="BackgroundImageFix"/>
<feBlend mode="normal" in="SourceGraphic" in2="BackgroundImageFix" result="shape"/>
<feColorMatrix in="SourceAlpha" type="matrix" values="0 0 0 0 0 0 0 0 0 0 0 0 0 0 0 0 0 0 127 0" result="hardAlpha"/>
<feOffset/>
<feGaussianBlur stdDeviation="4"/>
<feComposite in2="hardAlpha" operator="arithmetic" k2="-1" k3="1"/>
<feColorMatrix type="matrix" values="0 0 0 0 1 0 0 0 0 0.807843 0 0 0 0 0.423529 0 0 0 0.05 0"/>
<feBlend mode="normal" in2="shape" result="effect1_innerShadow_2503_76460"/>
</filter>
<filter id="filter26_i_2503_76460" x="75.5674" y="116.026" width="43.5674" height="12.7153" filterUnits="userSpaceOnUse" color-interpolation-filters="sRGB">
<feFlood flood-opacity="0" result="BackgroundImageFix"/>
<feBlend mode="normal" in="SourceGraphic" in2="BackgroundImageFix" result="shape"/>
<feColorMatrix in="SourceAlpha" type="matrix" values="0 0 0 0 0 0 0 0 0 0 0 0 0 0 0 0 0 0 127 0" result="hardAlpha"/>
<feOffset/>
<feGaussianBlur stdDeviation="4"/>
<feComposite in2="hardAlpha" operator="arithmetic" k2="-1" k3="1"/>
<feColorMatrix type="matrix" values="0 0 0 0 1 0 0 0 0 0.807843 0 0 0 0 0.423529 0 0 0 0.05 0"/>
<feBlend mode="normal" in2="shape" result="effect1_innerShadow_2503_76460"/>
</filter>
<filter id="filter27_i_2503_76460" x="0" y="0.00390625" width="43.5674" height="12.7152" filterUnits="userSpaceOnUse" color-interpolation-filters="sRGB">
<feFlood flood-opacity="0" result="BackgroundImageFix"/>
<feBlend mode="normal" in="SourceGraphic" in2="BackgroundImageFix" result="shape"/>
<feColorMatrix in="SourceAlpha" type="matrix" values="0 0 0 0 0 0 0 0 0 0 0 0 0 0 0 0 0 0 127 0" result="hardAlpha"/>
<feOffset/>
<feGaussianBlur stdDeviation="4"/>
<feComposite in2="hardAlpha" operator="arithmetic" k2="-1" k3="1"/>
<feColorMatrix type="matrix" values="0 0 0 0 1 0 0 0 0 0.807843 0 0 0 0 0.423529 0 0 0 0.05 0"/>
<feBlend mode="normal" in2="shape" result="effect1_innerShadow_2503_76460"/>
</filter>
<filter id="filter28_i_2503_76460" x="0" y="154.7" width="43.5674" height="12.7153" filterUnits="userSpaceOnUse" color-interpolation-filters="sRGB">
<feFlood flood-opacity="0" result="BackgroundImageFix"/>
<feBlend mode="normal" in="SourceGraphic" in2="BackgroundImageFix" result="shape"/>
<feColorMatrix in="SourceAlpha" type="matrix" values="0 0 0 0 0 0 0 0 0 0 0 0 0 0 0 0 0 0 127 0" result="hardAlpha"/>
<feOffset/>
<feGaussianBlur stdDeviation="4"/>
<feComposite in2="hardAlpha" operator="arithmetic" k2="-1" k3="1"/>
<feColorMatrix type="matrix" values="0 0 0 0 1 0 0 0 0 0.807843 0 0 0 0 0.423529 0 0 0 0.05 0"/>
<feBlend mode="normal" in2="shape" result="effect1_innerShadow_2503_76460"/>
</filter>
<filter id="filter29_i_2503_76460" x="0" y="38.6781" width="43.5674" height="12.7152" filterUnits="userSpaceOnUse" color-interpolation-filters="sRGB">
<feFlood flood-opacity="0" result="BackgroundImageFix"/>
<feBlend mode="normal" in="SourceGraphic" in2="BackgroundImageFix" result="shape"/>
<feColorMatrix in="SourceAlpha" type="matrix" values="0 0 0 0 0 0 0 0 0 0 0 0 0 0 0 0 0 0 127 0" result="hardAlpha"/>
<feOffset/>
<feGaussianBlur stdDeviation="4"/>
<feComposite in2="hardAlpha" operator="arithmetic" k2="-1" k3="1"/>
<feColorMatrix type="matrix" values="0 0 0 0 1 0 0 0 0 0.807843 0 0 0 0 0.423529 0 0 0 0.05 0"/>
<feBlend mode="normal" in2="shape" result="effect1_innerShadow_2503_76460"/>
</filter>
<filter id="filter30_i_2503_76460" x="0" y="193.375" width="43.5674" height="12.7153" filterUnits="userSpaceOnUse" color-interpolation-filters="sRGB">
<feFlood flood-opacity="0" result="BackgroundImageFix"/>
<feBlend mode="normal" in="SourceGraphic" in2="BackgroundImageFix" result="shape"/>
<feColorMatrix in="SourceAlpha" type="matrix" values="0 0 0 0 0 0 0 0 0 0 0 0 0 0 0 0 0 0 127 0" result="hardAlpha"/>
<feOffset/>
<feGaussianBlur stdDeviation="4"/>
<feComposite in2="hardAlpha" operator="arithmetic" k2="-1" k3="1"/>
<feColorMatrix type="matrix" values="0 0 0 0 1 0 0 0 0 0.807843 0 0 0 0 0.423529 0 0 0 0.05 0"/>
<feBlend mode="normal" in2="shape" result="effect1_innerShadow_2503_76460"/>
</filter>
<filter id="filter31_i_2503_76460" x="0" y="77.3522" width="43.5674" height="12.7152" filterUnits="userSpaceOnUse" color-interpolation-filters="sRGB">
<feFlood flood-opacity="0" result="BackgroundImageFix"/>
<feBlend mode="normal" in="SourceGraphic" in2="BackgroundImageFix" result="shape"/>
<feColorMatrix in="SourceAlpha" type="matrix" values="0 0 0 0 0 0 0 0 0 0 0 0 0 0 0 0 0 0 127 0" result="hardAlpha"/>
<feOffset/>
<feGaussianBlur stdDeviation="4"/>
<feComposite in2="hardAlpha" operator="arithmetic" k2="-1" k3="1"/>
<feColorMatrix type="matrix" values="0 0 0 0 1 0 0 0 0 0.807843 0 0 0 0 0.423529 0 0 0 0.05 0"/>
<feBlend mode="normal" in2="shape" result="effect1_innerShadow_2503_76460"/>
</filter>
<filter id="filter32_i_2503_76460" x="0" y="116.026" width="43.5674" height="12.7153" filterUnits="userSpaceOnUse" color-interpolation-filters="sRGB">
<feFlood flood-opacity="0" result="BackgroundImageFix"/>
<feBlend mode="normal" in="SourceGraphic" in2="BackgroundImageFix" result="shape"/>
<feColorMatrix in="SourceAlpha" type="matrix" values="0 0 0 0 0 0 0 0 0 0 0 0 0 0 0 0 0 0 127 0" result="hardAlpha"/>
<feOffset/>
<feGaussianBlur stdDeviation="4"/>
<feComposite in2="hardAlpha" operator="arithmetic" k2="-1" k3="1"/>
<feColorMatrix type="matrix" values="0 0 0 0 1 0 0 0 0 0.807843 0 0 0 0 0.423529 0 0 0 0.05 0"/>
<feBlend mode="normal" in2="shape" result="effect1_innerShadow_2503_76460"/>
</filter>
<filter id="filter33_i_2503_76460" x="302.271" y="116.026" width="43.5674" height="12.7153" filterUnits="userSpaceOnUse" color-interpolation-filters="sRGB">
<feFlood flood-opacity="0" result="BackgroundImageFix"/>
<feBlend mode="normal" in="SourceGraphic" in2="BackgroundImageFix" result="shape"/>
<feColorMatrix in="SourceAlpha" type="matrix" values="0 0 0 0 0 0 0 0 0 0 0 0 0 0 0 0 0 0 127 0" result="hardAlpha"/>
<feOffset/>
<feGaussianBlur stdDeviation="4"/>
<feComposite in2="hardAlpha" operator="arithmetic" k2="-1" k3="1"/>
<feColorMatrix type="matrix" values="0 0 0 0 1 0 0 0 0 0.807843 0 0 0 0 0.423529 0 0 0 0.05 0"/>
<feBlend mode="normal" in2="shape" result="effect1_innerShadow_2503_76460"/>
</filter>
<filter id="filter34_i_2503_76460" x="377.838" y="116.026" width="43.5674" height="12.7153" filterUnits="userSpaceOnUse" color-interpolation-filters="sRGB">
<feFlood flood-opacity="0" result="BackgroundImageFix"/>
<feBlend mode="normal" in="SourceGraphic" in2="BackgroundImageFix" result="shape"/>
<feColorMatrix in="SourceAlpha" type="matrix" values="0 0 0 0 0 0 0 0 0 0 0 0 0 0 0 0 0 0 127 0" result="hardAlpha"/>
<feOffset/>
<feGaussianBlur stdDeviation="4"/>
<feComposite in2="hardAlpha" operator="arithmetic" k2="-1" k3="1"/>
<feColorMatrix type="matrix" values="0 0 0 0 1 0 0 0 0 0.807843 0 0 0 0 0.423529 0 0 0 0.05 0"/>
<feBlend mode="normal" in2="shape" result="effect1_innerShadow_2503_76460"/>
</filter>
<filter id="filter35_i_2503_76460" x="151.135" y="116.026" width="43.5674" height="12.7153" filterUnits="userSpaceOnUse" color-interpolation-filters="sRGB">
<feFlood flood-opacity="0" result="BackgroundImageFix"/>
<feBlend mode="normal" in="SourceGraphic" in2="BackgroundImageFix" result="shape"/>
<feColorMatrix in="SourceAlpha" type="matrix" values="0 0 0 0 0 0 0 0 0 0 0 0 0 0 0 0 0 0 127 0" result="hardAlpha"/>
<feOffset/>
<feGaussianBlur stdDeviation="4"/>
<feComposite in2="hardAlpha" operator="arithmetic" k2="-1" k3="1"/>
<feColorMatrix type="matrix" values="0 0 0 0 1 0 0 0 0 0.807843 0 0 0 0 0.423529 0 0 0 0.05 0"/>
<feBlend mode="normal" in2="shape" result="effect1_innerShadow_2503_76460"/>
</filter>
<filter id="filter36_i_2503_76460" x="226.703" y="116.026" width="43.5674" height="12.7153" filterUnits="userSpaceOnUse" color-interpolation-filters="sRGB">
<feFlood flood-opacity="0" result="BackgroundImageFix"/>
<feBlend mode="normal" in="SourceGraphic" in2="BackgroundImageFix" result="shape"/>
<feColorMatrix in="SourceAlpha" type="matrix" values="0 0 0 0 0 0 0 0 0 0 0 0 0 0 0 0 0 0 127 0" result="hardAlpha"/>
<feOffset/>
<feGaussianBlur stdDeviation="4"/>
<feComposite in2="hardAlpha" operator="arithmetic" k2="-1" k3="1"/>
<feColorMatrix type="matrix" values="0 0 0 0 1 0 0 0 0 0.807843 0 0 0 0 0.423529 0 0 0 0.05 0"/>
<feBlend mode="normal" in2="shape" result="effect1_innerShadow_2503_76460"/>
</filter>
</defs>
</svg>
