<svg width="360" height="446" viewBox="0 0 360 446" fill="none" xmlns="http://www.w3.org/2000/svg">
<g clip-path="url(#clip0)">
<rect width="360" height="500" fill="url(#paint0_linear)"/>
<g opacity="0.4" filter="url(#filter0_f)">
<circle cx="263.5" cy="398.5" r="148.5" fill="#5650DE"/>
</g>
<g opacity="0.3" filter="url(#filter1_f)">
<circle cx="70" cy="179" r="177" fill="#FFCF1B"/>
</g>
</g>
<g opacity="0.6" filter="url(#filter2_i)">
<path d="M123.687 57.5742C33.4334 57.5742 -40 130.583 -40 220.325C-40 310.057 33.4334 383.067 123.687 383.067C214.288 383.067 288 310.057 288 220.325C288 130.583 214.288 57.5742 123.687 57.5742ZM123.687 330.269C65.0853 330.269 15.5796 279.923 15.5796 220.325C15.5796 160.728 65.0853 110.382 123.687 110.382C183.302 110.382 231.794 159.7 231.794 220.325C231.794 280.941 183.302 330.269 123.687 330.269Z" fill="white"/>
</g>
<defs>
<filter id="filter0_f" x="-285" y="-150" width="1097" height="1097" filterUnits="userSpaceOnUse" color-interpolation-filters="sRGB">
<feFlood flood-opacity="0" result="BackgroundImageFix"/>
<feBlend mode="normal" in="SourceGraphic" in2="BackgroundImageFix" result="shape"/>
<feGaussianBlur stdDeviation="200" result="effect1_foregroundBlur"/>
</filter>
<filter id="filter1_f" x="-507" y="-398" width="1154" height="1154" filterUnits="userSpaceOnUse" color-interpolation-filters="sRGB">
<feFlood flood-opacity="0" result="BackgroundImageFix"/>
<feBlend mode="normal" in="SourceGraphic" in2="BackgroundImageFix" result="shape"/>
<feGaussianBlur stdDeviation="200" result="effect1_foregroundBlur"/>
</filter>
<filter id="filter2_i" x="-40" y="57.5742" width="328" height="325.492" filterUnits="userSpaceOnUse" color-interpolation-filters="sRGB">
<feFlood flood-opacity="0" result="BackgroundImageFix"/>
<feBlend mode="normal" in="SourceGraphic" in2="BackgroundImageFix" result="shape"/>
<feColorMatrix in="SourceAlpha" type="matrix" values="0 0 0 0 0 0 0 0 0 0 0 0 0 0 0 0 0 0 127 0" result="hardAlpha"/>
<feOffset/>
<feGaussianBlur stdDeviation="16"/>
<feComposite in2="hardAlpha" operator="arithmetic" k2="-1" k3="1"/>
<feColorMatrix type="matrix" values="0 0 0 0 0.354167 0 0 0 0 0.336458 0 0 0 0 0.301042 0 0 0 0.1 0"/>
<feBlend mode="normal" in2="shape" result="effect1_innerShadow"/>
</filter>
<linearGradient id="paint0_linear" x1="171.5" y1="1996.74" x2="815.582" y2="-268.529" gradientUnits="userSpaceOnUse">
<stop stop-color="white" stop-opacity="0.35"/>
<stop offset="1" stop-color="white"/>
</linearGradient>
<clipPath id="clip0">
<rect width="360" height="446" fill="white"/>
</clipPath>
</defs>
</svg>
