<svg width="87" height="22" viewBox="0 0 87 22" fill="none" xmlns="http://www.w3.org/2000/svg">
<path d="M17.9958 0.980713H17.7552C16.5056 0.980713 16.0245 1.28629 15.5016 2.41019C15.4546 2.52413 10.5499 13.8926 10.1578 14.7057C10.1107 14.799 10.048 14.9492 9.98522 15.1149C9.89633 14.9026 9.81267 14.7161 9.76561 14.6281C9.45188 14.0065 6.1891 6.36714 4.48973 2.38429C4.00868 1.43131 3.55378 0.980713 2.2518 0.980713H2.01127C1.23218 0.980713 0.866163 1.3588 0.714527 1.58669C0.447857 1.99585 0.4374 2.55003 0.693612 3.12493C0.97074 3.66875 8.89763 20.6826 8.97606 20.8483C9.28979 21.5579 9.7813 21.6356 9.97999 21.6356C10.1787 21.6356 10.6702 21.5579 10.9787 20.8587C11.0571 20.6878 18.9631 3.76715 19.35 2.96437C19.5696 2.52931 19.554 2.07872 19.3134 1.69545C19.052 1.26557 18.5239 0.980713 17.9958 0.980713Z" fill="#453F9B"/>
<path d="M36.6365 0.980713H36.558C35.5803 0.980713 34.7855 1.76796 34.7855 2.73648V12.9862C34.7855 16.8448 32.1397 18.2121 29.8756 18.2121C27.6115 18.2121 24.9658 16.8448 24.9658 12.9862V2.73648C24.9658 1.76796 24.171 0.980713 23.1932 0.980713H23.0729C22.0951 0.980713 21.3004 1.76796 21.3004 2.73648V13.1468C21.3004 19.4085 25.7292 21.6408 29.8756 21.6408C31.8783 21.6408 38.409 21.0296 38.409 13.1468V2.73648C38.409 1.76796 37.6143 0.980713 36.6365 0.980713Z" fill="#453F9B"/>
<path d="M48.4171 7.77043C48.1557 7.65648 47.9413 7.56844 47.8106 7.50629C47.2093 7.21107 46.4145 6.71904 46.4145 5.88518C46.4145 4.67323 47.6642 3.9326 48.5583 3.9326C49.6041 3.9326 49.8551 4.13977 50.2002 4.42463L50.3257 4.52303C50.425 4.60072 50.5296 4.69395 50.6446 4.79235C51.2564 5.331 52.4015 6.33059 53.6303 5.47084C54.4407 4.95291 54.6865 3.99993 54.2002 3.20232C53.4107 1.93858 51.2355 0.964881 49.5466 0.597154C48.9453 0.462493 47.7949 0.446955 46.7282 0.685201C45.9335 0.90791 45.2223 1.12544 44.5792 1.56568C43.0994 2.58599 42.2524 4.16048 42.2524 5.88518C42.2524 8.2262 43.6276 9.46922 44.6733 10.2099C45.4786 10.7485 46.3152 11.0334 47.1988 11.3338C47.9779 11.5979 48.7884 11.8724 49.6145 12.3437C51.6172 13.509 52.229 14.2497 52.1244 15.3788C52.0093 16.6891 50.5819 18.2118 48.9034 18.2118C47.2825 18.2118 46.106 17.6525 45.0759 16.3835C45.0184 16.3162 44.9557 16.223 44.8877 16.1246C44.4746 15.529 43.5125 14.1306 41.7975 14.9178C40.3282 15.5963 40.6785 16.974 40.9347 17.4297C42.7334 20.2628 45.3374 21.6405 48.8982 21.6405C51.4499 21.6405 53.5884 20.6771 54.9061 18.9214C56.2708 17.1086 56.5584 14.6433 55.6434 12.6286C54.6499 10.4326 50.4407 8.63536 48.4171 7.77043Z" fill="#453F9B"/>
<path d="M68.4486 0.503662C62.5662 0.503662 57.7818 5.24268 57.7818 11.0693C57.7818 16.896 62.5662 21.635 68.4486 21.635C74.3519 21.635 79.1572 16.896 79.1572 11.0693C79.1572 5.24268 74.3572 0.503662 68.4486 0.503662ZM68.4486 18.2064C64.6316 18.2064 61.4001 14.9383 61.4001 11.0693C61.4001 7.20044 64.6263 3.93233 68.4486 3.93233C72.3336 3.93233 75.497 7.13311 75.497 11.0693C75.497 15.0056 72.3336 18.2064 68.4486 18.2064Z" fill="#453F9B"/>
<path d="M77.8607 11.7636C72.1822 8.36083 67.675 11.4787 68.3861 13.162C73.0868 10.7536 74.3103 15.6014 79.8581 15.7879C84.8255 15.6118 86.5876 12.7839 86.4621 10.2823C86.3575 8.32975 84.0464 15.4668 77.8607 11.7636Z" fill="#FFCE6B"/>
</svg>
