<svg width="29" height="22" viewBox="0 0 29 22" fill="none" xmlns="http://www.w3.org/2000/svg">
<path d="M10.7853 0.6875C4.83854 0.6875 0 5.27639 0 10.917C0 16.557 4.83854 21.1459 10.7853 21.1459C16.7551 21.1459 21.612 16.557 21.612 10.917C21.612 5.27639 16.7551 0.6875 10.7853 0.6875ZM10.7853 17.8273C6.92408 17.8273 3.66215 14.6629 3.66215 10.917C3.66215 7.17109 6.92408 4.00663 10.7853 4.00663C14.7134 4.00663 17.9086 7.10648 17.9086 10.917C17.9086 14.7269 14.7134 17.8273 10.7853 17.8273Z" fill="#453F9B"/>
<path d="M20.2988 11.5858C14.559 8.29213 10.0034 11.3081 10.7193 12.9382C15.4734 10.6074 16.7094 15.3013 22.3182 15.4789C27.3388 15.3081 29.1237 12.5704 28.9934 10.1489C28.8919 8.2648 26.5522 15.1745 20.2988 11.5858Z" fill="#FFCE6B"/>
</svg>
