<svg width="1440" height="2509" viewBox="0 0 1440 2509" fill="none" xmlns="http://www.w3.org/2000/svg">
<g clip-path="url(#clip0_2617_133158)">
<rect width="1440" height="375" fill="url(#paint0_linear_2617_133158)"/>
<g opacity="0.2" filter="url(#filter0_f_2617_133158)">
<circle cx="446.5" cy="1045.5" r="273.5" fill="#5650DE"/>
</g>
<g opacity="0.4" filter="url(#filter1_f_2617_133158)">
<circle cx="692.5" cy="75.5" r="148.5" fill="#5650DE"/>
</g>
<g opacity="0.4" filter="url(#filter2_f_2617_133158)">
<circle cx="532.5" cy="385.5" r="148.5" fill="#5650DE"/>
</g>
<g opacity="0.1" filter="url(#filter3_f_2617_133158)">
<circle cx="1183.5" cy="680.5" r="394.5" fill="#FFCF1B"/>
</g>
<g opacity="0.1" filter="url(#filter4_f_2617_133158)">
<circle cx="427.5" cy="1479.5" r="455.5" fill="#FFCF1B"/>
</g>
<g opacity="0.2" filter="url(#filter5_f_2617_133158)">
<ellipse cx="2521" cy="1757.5" rx="1770" ry="601.5" fill="#5650DE"/>
</g>
<g opacity="0.2" filter="url(#filter6_f_2617_133158)">
<ellipse cx="-1343" cy="2796.5" rx="1770" ry="601.5" fill="#5650DE"/>
</g>
<g opacity="0.3" filter="url(#filter7_f_2617_133158)">
<circle cx="237" cy="511" r="190" fill="#FFCF1B"/>
</g>
<g filter="url(#filter8_i_2617_133158)">
<g filter="url(#filter9_i_2617_133158)">
<path d="M1170.48 188.134C1156.85 181.659 1146.04 187.592 1147.74 190.795C1159.02 186.213 1161.96 195.437 1175.27 195.792C1187.19 195.457 1191.42 190.076 1191.12 185.316C1190.87 181.6 1185.32 195.181 1170.48 188.134Z" fill="white" fill-opacity="0.4"/>
</g>
<g filter="url(#filter10_i_2617_133158)">
<path d="M1170.48 323.581C1156.85 317.106 1146.04 323.039 1147.74 326.242C1159.02 321.659 1161.96 330.884 1175.27 331.238C1187.19 330.903 1191.42 325.522 1191.12 320.762C1190.87 317.047 1185.32 330.627 1170.48 323.581Z" fill="white" fill-opacity="0.4"/>
</g>
<g filter="url(#filter11_i_2617_133158)">
<path d="M1397.18 188.134C1383.56 181.659 1372.74 187.592 1374.45 190.795C1385.73 186.213 1388.66 195.437 1401.98 195.792C1413.89 195.457 1418.12 190.076 1417.82 185.316C1417.57 181.6 1412.03 195.181 1397.18 188.134Z" fill="white" fill-opacity="0.4"/>
</g>
<g filter="url(#filter12_i_2617_133158)">
<path d="M1397.18 323.581C1383.56 317.106 1372.74 323.039 1374.45 326.242C1385.73 321.659 1388.66 330.884 1401.98 331.238C1413.89 330.903 1418.12 325.522 1417.82 320.762C1417.57 317.047 1412.03 330.627 1397.18 323.581Z" fill="white" fill-opacity="0.4"/>
</g>
<g filter="url(#filter13_i_2617_133158)">
<path d="M1246.05 188.134C1232.42 181.659 1221.61 187.592 1223.31 190.795C1234.59 186.213 1237.53 195.437 1250.84 195.792C1262.76 195.457 1266.99 190.076 1266.69 185.316C1266.44 181.6 1260.89 195.181 1246.05 188.134Z" fill="white" fill-opacity="0.4"/>
</g>
<g filter="url(#filter14_i_2617_133158)">
<path d="M1246.05 323.581C1232.42 317.106 1221.61 323.039 1223.31 326.242C1234.59 321.659 1237.53 330.884 1250.84 331.238C1262.76 330.903 1266.99 325.522 1266.69 320.762C1266.44 317.047 1260.89 330.627 1246.05 323.581Z" fill="white" fill-opacity="0.4"/>
</g>
<g filter="url(#filter15_i_2617_133158)">
<path d="M1321.62 188.134C1307.99 181.659 1297.17 187.592 1298.88 190.795C1310.16 186.213 1313.1 195.437 1326.41 195.792C1338.33 195.457 1342.56 190.076 1342.26 185.316C1342 181.6 1336.46 195.181 1321.62 188.134Z" fill="white" fill-opacity="0.4"/>
</g>
<g filter="url(#filter16_i_2617_133158)">
<path d="M1321.62 323.581C1307.99 317.106 1297.17 323.039 1298.88 326.242C1310.16 321.659 1313.1 330.884 1326.41 331.238C1338.33 330.903 1342.56 325.522 1342.26 320.762C1342 317.047 1336.46 330.627 1321.62 323.581Z" fill="white" fill-opacity="0.4"/>
</g>
<g filter="url(#filter17_i_2617_133158)">
<path d="M1170.48 221.996C1156.85 215.521 1146.04 221.454 1147.74 224.657C1159.02 220.074 1161.96 229.299 1175.27 229.654C1187.19 229.319 1191.42 223.938 1191.12 219.177C1190.87 215.462 1185.32 229.043 1170.48 221.996Z" fill="white" fill-opacity="0.4"/>
</g>
<g filter="url(#filter18_i_2617_133158)">
<path d="M1170.48 357.442C1156.85 350.967 1146.04 356.9 1147.74 360.103C1159.02 355.521 1161.96 364.745 1175.27 365.1C1187.19 364.765 1191.42 359.384 1191.12 354.624C1190.87 350.908 1185.32 364.489 1170.48 357.442Z" fill="white" fill-opacity="0.4"/>
</g>
<g filter="url(#filter19_i_2617_133158)">
<path d="M1397.18 221.996C1383.56 215.521 1372.74 221.454 1374.45 224.657C1385.73 220.074 1388.66 229.299 1401.98 229.654C1413.89 229.319 1418.12 223.938 1417.82 219.177C1417.57 215.462 1412.03 229.043 1397.18 221.996Z" fill="white" fill-opacity="0.4"/>
</g>
<g filter="url(#filter20_i_2617_133158)">
<path d="M1397.18 357.442C1383.56 350.967 1372.74 356.9 1374.45 360.103C1385.73 355.521 1388.66 364.745 1401.98 365.1C1413.89 364.765 1418.12 359.384 1417.82 354.624C1417.57 350.908 1412.03 364.489 1397.18 357.442Z" fill="white" fill-opacity="0.4"/>
</g>
<g filter="url(#filter21_i_2617_133158)">
<path d="M1246.05 221.996C1232.42 215.521 1221.61 221.454 1223.31 224.657C1234.59 220.074 1237.53 229.299 1250.84 229.654C1262.76 229.319 1266.99 223.938 1266.69 219.177C1266.44 215.462 1260.89 229.043 1246.05 221.996Z" fill="white" fill-opacity="0.4"/>
</g>
<g filter="url(#filter22_i_2617_133158)">
<path d="M1246.05 357.442C1232.42 350.967 1221.61 356.9 1223.31 360.103C1234.59 355.521 1237.53 364.745 1250.84 365.1C1262.76 364.765 1266.99 359.384 1266.69 354.624C1266.44 350.908 1260.89 364.489 1246.05 357.442Z" fill="white" fill-opacity="0.4"/>
</g>
<g filter="url(#filter23_i_2617_133158)">
<path d="M1321.62 221.996C1307.99 215.521 1297.17 221.454 1298.88 224.657C1310.16 220.074 1313.1 229.299 1326.41 229.654C1338.33 229.319 1342.56 223.938 1342.26 219.177C1342 215.462 1336.46 229.043 1321.62 221.996Z" fill="white" fill-opacity="0.4"/>
</g>
<g filter="url(#filter24_i_2617_133158)">
<path d="M1321.62 357.442C1307.99 350.967 1297.17 356.9 1298.88 360.103C1310.16 355.521 1313.1 364.745 1326.41 365.1C1338.33 364.765 1342.56 359.384 1342.26 354.624C1342 350.908 1336.46 364.489 1321.62 357.442Z" fill="white" fill-opacity="0.4"/>
</g>
<g filter="url(#filter25_i_2617_133158)">
<path d="M1170.48 255.858C1156.85 249.383 1146.04 255.316 1147.74 258.519C1159.02 253.936 1161.96 263.161 1175.27 263.515C1187.19 263.18 1191.42 257.799 1191.12 253.039C1190.87 249.323 1185.32 262.904 1170.48 255.858Z" fill="white" fill-opacity="0.4"/>
</g>
<g filter="url(#filter26_i_2617_133158)">
<path d="M1397.18 255.858C1383.56 249.383 1372.74 255.316 1374.45 258.519C1385.73 253.936 1388.66 263.161 1401.98 263.515C1413.89 263.18 1418.12 257.799 1417.82 253.039C1417.57 249.323 1412.03 262.904 1397.18 255.858Z" fill="white" fill-opacity="0.4"/>
</g>
<g filter="url(#filter27_i_2617_133158)">
<path d="M1246.05 255.858C1232.42 249.383 1221.61 255.316 1223.31 258.519C1234.59 253.936 1237.53 263.161 1250.84 263.515C1262.76 263.18 1266.99 257.799 1266.69 253.039C1266.44 249.323 1260.89 262.904 1246.05 255.858Z" fill="white" fill-opacity="0.4"/>
</g>
<g filter="url(#filter28_i_2617_133158)">
<path d="M1321.62 255.858C1307.99 249.383 1297.17 255.316 1298.88 258.519C1310.16 253.936 1313.1 263.161 1326.41 263.515C1338.33 263.18 1342.56 257.799 1342.26 253.039C1342 249.323 1336.46 262.904 1321.62 255.858Z" fill="white" fill-opacity="0.4"/>
</g>
<g filter="url(#filter29_i_2617_133158)">
<path d="M1170.48 289.719C1156.85 283.244 1146.04 289.177 1147.74 292.38C1159.02 287.797 1161.96 297.022 1175.27 297.377C1187.19 297.042 1191.42 291.661 1191.12 286.901C1190.87 283.185 1185.32 296.766 1170.48 289.719Z" fill="white" fill-opacity="0.4"/>
</g>
<g filter="url(#filter30_i_2617_133158)">
<path d="M1094.91 188.134C1081.29 181.659 1070.47 187.592 1072.18 190.795C1083.46 186.213 1086.39 195.437 1099.71 195.792C1111.63 195.457 1115.85 190.076 1115.55 185.316C1115.3 181.6 1109.76 195.181 1094.91 188.134Z" fill="white" fill-opacity="0.4"/>
</g>
<g filter="url(#filter31_i_2617_133158)">
<path d="M1094.91 323.581C1081.29 317.106 1070.47 323.039 1072.18 326.242C1083.46 321.659 1086.39 330.884 1099.71 331.238C1111.63 330.903 1115.85 325.522 1115.55 320.762C1115.3 317.047 1109.76 330.627 1094.91 323.581Z" fill="white" fill-opacity="0.4"/>
</g>
<g filter="url(#filter32_i_2617_133158)">
<path d="M1094.91 221.996C1081.29 215.521 1070.47 221.454 1072.18 224.657C1083.46 220.074 1086.39 229.299 1099.71 229.654C1111.63 229.319 1115.85 223.938 1115.55 219.177C1115.3 215.462 1109.76 229.043 1094.91 221.996Z" fill="white" fill-opacity="0.4"/>
</g>
<g filter="url(#filter33_i_2617_133158)">
<path d="M1094.91 357.442C1081.29 350.967 1070.47 356.9 1072.18 360.103C1083.46 355.521 1086.39 364.745 1099.71 365.1C1111.63 364.765 1115.85 359.384 1115.55 354.624C1115.3 350.908 1109.76 364.489 1094.91 357.442Z" fill="white" fill-opacity="0.4"/>
</g>
<g filter="url(#filter34_i_2617_133158)">
<path d="M1094.91 255.858C1081.29 249.383 1070.47 255.316 1072.18 258.519C1083.46 253.936 1086.39 263.161 1099.71 263.515C1111.63 263.18 1115.85 257.799 1115.55 253.039C1115.3 249.323 1109.76 262.904 1094.91 255.858Z" fill="white" fill-opacity="0.4"/>
</g>
<g filter="url(#filter35_i_2617_133158)">
<path d="M1094.91 289.719C1081.29 283.244 1070.47 289.177 1072.18 292.38C1083.46 287.797 1086.39 297.022 1099.71 297.377C1111.63 297.042 1115.85 291.661 1115.55 286.901C1115.3 283.185 1109.76 296.766 1094.91 289.719Z" fill="white" fill-opacity="0.4"/>
</g>
<g filter="url(#filter36_i_2617_133158)">
<path d="M1397.18 289.719C1383.56 283.244 1372.74 289.177 1374.45 292.38C1385.73 287.797 1388.66 297.022 1401.98 297.377C1413.89 297.042 1418.12 291.661 1417.82 286.901C1417.57 283.185 1412.03 296.766 1397.18 289.719Z" fill="white" fill-opacity="0.4"/>
</g>
<g filter="url(#filter37_i_2617_133158)">
<path d="M1246.05 289.719C1232.42 283.244 1221.61 289.177 1223.31 292.38C1234.59 287.797 1237.53 297.022 1250.84 297.377C1262.76 297.042 1266.99 291.661 1266.69 286.901C1266.44 283.185 1260.89 296.766 1246.05 289.719Z" fill="white" fill-opacity="0.4"/>
</g>
<g filter="url(#filter38_i_2617_133158)">
<path d="M1321.62 289.719C1307.99 283.244 1297.17 289.177 1298.88 292.38C1310.16 287.797 1313.1 297.022 1326.41 297.377C1338.33 297.042 1342.56 291.661 1342.26 286.901C1342 283.185 1336.46 296.766 1321.62 289.719Z" fill="white" fill-opacity="0.4"/>
</g>
</g>
<g opacity="0.5" filter="url(#filter39_i_2617_133158)">
<path d="M1326.44 164C1164.09 164 1032 295.891 1032 458.009C1032 620.109 1164.09 752 1326.44 752C1489.41 752 1622 620.109 1622 458.009C1622 295.891 1489.41 164 1326.44 164ZM1326.44 656.622C1221.03 656.622 1131.98 565.671 1131.98 458.009C1131.98 350.347 1221.03 259.396 1326.44 259.396C1433.67 259.396 1520.9 348.49 1520.9 458.009C1520.9 567.51 1433.67 656.622 1326.44 656.622Z" fill="white"/>
</g>
</g>
<defs>
<filter id="filter0_f_2617_133158" x="-227" y="372" width="1347" height="1347" filterUnits="userSpaceOnUse" color-interpolation-filters="sRGB">
<feFlood flood-opacity="0" result="BackgroundImageFix"/>
<feBlend mode="normal" in="SourceGraphic" in2="BackgroundImageFix" result="shape"/>
<feGaussianBlur stdDeviation="200" result="effect1_foregroundBlur_2617_133158"/>
</filter>
<filter id="filter1_f_2617_133158" x="144" y="-473" width="1097" height="1097" filterUnits="userSpaceOnUse" color-interpolation-filters="sRGB">
<feFlood flood-opacity="0" result="BackgroundImageFix"/>
<feBlend mode="normal" in="SourceGraphic" in2="BackgroundImageFix" result="shape"/>
<feGaussianBlur stdDeviation="200" result="effect1_foregroundBlur_2617_133158"/>
</filter>
<filter id="filter2_f_2617_133158" x="-16" y="-163" width="1097" height="1097" filterUnits="userSpaceOnUse" color-interpolation-filters="sRGB">
<feFlood flood-opacity="0" result="BackgroundImageFix"/>
<feBlend mode="normal" in="SourceGraphic" in2="BackgroundImageFix" result="shape"/>
<feGaussianBlur stdDeviation="200" result="effect1_foregroundBlur_2617_133158"/>
</filter>
<filter id="filter3_f_2617_133158" x="389" y="-114" width="1589" height="1589" filterUnits="userSpaceOnUse" color-interpolation-filters="sRGB">
<feFlood flood-opacity="0" result="BackgroundImageFix"/>
<feBlend mode="normal" in="SourceGraphic" in2="BackgroundImageFix" result="shape"/>
<feGaussianBlur stdDeviation="200" result="effect1_foregroundBlur_2617_133158"/>
</filter>
<filter id="filter4_f_2617_133158" x="-428" y="624" width="1711" height="1711" filterUnits="userSpaceOnUse" color-interpolation-filters="sRGB">
<feFlood flood-opacity="0" result="BackgroundImageFix"/>
<feBlend mode="normal" in="SourceGraphic" in2="BackgroundImageFix" result="shape"/>
<feGaussianBlur stdDeviation="200" result="effect1_foregroundBlur_2617_133158"/>
</filter>
<filter id="filter5_f_2617_133158" x="351" y="756" width="4340" height="2003" filterUnits="userSpaceOnUse" color-interpolation-filters="sRGB">
<feFlood flood-opacity="0" result="BackgroundImageFix"/>
<feBlend mode="normal" in="SourceGraphic" in2="BackgroundImageFix" result="shape"/>
<feGaussianBlur stdDeviation="200" result="effect1_foregroundBlur_2617_133158"/>
</filter>
<filter id="filter6_f_2617_133158" x="-3513" y="1795" width="4340" height="2003" filterUnits="userSpaceOnUse" color-interpolation-filters="sRGB">
<feFlood flood-opacity="0" result="BackgroundImageFix"/>
<feBlend mode="normal" in="SourceGraphic" in2="BackgroundImageFix" result="shape"/>
<feGaussianBlur stdDeviation="200" result="effect1_foregroundBlur_2617_133158"/>
</filter>
<filter id="filter7_f_2617_133158" x="-353" y="-79" width="1180" height="1180" filterUnits="userSpaceOnUse" color-interpolation-filters="sRGB">
<feFlood flood-opacity="0" result="BackgroundImageFix"/>
<feBlend mode="normal" in="SourceGraphic" in2="BackgroundImageFix" result="shape"/>
<feGaussianBlur stdDeviation="200" result="effect1_foregroundBlur_2617_133158"/>
</filter>
<filter id="filter8_i_2617_133158" x="1072" y="184.659" width="421.402" height="184.441" filterUnits="userSpaceOnUse" color-interpolation-filters="sRGB">
<feFlood flood-opacity="0" result="BackgroundImageFix"/>
<feBlend mode="normal" in="SourceGraphic" in2="BackgroundImageFix" result="shape"/>
<feColorMatrix in="SourceAlpha" type="matrix" values="0 0 0 0 0 0 0 0 0 0 0 0 0 0 0 0 0 0 127 0" result="hardAlpha"/>
<feOffset dy="4"/>
<feGaussianBlur stdDeviation="2"/>
<feComposite in2="hardAlpha" operator="arithmetic" k2="-1" k3="1"/>
<feColorMatrix type="matrix" values="0 0 0 0 0 0 0 0 0 0 0 0 0 0 0 0 0 0 0.01 0"/>
<feBlend mode="normal" in2="shape" result="effect1_innerShadow_2617_133158"/>
</filter>
<filter id="filter9_i_2617_133158" x="1147.57" y="184.659" width="43.5664" height="11.1331" filterUnits="userSpaceOnUse" color-interpolation-filters="sRGB">
<feFlood flood-opacity="0" result="BackgroundImageFix"/>
<feBlend mode="normal" in="SourceGraphic" in2="BackgroundImageFix" result="shape"/>
<feColorMatrix in="SourceAlpha" type="matrix" values="0 0 0 0 0 0 0 0 0 0 0 0 0 0 0 0 0 0 127 0" result="hardAlpha"/>
<feOffset/>
<feGaussianBlur stdDeviation="4"/>
<feComposite in2="hardAlpha" operator="arithmetic" k2="-1" k3="1"/>
<feColorMatrix type="matrix" values="0 0 0 0 1 0 0 0 0 0.807843 0 0 0 0 0.423529 0 0 0 0.05 0"/>
<feBlend mode="normal" in2="shape" result="effect1_innerShadow_2617_133158"/>
</filter>
<filter id="filter10_i_2617_133158" x="1147.57" y="320.105" width="43.5664" height="11.1331" filterUnits="userSpaceOnUse" color-interpolation-filters="sRGB">
<feFlood flood-opacity="0" result="BackgroundImageFix"/>
<feBlend mode="normal" in="SourceGraphic" in2="BackgroundImageFix" result="shape"/>
<feColorMatrix in="SourceAlpha" type="matrix" values="0 0 0 0 0 0 0 0 0 0 0 0 0 0 0 0 0 0 127 0" result="hardAlpha"/>
<feOffset/>
<feGaussianBlur stdDeviation="4"/>
<feComposite in2="hardAlpha" operator="arithmetic" k2="-1" k3="1"/>
<feColorMatrix type="matrix" values="0 0 0 0 1 0 0 0 0 0.807843 0 0 0 0 0.423529 0 0 0 0.05 0"/>
<feBlend mode="normal" in2="shape" result="effect1_innerShadow_2617_133158"/>
</filter>
<filter id="filter11_i_2617_133158" x="1374.27" y="184.659" width="43.5664" height="11.1331" filterUnits="userSpaceOnUse" color-interpolation-filters="sRGB">
<feFlood flood-opacity="0" result="BackgroundImageFix"/>
<feBlend mode="normal" in="SourceGraphic" in2="BackgroundImageFix" result="shape"/>
<feColorMatrix in="SourceAlpha" type="matrix" values="0 0 0 0 0 0 0 0 0 0 0 0 0 0 0 0 0 0 127 0" result="hardAlpha"/>
<feOffset/>
<feGaussianBlur stdDeviation="4"/>
<feComposite in2="hardAlpha" operator="arithmetic" k2="-1" k3="1"/>
<feColorMatrix type="matrix" values="0 0 0 0 1 0 0 0 0 0.807843 0 0 0 0 0.423529 0 0 0 0.05 0"/>
<feBlend mode="normal" in2="shape" result="effect1_innerShadow_2617_133158"/>
</filter>
<filter id="filter12_i_2617_133158" x="1374.27" y="320.105" width="43.5664" height="11.1331" filterUnits="userSpaceOnUse" color-interpolation-filters="sRGB">
<feFlood flood-opacity="0" result="BackgroundImageFix"/>
<feBlend mode="normal" in="SourceGraphic" in2="BackgroundImageFix" result="shape"/>
<feColorMatrix in="SourceAlpha" type="matrix" values="0 0 0 0 0 0 0 0 0 0 0 0 0 0 0 0 0 0 127 0" result="hardAlpha"/>
<feOffset/>
<feGaussianBlur stdDeviation="4"/>
<feComposite in2="hardAlpha" operator="arithmetic" k2="-1" k3="1"/>
<feColorMatrix type="matrix" values="0 0 0 0 1 0 0 0 0 0.807843 0 0 0 0 0.423529 0 0 0 0.05 0"/>
<feBlend mode="normal" in2="shape" result="effect1_innerShadow_2617_133158"/>
</filter>
<filter id="filter13_i_2617_133158" x="1223.14" y="184.659" width="43.5664" height="11.1331" filterUnits="userSpaceOnUse" color-interpolation-filters="sRGB">
<feFlood flood-opacity="0" result="BackgroundImageFix"/>
<feBlend mode="normal" in="SourceGraphic" in2="BackgroundImageFix" result="shape"/>
<feColorMatrix in="SourceAlpha" type="matrix" values="0 0 0 0 0 0 0 0 0 0 0 0 0 0 0 0 0 0 127 0" result="hardAlpha"/>
<feOffset/>
<feGaussianBlur stdDeviation="4"/>
<feComposite in2="hardAlpha" operator="arithmetic" k2="-1" k3="1"/>
<feColorMatrix type="matrix" values="0 0 0 0 1 0 0 0 0 0.807843 0 0 0 0 0.423529 0 0 0 0.05 0"/>
<feBlend mode="normal" in2="shape" result="effect1_innerShadow_2617_133158"/>
</filter>
<filter id="filter14_i_2617_133158" x="1223.14" y="320.105" width="43.5664" height="11.1331" filterUnits="userSpaceOnUse" color-interpolation-filters="sRGB">
<feFlood flood-opacity="0" result="BackgroundImageFix"/>
<feBlend mode="normal" in="SourceGraphic" in2="BackgroundImageFix" result="shape"/>
<feColorMatrix in="SourceAlpha" type="matrix" values="0 0 0 0 0 0 0 0 0 0 0 0 0 0 0 0 0 0 127 0" result="hardAlpha"/>
<feOffset/>
<feGaussianBlur stdDeviation="4"/>
<feComposite in2="hardAlpha" operator="arithmetic" k2="-1" k3="1"/>
<feColorMatrix type="matrix" values="0 0 0 0 1 0 0 0 0 0.807843 0 0 0 0 0.423529 0 0 0 0.05 0"/>
<feBlend mode="normal" in2="shape" result="effect1_innerShadow_2617_133158"/>
</filter>
<filter id="filter15_i_2617_133158" x="1298.7" y="184.659" width="43.5664" height="11.1331" filterUnits="userSpaceOnUse" color-interpolation-filters="sRGB">
<feFlood flood-opacity="0" result="BackgroundImageFix"/>
<feBlend mode="normal" in="SourceGraphic" in2="BackgroundImageFix" result="shape"/>
<feColorMatrix in="SourceAlpha" type="matrix" values="0 0 0 0 0 0 0 0 0 0 0 0 0 0 0 0 0 0 127 0" result="hardAlpha"/>
<feOffset/>
<feGaussianBlur stdDeviation="4"/>
<feComposite in2="hardAlpha" operator="arithmetic" k2="-1" k3="1"/>
<feColorMatrix type="matrix" values="0 0 0 0 1 0 0 0 0 0.807843 0 0 0 0 0.423529 0 0 0 0.05 0"/>
<feBlend mode="normal" in2="shape" result="effect1_innerShadow_2617_133158"/>
</filter>
<filter id="filter16_i_2617_133158" x="1298.7" y="320.105" width="43.5664" height="11.1331" filterUnits="userSpaceOnUse" color-interpolation-filters="sRGB">
<feFlood flood-opacity="0" result="BackgroundImageFix"/>
<feBlend mode="normal" in="SourceGraphic" in2="BackgroundImageFix" result="shape"/>
<feColorMatrix in="SourceAlpha" type="matrix" values="0 0 0 0 0 0 0 0 0 0 0 0 0 0 0 0 0 0 127 0" result="hardAlpha"/>
<feOffset/>
<feGaussianBlur stdDeviation="4"/>
<feComposite in2="hardAlpha" operator="arithmetic" k2="-1" k3="1"/>
<feColorMatrix type="matrix" values="0 0 0 0 1 0 0 0 0 0.807843 0 0 0 0 0.423529 0 0 0 0.05 0"/>
<feBlend mode="normal" in2="shape" result="effect1_innerShadow_2617_133158"/>
</filter>
<filter id="filter17_i_2617_133158" x="1147.57" y="218.521" width="43.5664" height="11.1331" filterUnits="userSpaceOnUse" color-interpolation-filters="sRGB">
<feFlood flood-opacity="0" result="BackgroundImageFix"/>
<feBlend mode="normal" in="SourceGraphic" in2="BackgroundImageFix" result="shape"/>
<feColorMatrix in="SourceAlpha" type="matrix" values="0 0 0 0 0 0 0 0 0 0 0 0 0 0 0 0 0 0 127 0" result="hardAlpha"/>
<feOffset/>
<feGaussianBlur stdDeviation="4"/>
<feComposite in2="hardAlpha" operator="arithmetic" k2="-1" k3="1"/>
<feColorMatrix type="matrix" values="0 0 0 0 1 0 0 0 0 0.807843 0 0 0 0 0.423529 0 0 0 0.05 0"/>
<feBlend mode="normal" in2="shape" result="effect1_innerShadow_2617_133158"/>
</filter>
<filter id="filter18_i_2617_133158" x="1147.57" y="353.967" width="43.5664" height="11.1331" filterUnits="userSpaceOnUse" color-interpolation-filters="sRGB">
<feFlood flood-opacity="0" result="BackgroundImageFix"/>
<feBlend mode="normal" in="SourceGraphic" in2="BackgroundImageFix" result="shape"/>
<feColorMatrix in="SourceAlpha" type="matrix" values="0 0 0 0 0 0 0 0 0 0 0 0 0 0 0 0 0 0 127 0" result="hardAlpha"/>
<feOffset/>
<feGaussianBlur stdDeviation="4"/>
<feComposite in2="hardAlpha" operator="arithmetic" k2="-1" k3="1"/>
<feColorMatrix type="matrix" values="0 0 0 0 1 0 0 0 0 0.807843 0 0 0 0 0.423529 0 0 0 0.05 0"/>
<feBlend mode="normal" in2="shape" result="effect1_innerShadow_2617_133158"/>
</filter>
<filter id="filter19_i_2617_133158" x="1374.27" y="218.521" width="43.5664" height="11.1331" filterUnits="userSpaceOnUse" color-interpolation-filters="sRGB">
<feFlood flood-opacity="0" result="BackgroundImageFix"/>
<feBlend mode="normal" in="SourceGraphic" in2="BackgroundImageFix" result="shape"/>
<feColorMatrix in="SourceAlpha" type="matrix" values="0 0 0 0 0 0 0 0 0 0 0 0 0 0 0 0 0 0 127 0" result="hardAlpha"/>
<feOffset/>
<feGaussianBlur stdDeviation="4"/>
<feComposite in2="hardAlpha" operator="arithmetic" k2="-1" k3="1"/>
<feColorMatrix type="matrix" values="0 0 0 0 1 0 0 0 0 0.807843 0 0 0 0 0.423529 0 0 0 0.05 0"/>
<feBlend mode="normal" in2="shape" result="effect1_innerShadow_2617_133158"/>
</filter>
<filter id="filter20_i_2617_133158" x="1374.27" y="353.967" width="43.5664" height="11.1331" filterUnits="userSpaceOnUse" color-interpolation-filters="sRGB">
<feFlood flood-opacity="0" result="BackgroundImageFix"/>
<feBlend mode="normal" in="SourceGraphic" in2="BackgroundImageFix" result="shape"/>
<feColorMatrix in="SourceAlpha" type="matrix" values="0 0 0 0 0 0 0 0 0 0 0 0 0 0 0 0 0 0 127 0" result="hardAlpha"/>
<feOffset/>
<feGaussianBlur stdDeviation="4"/>
<feComposite in2="hardAlpha" operator="arithmetic" k2="-1" k3="1"/>
<feColorMatrix type="matrix" values="0 0 0 0 1 0 0 0 0 0.807843 0 0 0 0 0.423529 0 0 0 0.05 0"/>
<feBlend mode="normal" in2="shape" result="effect1_innerShadow_2617_133158"/>
</filter>
<filter id="filter21_i_2617_133158" x="1223.14" y="218.521" width="43.5664" height="11.1331" filterUnits="userSpaceOnUse" color-interpolation-filters="sRGB">
<feFlood flood-opacity="0" result="BackgroundImageFix"/>
<feBlend mode="normal" in="SourceGraphic" in2="BackgroundImageFix" result="shape"/>
<feColorMatrix in="SourceAlpha" type="matrix" values="0 0 0 0 0 0 0 0 0 0 0 0 0 0 0 0 0 0 127 0" result="hardAlpha"/>
<feOffset/>
<feGaussianBlur stdDeviation="4"/>
<feComposite in2="hardAlpha" operator="arithmetic" k2="-1" k3="1"/>
<feColorMatrix type="matrix" values="0 0 0 0 1 0 0 0 0 0.807843 0 0 0 0 0.423529 0 0 0 0.05 0"/>
<feBlend mode="normal" in2="shape" result="effect1_innerShadow_2617_133158"/>
</filter>
<filter id="filter22_i_2617_133158" x="1223.14" y="353.967" width="43.5664" height="11.1331" filterUnits="userSpaceOnUse" color-interpolation-filters="sRGB">
<feFlood flood-opacity="0" result="BackgroundImageFix"/>
<feBlend mode="normal" in="SourceGraphic" in2="BackgroundImageFix" result="shape"/>
<feColorMatrix in="SourceAlpha" type="matrix" values="0 0 0 0 0 0 0 0 0 0 0 0 0 0 0 0 0 0 127 0" result="hardAlpha"/>
<feOffset/>
<feGaussianBlur stdDeviation="4"/>
<feComposite in2="hardAlpha" operator="arithmetic" k2="-1" k3="1"/>
<feColorMatrix type="matrix" values="0 0 0 0 1 0 0 0 0 0.807843 0 0 0 0 0.423529 0 0 0 0.05 0"/>
<feBlend mode="normal" in2="shape" result="effect1_innerShadow_2617_133158"/>
</filter>
<filter id="filter23_i_2617_133158" x="1298.7" y="218.521" width="43.5664" height="11.1331" filterUnits="userSpaceOnUse" color-interpolation-filters="sRGB">
<feFlood flood-opacity="0" result="BackgroundImageFix"/>
<feBlend mode="normal" in="SourceGraphic" in2="BackgroundImageFix" result="shape"/>
<feColorMatrix in="SourceAlpha" type="matrix" values="0 0 0 0 0 0 0 0 0 0 0 0 0 0 0 0 0 0 127 0" result="hardAlpha"/>
<feOffset/>
<feGaussianBlur stdDeviation="4"/>
<feComposite in2="hardAlpha" operator="arithmetic" k2="-1" k3="1"/>
<feColorMatrix type="matrix" values="0 0 0 0 1 0 0 0 0 0.807843 0 0 0 0 0.423529 0 0 0 0.05 0"/>
<feBlend mode="normal" in2="shape" result="effect1_innerShadow_2617_133158"/>
</filter>
<filter id="filter24_i_2617_133158" x="1298.7" y="353.967" width="43.5664" height="11.1331" filterUnits="userSpaceOnUse" color-interpolation-filters="sRGB">
<feFlood flood-opacity="0" result="BackgroundImageFix"/>
<feBlend mode="normal" in="SourceGraphic" in2="BackgroundImageFix" result="shape"/>
<feColorMatrix in="SourceAlpha" type="matrix" values="0 0 0 0 0 0 0 0 0 0 0 0 0 0 0 0 0 0 127 0" result="hardAlpha"/>
<feOffset/>
<feGaussianBlur stdDeviation="4"/>
<feComposite in2="hardAlpha" operator="arithmetic" k2="-1" k3="1"/>
<feColorMatrix type="matrix" values="0 0 0 0 1 0 0 0 0 0.807843 0 0 0 0 0.423529 0 0 0 0.05 0"/>
<feBlend mode="normal" in2="shape" result="effect1_innerShadow_2617_133158"/>
</filter>
<filter id="filter25_i_2617_133158" x="1147.57" y="252.382" width="43.5664" height="11.1331" filterUnits="userSpaceOnUse" color-interpolation-filters="sRGB">
<feFlood flood-opacity="0" result="BackgroundImageFix"/>
<feBlend mode="normal" in="SourceGraphic" in2="BackgroundImageFix" result="shape"/>
<feColorMatrix in="SourceAlpha" type="matrix" values="0 0 0 0 0 0 0 0 0 0 0 0 0 0 0 0 0 0 127 0" result="hardAlpha"/>
<feOffset/>
<feGaussianBlur stdDeviation="4"/>
<feComposite in2="hardAlpha" operator="arithmetic" k2="-1" k3="1"/>
<feColorMatrix type="matrix" values="0 0 0 0 1 0 0 0 0 0.807843 0 0 0 0 0.423529 0 0 0 0.05 0"/>
<feBlend mode="normal" in2="shape" result="effect1_innerShadow_2617_133158"/>
</filter>
<filter id="filter26_i_2617_133158" x="1374.27" y="252.382" width="43.5664" height="11.1331" filterUnits="userSpaceOnUse" color-interpolation-filters="sRGB">
<feFlood flood-opacity="0" result="BackgroundImageFix"/>
<feBlend mode="normal" in="SourceGraphic" in2="BackgroundImageFix" result="shape"/>
<feColorMatrix in="SourceAlpha" type="matrix" values="0 0 0 0 0 0 0 0 0 0 0 0 0 0 0 0 0 0 127 0" result="hardAlpha"/>
<feOffset/>
<feGaussianBlur stdDeviation="4"/>
<feComposite in2="hardAlpha" operator="arithmetic" k2="-1" k3="1"/>
<feColorMatrix type="matrix" values="0 0 0 0 1 0 0 0 0 0.807843 0 0 0 0 0.423529 0 0 0 0.05 0"/>
<feBlend mode="normal" in2="shape" result="effect1_innerShadow_2617_133158"/>
</filter>
<filter id="filter27_i_2617_133158" x="1223.14" y="252.382" width="43.5664" height="11.1331" filterUnits="userSpaceOnUse" color-interpolation-filters="sRGB">
<feFlood flood-opacity="0" result="BackgroundImageFix"/>
<feBlend mode="normal" in="SourceGraphic" in2="BackgroundImageFix" result="shape"/>
<feColorMatrix in="SourceAlpha" type="matrix" values="0 0 0 0 0 0 0 0 0 0 0 0 0 0 0 0 0 0 127 0" result="hardAlpha"/>
<feOffset/>
<feGaussianBlur stdDeviation="4"/>
<feComposite in2="hardAlpha" operator="arithmetic" k2="-1" k3="1"/>
<feColorMatrix type="matrix" values="0 0 0 0 1 0 0 0 0 0.807843 0 0 0 0 0.423529 0 0 0 0.05 0"/>
<feBlend mode="normal" in2="shape" result="effect1_innerShadow_2617_133158"/>
</filter>
<filter id="filter28_i_2617_133158" x="1298.7" y="252.382" width="43.5664" height="11.1331" filterUnits="userSpaceOnUse" color-interpolation-filters="sRGB">
<feFlood flood-opacity="0" result="BackgroundImageFix"/>
<feBlend mode="normal" in="SourceGraphic" in2="BackgroundImageFix" result="shape"/>
<feColorMatrix in="SourceAlpha" type="matrix" values="0 0 0 0 0 0 0 0 0 0 0 0 0 0 0 0 0 0 127 0" result="hardAlpha"/>
<feOffset/>
<feGaussianBlur stdDeviation="4"/>
<feComposite in2="hardAlpha" operator="arithmetic" k2="-1" k3="1"/>
<feColorMatrix type="matrix" values="0 0 0 0 1 0 0 0 0 0.807843 0 0 0 0 0.423529 0 0 0 0.05 0"/>
<feBlend mode="normal" in2="shape" result="effect1_innerShadow_2617_133158"/>
</filter>
<filter id="filter29_i_2617_133158" x="1147.57" y="286.244" width="43.5664" height="11.1331" filterUnits="userSpaceOnUse" color-interpolation-filters="sRGB">
<feFlood flood-opacity="0" result="BackgroundImageFix"/>
<feBlend mode="normal" in="SourceGraphic" in2="BackgroundImageFix" result="shape"/>
<feColorMatrix in="SourceAlpha" type="matrix" values="0 0 0 0 0 0 0 0 0 0 0 0 0 0 0 0 0 0 127 0" result="hardAlpha"/>
<feOffset/>
<feGaussianBlur stdDeviation="4"/>
<feComposite in2="hardAlpha" operator="arithmetic" k2="-1" k3="1"/>
<feColorMatrix type="matrix" values="0 0 0 0 1 0 0 0 0 0.807843 0 0 0 0 0.423529 0 0 0 0.05 0"/>
<feBlend mode="normal" in2="shape" result="effect1_innerShadow_2617_133158"/>
</filter>
<filter id="filter30_i_2617_133158" x="1072" y="184.659" width="43.5664" height="11.1331" filterUnits="userSpaceOnUse" color-interpolation-filters="sRGB">
<feFlood flood-opacity="0" result="BackgroundImageFix"/>
<feBlend mode="normal" in="SourceGraphic" in2="BackgroundImageFix" result="shape"/>
<feColorMatrix in="SourceAlpha" type="matrix" values="0 0 0 0 0 0 0 0 0 0 0 0 0 0 0 0 0 0 127 0" result="hardAlpha"/>
<feOffset/>
<feGaussianBlur stdDeviation="4"/>
<feComposite in2="hardAlpha" operator="arithmetic" k2="-1" k3="1"/>
<feColorMatrix type="matrix" values="0 0 0 0 1 0 0 0 0 0.807843 0 0 0 0 0.423529 0 0 0 0.05 0"/>
<feBlend mode="normal" in2="shape" result="effect1_innerShadow_2617_133158"/>
</filter>
<filter id="filter31_i_2617_133158" x="1072" y="320.105" width="43.5664" height="11.1331" filterUnits="userSpaceOnUse" color-interpolation-filters="sRGB">
<feFlood flood-opacity="0" result="BackgroundImageFix"/>
<feBlend mode="normal" in="SourceGraphic" in2="BackgroundImageFix" result="shape"/>
<feColorMatrix in="SourceAlpha" type="matrix" values="0 0 0 0 0 0 0 0 0 0 0 0 0 0 0 0 0 0 127 0" result="hardAlpha"/>
<feOffset/>
<feGaussianBlur stdDeviation="4"/>
<feComposite in2="hardAlpha" operator="arithmetic" k2="-1" k3="1"/>
<feColorMatrix type="matrix" values="0 0 0 0 1 0 0 0 0 0.807843 0 0 0 0 0.423529 0 0 0 0.05 0"/>
<feBlend mode="normal" in2="shape" result="effect1_innerShadow_2617_133158"/>
</filter>
<filter id="filter32_i_2617_133158" x="1072" y="218.521" width="43.5664" height="11.1331" filterUnits="userSpaceOnUse" color-interpolation-filters="sRGB">
<feFlood flood-opacity="0" result="BackgroundImageFix"/>
<feBlend mode="normal" in="SourceGraphic" in2="BackgroundImageFix" result="shape"/>
<feColorMatrix in="SourceAlpha" type="matrix" values="0 0 0 0 0 0 0 0 0 0 0 0 0 0 0 0 0 0 127 0" result="hardAlpha"/>
<feOffset/>
<feGaussianBlur stdDeviation="4"/>
<feComposite in2="hardAlpha" operator="arithmetic" k2="-1" k3="1"/>
<feColorMatrix type="matrix" values="0 0 0 0 1 0 0 0 0 0.807843 0 0 0 0 0.423529 0 0 0 0.05 0"/>
<feBlend mode="normal" in2="shape" result="effect1_innerShadow_2617_133158"/>
</filter>
<filter id="filter33_i_2617_133158" x="1072" y="353.967" width="43.5664" height="11.1331" filterUnits="userSpaceOnUse" color-interpolation-filters="sRGB">
<feFlood flood-opacity="0" result="BackgroundImageFix"/>
<feBlend mode="normal" in="SourceGraphic" in2="BackgroundImageFix" result="shape"/>
<feColorMatrix in="SourceAlpha" type="matrix" values="0 0 0 0 0 0 0 0 0 0 0 0 0 0 0 0 0 0 127 0" result="hardAlpha"/>
<feOffset/>
<feGaussianBlur stdDeviation="4"/>
<feComposite in2="hardAlpha" operator="arithmetic" k2="-1" k3="1"/>
<feColorMatrix type="matrix" values="0 0 0 0 1 0 0 0 0 0.807843 0 0 0 0 0.423529 0 0 0 0.05 0"/>
<feBlend mode="normal" in2="shape" result="effect1_innerShadow_2617_133158"/>
</filter>
<filter id="filter34_i_2617_133158" x="1072" y="252.382" width="43.5664" height="11.1331" filterUnits="userSpaceOnUse" color-interpolation-filters="sRGB">
<feFlood flood-opacity="0" result="BackgroundImageFix"/>
<feBlend mode="normal" in="SourceGraphic" in2="BackgroundImageFix" result="shape"/>
<feColorMatrix in="SourceAlpha" type="matrix" values="0 0 0 0 0 0 0 0 0 0 0 0 0 0 0 0 0 0 127 0" result="hardAlpha"/>
<feOffset/>
<feGaussianBlur stdDeviation="4"/>
<feComposite in2="hardAlpha" operator="arithmetic" k2="-1" k3="1"/>
<feColorMatrix type="matrix" values="0 0 0 0 1 0 0 0 0 0.807843 0 0 0 0 0.423529 0 0 0 0.05 0"/>
<feBlend mode="normal" in2="shape" result="effect1_innerShadow_2617_133158"/>
</filter>
<filter id="filter35_i_2617_133158" x="1072" y="286.244" width="43.5664" height="11.1331" filterUnits="userSpaceOnUse" color-interpolation-filters="sRGB">
<feFlood flood-opacity="0" result="BackgroundImageFix"/>
<feBlend mode="normal" in="SourceGraphic" in2="BackgroundImageFix" result="shape"/>
<feColorMatrix in="SourceAlpha" type="matrix" values="0 0 0 0 0 0 0 0 0 0 0 0 0 0 0 0 0 0 127 0" result="hardAlpha"/>
<feOffset/>
<feGaussianBlur stdDeviation="4"/>
<feComposite in2="hardAlpha" operator="arithmetic" k2="-1" k3="1"/>
<feColorMatrix type="matrix" values="0 0 0 0 1 0 0 0 0 0.807843 0 0 0 0 0.423529 0 0 0 0.05 0"/>
<feBlend mode="normal" in2="shape" result="effect1_innerShadow_2617_133158"/>
</filter>
<filter id="filter36_i_2617_133158" x="1374.27" y="286.244" width="43.5664" height="11.1331" filterUnits="userSpaceOnUse" color-interpolation-filters="sRGB">
<feFlood flood-opacity="0" result="BackgroundImageFix"/>
<feBlend mode="normal" in="SourceGraphic" in2="BackgroundImageFix" result="shape"/>
<feColorMatrix in="SourceAlpha" type="matrix" values="0 0 0 0 0 0 0 0 0 0 0 0 0 0 0 0 0 0 127 0" result="hardAlpha"/>
<feOffset/>
<feGaussianBlur stdDeviation="4"/>
<feComposite in2="hardAlpha" operator="arithmetic" k2="-1" k3="1"/>
<feColorMatrix type="matrix" values="0 0 0 0 1 0 0 0 0 0.807843 0 0 0 0 0.423529 0 0 0 0.05 0"/>
<feBlend mode="normal" in2="shape" result="effect1_innerShadow_2617_133158"/>
</filter>
<filter id="filter37_i_2617_133158" x="1223.14" y="286.244" width="43.5664" height="11.1331" filterUnits="userSpaceOnUse" color-interpolation-filters="sRGB">
<feFlood flood-opacity="0" result="BackgroundImageFix"/>
<feBlend mode="normal" in="SourceGraphic" in2="BackgroundImageFix" result="shape"/>
<feColorMatrix in="SourceAlpha" type="matrix" values="0 0 0 0 0 0 0 0 0 0 0 0 0 0 0 0 0 0 127 0" result="hardAlpha"/>
<feOffset/>
<feGaussianBlur stdDeviation="4"/>
<feComposite in2="hardAlpha" operator="arithmetic" k2="-1" k3="1"/>
<feColorMatrix type="matrix" values="0 0 0 0 1 0 0 0 0 0.807843 0 0 0 0 0.423529 0 0 0 0.05 0"/>
<feBlend mode="normal" in2="shape" result="effect1_innerShadow_2617_133158"/>
</filter>
<filter id="filter38_i_2617_133158" x="1298.7" y="286.244" width="43.5664" height="11.1331" filterUnits="userSpaceOnUse" color-interpolation-filters="sRGB">
<feFlood flood-opacity="0" result="BackgroundImageFix"/>
<feBlend mode="normal" in="SourceGraphic" in2="BackgroundImageFix" result="shape"/>
<feColorMatrix in="SourceAlpha" type="matrix" values="0 0 0 0 0 0 0 0 0 0 0 0 0 0 0 0 0 0 127 0" result="hardAlpha"/>
<feOffset/>
<feGaussianBlur stdDeviation="4"/>
<feComposite in2="hardAlpha" operator="arithmetic" k2="-1" k3="1"/>
<feColorMatrix type="matrix" values="0 0 0 0 1 0 0 0 0 0.807843 0 0 0 0 0.423529 0 0 0 0.05 0"/>
<feBlend mode="normal" in2="shape" result="effect1_innerShadow_2617_133158"/>
</filter>
<filter id="filter39_i_2617_133158" x="1032" y="164" width="590" height="588" filterUnits="userSpaceOnUse" color-interpolation-filters="sRGB">
<feFlood flood-opacity="0" result="BackgroundImageFix"/>
<feBlend mode="normal" in="SourceGraphic" in2="BackgroundImageFix" result="shape"/>
<feColorMatrix in="SourceAlpha" type="matrix" values="0 0 0 0 0 0 0 0 0 0 0 0 0 0 0 0 0 0 127 0" result="hardAlpha"/>
<feOffset/>
<feGaussianBlur stdDeviation="20"/>
<feComposite in2="hardAlpha" operator="arithmetic" k2="-1" k3="1"/>
<feColorMatrix type="matrix" values="0 0 0 0 0.354167 0 0 0 0 0.336458 0 0 0 0 0.301042 0 0 0 0.1 0"/>
<feBlend mode="normal" in2="shape" result="effect1_innerShadow_2617_133158"/>
</filter>
<linearGradient id="paint0_linear_2617_133158" x1="686" y1="1497.55" x2="783.619" y2="-333.541" gradientUnits="userSpaceOnUse">
<stop stop-color="white" stop-opacity="0.35"/>
<stop offset="1" stop-color="white"/>
</linearGradient>
<clipPath id="clip0_2617_133158">
<rect width="1440" height="2509" fill="white"/>
</clipPath>
</defs>
</svg>
