<svg width="48" height="48" viewBox="0 0 48 48" fill="none" xmlns="http://www.w3.org/2000/svg">
<circle cx="24" cy="24" r="24" fill="#453F9B"/>
<g clip-path="url(#clip0_281_11137)">
<path d="M30.8949 22.5975L29.7547 18.7345C29.4947 17.8535 28.7123 17.262 27.8078 17.262H20.1749C19.2704 17.262 18.488 17.8535 18.228 18.7345L17.0877 22.5975C16.3678 22.9156 15.8623 23.6438 15.8623 24.4915V28.6226C15.8623 29.193 16.3173 29.6554 16.8784 29.6554H16.8785L16.8784 30.6881C16.8784 31.2585 17.3333 31.721 17.8946 31.721H18.9108C19.4719 31.721 19.9269 31.2585 19.9269 30.6882L19.9264 29.6554H28.0559L28.0558 30.6881C28.0558 31.2585 28.5107 31.721 29.0719 31.721H30.0881C30.6493 31.721 31.1042 31.2585 31.1042 30.6882V29.6555L31.1039 29.6554H31.1042C31.6654 29.6554 32.1204 29.193 32.1204 28.6226V24.4915C32.1204 23.6438 31.6149 22.9156 30.8949 22.5975L30.8949 22.5975ZM20.1749 19.3275H27.8077L28.7223 22.4259H19.2603L20.1749 19.3275H20.1749ZM19.9268 27.0734C19.3656 27.0734 18.9107 26.611 18.9107 26.0407C18.9107 25.4702 19.3656 25.0079 19.9268 25.0079C20.488 25.0079 20.9429 25.4702 20.9429 26.0407C20.9429 26.611 20.488 27.0734 19.9268 27.0734ZM28.0558 27.0734C27.4946 27.0734 27.0397 26.611 27.0397 26.0407C27.0397 25.4702 27.4946 25.0079 28.0558 25.0079C28.617 25.0079 29.0719 25.4702 29.0719 26.0407C29.0719 26.611 28.617 27.0734 28.0558 27.0734Z" fill="white"/>
</g>
<defs>
<clipPath id="clip0_281_11137">
<rect width="16.2581" height="16.5246" fill="white" transform="translate(15.6733 15.9999)"/>
</clipPath>
</defs>
</svg>
