<?xml version="1.0" standalone="no"?>
<!DOCTYPE svg PUBLIC "-//W3C//DTD SVG 20010904//EN"
 "http://www.w3.org/TR/2001/REC-SVG-20010904/DTD/svg10.dtd">
<svg version="1.0" xmlns="http://www.w3.org/2000/svg"
 width="976.000000pt" height="976.000000pt" viewBox="0 0 976.000000 976.000000"
 preserveAspectRatio="xMidYMid meet">
<metadata>
Created by potrace 1.14, written by Peter Selinger 2001-2017
</metadata>
<g transform="translate(0.000000,976.000000) scale(0.100000,-0.100000)"
fill="#000000" stroke="none">
<path d="M3435 8401 c-2 -2 -37 -5 -77 -7 -40 -2 -91 -6 -113 -9 -22 -3 -65
-7 -95 -10 -52 -5 -65 -7 -115 -18 -11 -3 -42 -8 -69 -11 -27 -4 -53 -9 -58
-12 -4 -3 -22 -6 -40 -8 -18 -2 -51 -9 -73 -14 -22 -6 -51 -13 -65 -16 -14 -2
-25 -5 -25 -6 0 -2 -14 -5 -53 -14 -34 -7 -279 -85 -310 -98 -15 -6 -29 -12
-32 -13 -58 -20 -266 -110 -271 -118 -3 -5 -9 -8 -13 -7 -6 1 -141 -64 -186
-90 -8 -5 -51 -30 -95 -56 -44 -25 -99 -59 -122 -75 -23 -16 -46 -29 -52 -29
-6 0 -11 -4 -11 -10 0 -5 -5 -10 -11 -10 -6 0 -17 -6 -24 -12 -33 -30 -45 -38
-54 -38 -6 0 -14 -6 -18 -13 -4 -6 -26 -24 -48 -39 -22 -15 -52 -38 -67 -50
-15 -13 -36 -30 -46 -38 -81 -64 -123 -103 -252 -230 -146 -145 -194 -196
-260 -279 -19 -24 -40 -48 -45 -55 -6 -6 -35 -45 -65 -86 -30 -41 -58 -78 -63
-81 -5 -3 -7 -8 -5 -10 1 -2 -10 -20 -25 -40 -15 -20 -27 -41 -27 -47 0 -6 -4
-12 -8 -14 -8 -3 -29 -37 -110 -176 -46 -80 -145 -283 -149 -306 -2 -11 -11
-28 -20 -38 -9 -10 -13 -18 -9 -18 3 0 0 -12 -8 -27 -16 -34 -104 -284 -110
-316 -2 -13 -14 -56 -26 -97 -12 -41 -24 -84 -25 -95 -5 -28 -14 -75 -21 -105
-15 -65 -23 -111 -29 -180 -3 -30 -8 -61 -10 -68 -12 -32 -20 -205 -19 -412 0
-234 8 -363 30 -480 3 -14 7 -38 9 -55 4 -28 6 -41 21 -125 19 -108 110 -430
134 -472 6 -10 10 -26 10 -36 0 -10 4 -22 8 -27 5 -6 19 -37 32 -70 33 -84
141 -306 190 -390 22 -38 43 -78 46 -87 4 -10 10 -18 15 -18 5 0 9 -5 9 -11 0
-12 149 -234 179 -266 12 -12 21 -26 21 -32 0 -5 3 -11 8 -13 4 -1 29 -30 55
-63 118 -147 266 -300 447 -459 142 -124 364 -282 550 -389 73 -42 240 -130
250 -132 3 0 14 -6 25 -12 94 -52 483 -194 620 -227 6 -1 55 -12 110 -25 55
-12 111 -25 125 -28 38 -9 52 -12 90 -17 19 -3 55 -8 80 -11 25 -4 60 -10 78
-15 22 -6 30 -5 26 2 -4 7 -2 8 4 4 64 -40 699 -41 952 -1 19 3 53 8 75 11 22
3 54 8 70 11 17 3 39 7 50 9 11 2 34 6 50 10 17 3 39 8 50 9 11 2 20 4 20 5 0
2 13 5 55 13 61 12 192 49 275 77 50 17 92 31 95 31 43 10 279 108 400 167
115 56 298 157 350 192 8 5 48 32 88 60 41 27 75 50 78 50 2 0 12 6 21 14 10
8 63 50 117 92 101 78 122 95 229 194 125 113 275 274 356 379 14 19 35 45 46
56 11 12 36 45 55 74 19 28 40 57 45 64 23 27 125 188 175 277 29 52 64 114
77 138 26 46 21 45 118 25 163 -33 297 -46 480 -47 228 0 371 14 660 68 98 18
369 96 450 130 123 52 191 82 195 86 3 3 31 18 64 35 32 16 81 44 108 62 27
18 53 33 58 33 5 0 10 3 12 8 2 4 39 34 83 66 137 102 302 281 393 426 66 104
164 337 186 440 33 149 37 182 41 340 6 198 -13 257 -75 225 -26 -13 -139
-121 -241 -231 -84 -89 -237 -232 -316 -295 -43 -34 -80 -65 -83 -69 -3 -4 -9
-9 -15 -11 -5 -2 -50 -30 -98 -63 -214 -142 -478 -241 -722 -272 -116 -15
-467 -6 -496 12 -4 2 -24 6 -45 9 -38 5 -67 10 -101 20 -130 35 -146 40 -236
71 l-78 28 6 85 c4 47 8 102 11 121 5 43 5 387 0 455 -9 125 -17 209 -20 214
-4 6 -12 62 -22 136 -2 17 -13 73 -25 125 -12 52 -22 103 -22 113 -1 9 -5 17
-9 17 -4 0 -7 3 -6 8 1 4 -3 25 -7 47 -11 50 -10 46 -19 70 -8 19 -12 34 -14
45 -1 3 -11 32 -22 65 -12 33 -23 65 -24 70 -7 27 -60 156 -107 260 -12 28
-23 52 -24 55 -1 6 -35 71 -88 170 -22 41 -44 78 -49 81 -5 3 -9 9 -8 13 2 9
-119 199 -132 207 -6 3 -8 8 -6 10 1 2 -24 40 -57 84 -79 106 -86 115 -112
142 -12 12 -26 29 -30 37 -6 12 -175 196 -219 240 -134 134 -359 315 -534 432
-175 117 -211 138 -435 249 -142 70 -446 195 -475 195 -5 0 -21 5 -37 11 -15
6 -29 10 -30 10 -2 0 -26 7 -55 15 -28 9 -60 17 -70 19 -10 2 -22 7 -28 10 -5
3 -22 8 -37 10 -16 2 -37 6 -48 9 -19 5 -151 34 -185 41 -19 4 -165 26 -199
30 -87 10 -165 18 -226 22 -93 5 -446 9 -450 4z m475 -1145 c25 -3 61 -9 80
-12 19 -4 44 -8 55 -9 174 -18 564 -154 737 -256 27 -16 51 -29 54 -29 10 0
224 -144 224 -152 0 -4 5 -8 11 -8 16 0 170 -131 264 -225 138 -137 233 -257
344 -433 39 -61 68 -112 66 -112 -2 0 9 -23 25 -50 17 -28 30 -53 30 -55 0 -3
11 -28 24 -57 52 -115 107 -276 134 -388 30 -127 31 -131 37 -180 2 -19 4 -35
5 -35 3 0 9 -43 13 -100 3 -33 6 -64 7 -70 9 -41 3 -43 -67 -24 -38 11 -99 26
-138 35 -38 9 -77 19 -85 22 -21 7 -39 11 -89 17 -24 3 -46 7 -50 9 -3 2 -31
7 -61 11 -30 3 -68 8 -85 10 -143 19 -383 23 -530 10 -49 -4 -107 -8 -127 -9
-21 -1 -38 -3 -38 -6 0 -3 -14 -7 -31 -8 -44 -3 -212 -41 -260 -57 -22 -8 -40
-14 -42 -14 -7 2 -64 -15 -72 -21 -5 -4 -39 -17 -75 -29 -36 -13 -69 -27 -75
-32 -5 -5 -17 -9 -26 -9 -9 0 -22 -6 -28 -14 -7 -8 -24 -17 -39 -21 -15 -4
-29 -10 -32 -13 -3 -4 -34 -25 -70 -46 -108 -65 -225 -165 -294 -251 -38 -48
-95 -148 -90 -157 3 -4 0 -8 -5 -8 -6 0 -10 -3 -9 -7 1 -5 -3 -30 -9 -58 -5
-27 -9 -63 -8 -80 1 -16 3 -42 3 -56 3 -37 26 -66 43 -52 8 6 48 25 89 43 41
17 89 37 105 45 17 7 41 16 55 20 14 3 34 10 45 15 33 13 164 47 255 66 137
27 393 25 540 -6 30 -6 65 -13 77 -16 22 -4 195 -62 243 -82 14 -5 28 -10 33
-11 17 -2 340 -173 447 -236 63 -37 135 -79 160 -93 25 -14 47 -28 50 -31 3
-4 17 -12 33 -18 15 -7 27 -19 27 -26 0 -53 -313 -531 -334 -510 -3 4 -6 0 -6
-7 0 -41 -407 -397 -522 -456 -18 -9 -37 -22 -44 -28 -18 -19 -311 -163 -389
-191 -179 -67 -415 -124 -575 -141 -321 -34 -613 -14 -890 62 -52 14 -99 27
-105 28 -5 2 -23 8 -38 14 -16 7 -34 12 -41 12 -7 0 -16 3 -20 8 -4 4 -11 7
-14 8 -14 2 -68 23 -145 58 -32 14 -60 26 -62 26 -3 0 -24 12 -48 27 -23 14
-44 26 -47 25 -8 -1 -115 61 -118 70 -2 4 -8 8 -13 8 -14 0 -143 88 -235 161
-207 164 -387 362 -537 590 -58 90 -160 281 -191 359 -10 25 -23 56 -29 70 -6
14 -11 27 -12 30 0 3 -13 42 -29 87 -15 45 -27 85 -27 88 0 2 -5 19 -10 37
-15 48 -23 84 -44 199 -35 191 -39 499 -11 689 3 14 7 47 11 75 4 27 11 59 15
70 4 11 8 22 8 25 1 27 17 88 25 98 5 6 7 12 4 12 -3 0 1 21 9 48 8 26 16 52
17 57 2 6 5 15 8 20 4 6 10 24 14 40 5 17 9 32 10 35 1 3 9 23 19 45 10 22 19
46 20 53 1 7 8 18 14 24 7 7 12 17 12 23 0 25 125 254 185 340 149 213 363
444 524 565 18 14 39 31 46 38 8 6 18 12 23 12 6 0 12 3 14 8 3 7 105 82 112
82 2 0 28 16 57 35 30 19 59 35 65 35 7 0 14 3 16 8 4 10 198 106 222 109 11
2 26 9 34 15 8 7 19 13 26 15 6 1 58 19 116 38 102 34 189 59 240 69 14 2 36
7 50 10 45 10 108 21 195 31 27 3 51 8 53 10 5 5 443 -3 492 -9z"/>
</g>
</svg>
