<svg width="460" height="712" viewBox="0 0 460 712" fill="none" xmlns="http://www.w3.org/2000/svg">
<g opacity="0.1" filter="url(#filter0_i_1501_79598)">
<path d="M413.092 -144C295.598 -144 200 -48.2223 200 69.5065C200 187.222 295.598 283 413.092 283C531.04 283 627 187.222 627 69.5065C627 -48.2223 531.04 -144 413.092 -144ZM413.092 213.737C336.803 213.737 272.355 147.69 272.355 69.5065C272.355 -8.67681 336.803 -74.7242 413.092 -74.7242C490.702 -74.7242 553.83 -10.0252 553.83 69.5065C553.83 149.025 490.702 213.737 413.092 213.737Z" fill="#9790E1"/>
</g>
<g opacity="0.3" filter="url(#filter1_i_1501_79598)">
<g filter="url(#filter2_i_1501_79598)">
<path d="M107.846 523.502C93.06 516.607 81.3234 522.925 83.1751 526.336C95.4155 521.456 98.6015 531.279 113.047 531.657C125.982 531.3 130.571 525.57 130.244 520.501C129.972 516.544 123.953 531.006 107.846 523.502Z" fill="#453F9B"/>
</g>
<g filter="url(#filter3_i_1501_79598)">
<path d="M107.846 667.737C93.06 660.842 81.3234 667.16 83.1751 670.571C95.4155 665.691 98.6015 675.514 113.047 675.892C125.982 675.535 130.571 669.805 130.244 664.736C129.972 660.779 123.953 675.241 107.846 667.737Z" fill="#453F9B"/>
</g>
<g filter="url(#filter4_i_1501_79598)">
<path d="M353.854 523.502C339.068 516.607 327.331 522.925 329.183 526.336C341.423 521.456 344.609 531.279 359.055 531.657C371.99 531.3 376.578 525.57 376.252 520.501C375.979 516.544 369.961 531.006 353.854 523.502Z" fill="#453F9B"/>
</g>
<g filter="url(#filter5_i_1501_79598)">
<path d="M353.854 667.737C339.068 660.842 327.331 667.16 329.183 670.571C341.423 665.691 344.609 675.514 359.055 675.892C371.99 675.535 376.578 669.805 376.252 664.736C375.979 660.779 369.961 675.241 353.854 667.737Z" fill="#453F9B"/>
</g>
<g filter="url(#filter6_i_1501_79598)">
<path d="M435.856 523.502C421.07 516.607 409.333 522.925 411.185 526.336C423.425 521.456 426.611 531.279 441.057 531.657C453.992 531.3 458.58 525.57 458.253 520.501C457.981 516.544 451.963 531.006 435.856 523.502Z" fill="#453F9B"/>
</g>
<g filter="url(#filter7_i_1501_79598)">
<path d="M435.856 667.737C421.07 660.842 409.333 667.16 411.185 670.571C423.425 665.691 426.611 675.514 441.057 675.892C453.992 675.535 458.58 669.805 458.253 664.736C457.981 660.779 451.963 675.241 435.856 667.737Z" fill="#453F9B"/>
</g>
<g filter="url(#filter8_i_1501_79598)">
<path d="M189.848 523.502C175.062 516.607 163.325 522.925 165.177 526.336C177.417 521.456 180.603 531.279 195.049 531.657C207.984 531.3 212.573 525.57 212.246 520.501C211.973 516.544 205.955 531.006 189.848 523.502Z" fill="#453F9B"/>
</g>
<g filter="url(#filter9_i_1501_79598)">
<path d="M189.848 667.737C175.062 660.842 163.325 667.16 165.177 670.571C177.417 665.691 180.603 675.514 195.049 675.892C207.984 675.535 212.573 669.805 212.246 664.736C211.973 660.779 205.955 675.241 189.848 667.737Z" fill="#453F9B"/>
</g>
<g filter="url(#filter10_i_1501_79598)">
<path d="M271.852 523.502C257.066 516.607 245.329 522.925 247.181 526.336C259.421 521.456 262.607 531.279 277.053 531.657C289.988 531.3 294.576 525.57 294.25 520.501C293.977 516.544 287.959 531.006 271.852 523.502Z" fill="#453F9B"/>
</g>
<g filter="url(#filter11_i_1501_79598)">
<path d="M271.852 667.737C257.066 660.842 245.329 667.16 247.181 670.571C259.421 665.691 262.607 675.514 277.053 675.892C289.988 675.535 294.576 669.805 294.25 664.736C293.977 660.779 287.959 675.241 271.852 667.737Z" fill="#453F9B"/>
</g>
<g filter="url(#filter12_i_1501_79598)">
<path d="M107.846 559.561C93.06 552.666 81.3234 558.984 83.1751 562.395C95.4155 557.515 98.6015 567.338 113.047 567.716C125.982 567.359 130.571 561.629 130.244 556.559C129.972 552.603 123.953 567.065 107.846 559.561Z" fill="#453F9B"/>
</g>
<g filter="url(#filter13_i_1501_79598)">
<path d="M107.846 703.796C93.06 696.901 81.3234 703.219 83.1751 706.629C95.4155 701.749 98.6015 711.573 113.047 711.95C125.982 711.593 130.571 705.863 130.244 700.794C129.972 696.838 123.953 711.3 107.846 703.796Z" fill="#453F9B"/>
</g>
<g filter="url(#filter14_i_1501_79598)">
<path d="M353.854 559.561C339.068 552.666 327.331 558.984 329.183 562.395C341.423 557.515 344.609 567.338 359.055 567.716C371.99 567.359 376.578 561.629 376.252 556.559C375.979 552.603 369.961 567.065 353.854 559.561Z" fill="#453F9B"/>
</g>
<g filter="url(#filter15_i_1501_79598)">
<path d="M353.854 703.796C339.068 696.901 327.331 703.219 329.183 706.629C341.423 701.749 344.609 711.573 359.055 711.95C371.99 711.593 376.578 705.863 376.252 700.794C375.979 696.838 369.961 711.3 353.854 703.796Z" fill="#453F9B"/>
</g>
<g filter="url(#filter16_i_1501_79598)">
<path d="M435.856 559.561C421.07 552.666 409.333 558.984 411.185 562.395C423.425 557.515 426.611 567.338 441.057 567.716C453.992 567.359 458.58 561.629 458.253 556.559C457.981 552.603 451.963 567.065 435.856 559.561Z" fill="#453F9B"/>
</g>
<g filter="url(#filter17_i_1501_79598)">
<path d="M435.856 703.796C421.07 696.901 409.333 703.219 411.185 706.629C423.425 701.749 426.611 711.573 441.057 711.95C453.992 711.593 458.58 705.863 458.253 700.794C457.981 696.838 451.963 711.3 435.856 703.796Z" fill="#453F9B"/>
</g>
<g filter="url(#filter18_i_1501_79598)">
<path d="M189.848 559.561C175.062 552.666 163.325 558.984 165.177 562.395C177.417 557.515 180.603 567.338 195.049 567.716C207.984 567.359 212.573 561.629 212.246 556.559C211.973 552.603 205.955 567.065 189.848 559.561Z" fill="#453F9B"/>
</g>
<g filter="url(#filter19_i_1501_79598)">
<path d="M189.848 703.796C175.062 696.901 163.325 703.219 165.177 706.629C177.417 701.749 180.603 711.573 195.049 711.95C207.984 711.593 212.573 705.863 212.246 700.794C211.973 696.838 205.955 711.3 189.848 703.796Z" fill="#453F9B"/>
</g>
<g filter="url(#filter20_i_1501_79598)">
<path d="M271.852 559.561C257.066 552.666 245.329 558.984 247.181 562.395C259.421 557.515 262.607 567.338 277.053 567.716C289.988 567.359 294.576 561.629 294.25 556.559C293.977 552.603 287.959 567.065 271.852 559.561Z" fill="#453F9B"/>
</g>
<g filter="url(#filter21_i_1501_79598)">
<path d="M271.852 703.796C257.066 696.901 245.329 703.219 247.181 706.629C259.421 701.749 262.607 711.573 277.053 711.95C289.988 711.593 294.576 705.863 294.25 700.794C293.977 696.838 287.959 711.3 271.852 703.796Z" fill="#453F9B"/>
</g>
<g filter="url(#filter22_i_1501_79598)">
<path d="M107.846 595.62C93.06 588.725 81.3234 595.043 83.1751 598.453C95.4155 593.573 98.6015 603.396 113.047 603.774C125.982 603.417 130.571 597.687 130.244 592.618C129.972 588.662 123.953 603.124 107.846 595.62Z" fill="#453F9B"/>
</g>
<g filter="url(#filter23_i_1501_79598)">
<path d="M353.854 595.62C339.068 588.725 327.331 595.043 329.183 598.453C341.423 593.573 344.609 603.396 359.055 603.774C371.99 603.417 376.578 597.687 376.252 592.618C375.979 588.662 369.961 603.124 353.854 595.62Z" fill="#453F9B"/>
</g>
<g filter="url(#filter24_i_1501_79598)">
<path d="M435.856 595.62C421.07 588.725 409.333 595.043 411.185 598.453C423.425 593.573 426.611 603.396 441.057 603.774C453.992 603.417 458.58 597.687 458.253 592.618C457.981 588.662 451.963 603.124 435.856 595.62Z" fill="#453F9B"/>
</g>
<g filter="url(#filter25_i_1501_79598)">
<path d="M189.848 595.62C175.062 588.725 163.325 595.043 165.177 598.453C177.417 593.573 180.603 603.396 195.049 603.774C207.984 603.417 212.573 597.687 212.246 592.618C211.973 588.662 205.955 603.124 189.848 595.62Z" fill="#453F9B"/>
</g>
<g filter="url(#filter26_i_1501_79598)">
<path d="M271.852 595.62C257.066 588.725 245.329 595.043 247.181 598.453C259.421 593.573 262.607 603.396 277.053 603.774C289.988 603.417 294.576 597.687 294.25 592.618C293.977 588.662 287.959 603.124 271.852 595.62Z" fill="#453F9B"/>
</g>
<g filter="url(#filter27_i_1501_79598)">
<path d="M107.846 631.678C93.06 624.783 81.3234 631.101 83.1751 634.512C95.4155 629.632 98.6015 639.455 113.047 639.833C125.982 639.476 130.571 633.746 130.244 628.677C129.972 624.72 123.953 639.182 107.846 631.678Z" fill="#453F9B"/>
</g>
<g filter="url(#filter28_i_1501_79598)">
<path d="M25.8444 523.502C11.058 516.607 -0.678506 522.925 1.17319 526.336C13.4135 521.456 16.5995 531.279 31.0455 531.657C43.9801 531.3 48.5685 525.57 48.2418 520.501C47.9695 516.544 41.9514 531.006 25.8444 523.502Z" fill="#453F9B"/>
</g>
<g filter="url(#filter29_i_1501_79598)">
<path d="M25.8444 667.737C11.058 660.842 -0.678506 667.16 1.17319 670.571C13.4135 665.691 16.5995 675.514 31.0455 675.892C43.9801 675.535 48.5685 669.805 48.2418 664.736C47.9695 660.779 41.9514 675.241 25.8444 667.737Z" fill="#453F9B"/>
</g>
<g filter="url(#filter30_i_1501_79598)">
<path d="M25.8444 559.561C11.058 552.666 -0.678506 558.984 1.17319 562.395C13.4135 557.515 16.5995 567.338 31.0455 567.716C43.9801 567.359 48.5685 561.629 48.2418 556.559C47.9695 552.603 41.9514 567.065 25.8444 559.561Z" fill="#453F9B"/>
</g>
<g filter="url(#filter31_i_1501_79598)">
<path d="M25.8444 703.796C11.058 696.901 -0.678506 703.219 1.17319 706.629C13.4135 701.749 16.5995 711.573 31.0455 711.95C43.9801 711.593 48.5685 705.863 48.2418 700.794C47.9695 696.838 41.9514 711.3 25.8444 703.796Z" fill="#453F9B"/>
</g>
<g filter="url(#filter32_i_1501_79598)">
<path d="M25.8444 595.62C11.058 588.725 -0.678506 595.043 1.17319 598.453C13.4135 593.573 16.5995 603.396 31.0455 603.774C43.9801 603.417 48.5685 597.687 48.2418 592.618C47.9695 588.662 41.9514 603.124 25.8444 595.62Z" fill="#453F9B"/>
</g>
<g filter="url(#filter33_i_1501_79598)">
<path d="M25.8444 631.678C11.058 624.783 -0.678506 631.101 1.17319 634.512C13.4135 629.632 16.5995 639.455 31.0455 639.833C43.9801 639.476 48.5685 633.746 48.2418 628.677C47.9695 624.72 41.9514 639.182 25.8444 631.678Z" fill="#453F9B"/>
</g>
<g filter="url(#filter34_i_1501_79598)">
<path d="M353.854 631.678C339.068 624.783 327.331 631.101 329.183 634.512C341.423 629.632 344.609 639.455 359.055 639.833C371.99 639.476 376.578 633.746 376.252 628.677C375.979 624.72 369.961 639.182 353.854 631.678Z" fill="#453F9B"/>
</g>
<g filter="url(#filter35_i_1501_79598)">
<path d="M435.856 631.678C421.07 624.783 409.333 631.101 411.185 634.512C423.425 629.632 426.611 639.455 441.057 639.833C453.992 639.476 458.58 633.746 458.253 628.677C457.981 624.72 451.963 639.182 435.856 631.678Z" fill="#453F9B"/>
</g>
<g filter="url(#filter36_i_1501_79598)">
<path d="M189.848 631.678C175.062 624.783 163.325 631.101 165.177 634.512C177.417 629.632 180.603 639.455 195.049 639.833C207.984 639.476 212.573 633.746 212.246 628.677C211.973 624.72 205.955 639.182 189.848 631.678Z" fill="#453F9B"/>
</g>
<g filter="url(#filter37_i_1501_79598)">
<path d="M271.852 631.678C257.066 624.783 245.329 631.101 247.181 634.512C259.421 629.632 262.607 639.455 277.053 639.833C289.988 639.476 294.576 633.746 294.25 628.677C293.977 624.72 287.959 639.182 271.852 631.678Z" fill="#453F9B"/>
</g>
</g>
<defs>
<filter id="filter0_i_1501_79598" x="200" y="-144" width="427" height="427" filterUnits="userSpaceOnUse" color-interpolation-filters="sRGB">
<feFlood flood-opacity="0" result="BackgroundImageFix"/>
<feBlend mode="normal" in="SourceGraphic" in2="BackgroundImageFix" result="shape"/>
<feColorMatrix in="SourceAlpha" type="matrix" values="0 0 0 0 0 0 0 0 0 0 0 0 0 0 0 0 0 0 127 0" result="hardAlpha"/>
<feOffset/>
<feGaussianBlur stdDeviation="20"/>
<feComposite in2="hardAlpha" operator="arithmetic" k2="-1" k3="1"/>
<feColorMatrix type="matrix" values="0 0 0 0 0.354167 0 0 0 0 0.336458 0 0 0 0 0.301042 0 0 0 0.1 0"/>
<feBlend mode="normal" in2="shape" result="effect1_innerShadow_1501_79598"/>
</filter>
<filter id="filter1_i_1501_79598" x="0.980469" y="519.802" width="457.289" height="196.149" filterUnits="userSpaceOnUse" color-interpolation-filters="sRGB">
<feFlood flood-opacity="0" result="BackgroundImageFix"/>
<feBlend mode="normal" in="SourceGraphic" in2="BackgroundImageFix" result="shape"/>
<feColorMatrix in="SourceAlpha" type="matrix" values="0 0 0 0 0 0 0 0 0 0 0 0 0 0 0 0 0 0 127 0" result="hardAlpha"/>
<feOffset dy="4"/>
<feGaussianBlur stdDeviation="2"/>
<feComposite in2="hardAlpha" operator="arithmetic" k2="-1" k3="1"/>
<feColorMatrix type="matrix" values="0 0 0 0 0 0 0 0 0 0 0 0 0 0 0 0 0 0 0.01 0"/>
<feBlend mode="normal" in2="shape" result="effect1_innerShadow_1501_79598"/>
</filter>
<filter id="filter2_i_1501_79598" x="82.9824" y="519.802" width="47.2773" height="11.8553" filterUnits="userSpaceOnUse" color-interpolation-filters="sRGB">
<feFlood flood-opacity="0" result="BackgroundImageFix"/>
<feBlend mode="normal" in="SourceGraphic" in2="BackgroundImageFix" result="shape"/>
<feColorMatrix in="SourceAlpha" type="matrix" values="0 0 0 0 0 0 0 0 0 0 0 0 0 0 0 0 0 0 127 0" result="hardAlpha"/>
<feOffset/>
<feGaussianBlur stdDeviation="4"/>
<feComposite in2="hardAlpha" operator="arithmetic" k2="-1" k3="1"/>
<feColorMatrix type="matrix" values="0 0 0 0 1 0 0 0 0 0.807843 0 0 0 0 0.423529 0 0 0 0.05 0"/>
<feBlend mode="normal" in2="shape" result="effect1_innerShadow_1501_79598"/>
</filter>
<filter id="filter3_i_1501_79598" x="82.9824" y="664.036" width="47.2773" height="11.8555" filterUnits="userSpaceOnUse" color-interpolation-filters="sRGB">
<feFlood flood-opacity="0" result="BackgroundImageFix"/>
<feBlend mode="normal" in="SourceGraphic" in2="BackgroundImageFix" result="shape"/>
<feColorMatrix in="SourceAlpha" type="matrix" values="0 0 0 0 0 0 0 0 0 0 0 0 0 0 0 0 0 0 127 0" result="hardAlpha"/>
<feOffset/>
<feGaussianBlur stdDeviation="4"/>
<feComposite in2="hardAlpha" operator="arithmetic" k2="-1" k3="1"/>
<feColorMatrix type="matrix" values="0 0 0 0 1 0 0 0 0 0.807843 0 0 0 0 0.423529 0 0 0 0.05 0"/>
<feBlend mode="normal" in2="shape" result="effect1_innerShadow_1501_79598"/>
</filter>
<filter id="filter4_i_1501_79598" x="328.99" y="519.802" width="47.2773" height="11.8553" filterUnits="userSpaceOnUse" color-interpolation-filters="sRGB">
<feFlood flood-opacity="0" result="BackgroundImageFix"/>
<feBlend mode="normal" in="SourceGraphic" in2="BackgroundImageFix" result="shape"/>
<feColorMatrix in="SourceAlpha" type="matrix" values="0 0 0 0 0 0 0 0 0 0 0 0 0 0 0 0 0 0 127 0" result="hardAlpha"/>
<feOffset/>
<feGaussianBlur stdDeviation="4"/>
<feComposite in2="hardAlpha" operator="arithmetic" k2="-1" k3="1"/>
<feColorMatrix type="matrix" values="0 0 0 0 1 0 0 0 0 0.807843 0 0 0 0 0.423529 0 0 0 0.05 0"/>
<feBlend mode="normal" in2="shape" result="effect1_innerShadow_1501_79598"/>
</filter>
<filter id="filter5_i_1501_79598" x="328.99" y="664.036" width="47.2773" height="11.8555" filterUnits="userSpaceOnUse" color-interpolation-filters="sRGB">
<feFlood flood-opacity="0" result="BackgroundImageFix"/>
<feBlend mode="normal" in="SourceGraphic" in2="BackgroundImageFix" result="shape"/>
<feColorMatrix in="SourceAlpha" type="matrix" values="0 0 0 0 0 0 0 0 0 0 0 0 0 0 0 0 0 0 127 0" result="hardAlpha"/>
<feOffset/>
<feGaussianBlur stdDeviation="4"/>
<feComposite in2="hardAlpha" operator="arithmetic" k2="-1" k3="1"/>
<feColorMatrix type="matrix" values="0 0 0 0 1 0 0 0 0 0.807843 0 0 0 0 0.423529 0 0 0 0.05 0"/>
<feBlend mode="normal" in2="shape" result="effect1_innerShadow_1501_79598"/>
</filter>
<filter id="filter6_i_1501_79598" x="410.992" y="519.802" width="47.2773" height="11.8553" filterUnits="userSpaceOnUse" color-interpolation-filters="sRGB">
<feFlood flood-opacity="0" result="BackgroundImageFix"/>
<feBlend mode="normal" in="SourceGraphic" in2="BackgroundImageFix" result="shape"/>
<feColorMatrix in="SourceAlpha" type="matrix" values="0 0 0 0 0 0 0 0 0 0 0 0 0 0 0 0 0 0 127 0" result="hardAlpha"/>
<feOffset/>
<feGaussianBlur stdDeviation="4"/>
<feComposite in2="hardAlpha" operator="arithmetic" k2="-1" k3="1"/>
<feColorMatrix type="matrix" values="0 0 0 0 1 0 0 0 0 0.807843 0 0 0 0 0.423529 0 0 0 0.05 0"/>
<feBlend mode="normal" in2="shape" result="effect1_innerShadow_1501_79598"/>
</filter>
<filter id="filter7_i_1501_79598" x="410.992" y="664.036" width="47.2773" height="11.8555" filterUnits="userSpaceOnUse" color-interpolation-filters="sRGB">
<feFlood flood-opacity="0" result="BackgroundImageFix"/>
<feBlend mode="normal" in="SourceGraphic" in2="BackgroundImageFix" result="shape"/>
<feColorMatrix in="SourceAlpha" type="matrix" values="0 0 0 0 0 0 0 0 0 0 0 0 0 0 0 0 0 0 127 0" result="hardAlpha"/>
<feOffset/>
<feGaussianBlur stdDeviation="4"/>
<feComposite in2="hardAlpha" operator="arithmetic" k2="-1" k3="1"/>
<feColorMatrix type="matrix" values="0 0 0 0 1 0 0 0 0 0.807843 0 0 0 0 0.423529 0 0 0 0.05 0"/>
<feBlend mode="normal" in2="shape" result="effect1_innerShadow_1501_79598"/>
</filter>
<filter id="filter8_i_1501_79598" x="164.984" y="519.802" width="47.2773" height="11.8553" filterUnits="userSpaceOnUse" color-interpolation-filters="sRGB">
<feFlood flood-opacity="0" result="BackgroundImageFix"/>
<feBlend mode="normal" in="SourceGraphic" in2="BackgroundImageFix" result="shape"/>
<feColorMatrix in="SourceAlpha" type="matrix" values="0 0 0 0 0 0 0 0 0 0 0 0 0 0 0 0 0 0 127 0" result="hardAlpha"/>
<feOffset/>
<feGaussianBlur stdDeviation="4"/>
<feComposite in2="hardAlpha" operator="arithmetic" k2="-1" k3="1"/>
<feColorMatrix type="matrix" values="0 0 0 0 1 0 0 0 0 0.807843 0 0 0 0 0.423529 0 0 0 0.05 0"/>
<feBlend mode="normal" in2="shape" result="effect1_innerShadow_1501_79598"/>
</filter>
<filter id="filter9_i_1501_79598" x="164.984" y="664.036" width="47.2773" height="11.8555" filterUnits="userSpaceOnUse" color-interpolation-filters="sRGB">
<feFlood flood-opacity="0" result="BackgroundImageFix"/>
<feBlend mode="normal" in="SourceGraphic" in2="BackgroundImageFix" result="shape"/>
<feColorMatrix in="SourceAlpha" type="matrix" values="0 0 0 0 0 0 0 0 0 0 0 0 0 0 0 0 0 0 127 0" result="hardAlpha"/>
<feOffset/>
<feGaussianBlur stdDeviation="4"/>
<feComposite in2="hardAlpha" operator="arithmetic" k2="-1" k3="1"/>
<feColorMatrix type="matrix" values="0 0 0 0 1 0 0 0 0 0.807843 0 0 0 0 0.423529 0 0 0 0.05 0"/>
<feBlend mode="normal" in2="shape" result="effect1_innerShadow_1501_79598"/>
</filter>
<filter id="filter10_i_1501_79598" x="246.988" y="519.802" width="47.2773" height="11.8553" filterUnits="userSpaceOnUse" color-interpolation-filters="sRGB">
<feFlood flood-opacity="0" result="BackgroundImageFix"/>
<feBlend mode="normal" in="SourceGraphic" in2="BackgroundImageFix" result="shape"/>
<feColorMatrix in="SourceAlpha" type="matrix" values="0 0 0 0 0 0 0 0 0 0 0 0 0 0 0 0 0 0 127 0" result="hardAlpha"/>
<feOffset/>
<feGaussianBlur stdDeviation="4"/>
<feComposite in2="hardAlpha" operator="arithmetic" k2="-1" k3="1"/>
<feColorMatrix type="matrix" values="0 0 0 0 1 0 0 0 0 0.807843 0 0 0 0 0.423529 0 0 0 0.05 0"/>
<feBlend mode="normal" in2="shape" result="effect1_innerShadow_1501_79598"/>
</filter>
<filter id="filter11_i_1501_79598" x="246.988" y="664.036" width="47.2773" height="11.8555" filterUnits="userSpaceOnUse" color-interpolation-filters="sRGB">
<feFlood flood-opacity="0" result="BackgroundImageFix"/>
<feBlend mode="normal" in="SourceGraphic" in2="BackgroundImageFix" result="shape"/>
<feColorMatrix in="SourceAlpha" type="matrix" values="0 0 0 0 0 0 0 0 0 0 0 0 0 0 0 0 0 0 127 0" result="hardAlpha"/>
<feOffset/>
<feGaussianBlur stdDeviation="4"/>
<feComposite in2="hardAlpha" operator="arithmetic" k2="-1" k3="1"/>
<feColorMatrix type="matrix" values="0 0 0 0 1 0 0 0 0 0.807843 0 0 0 0 0.423529 0 0 0 0.05 0"/>
<feBlend mode="normal" in2="shape" result="effect1_innerShadow_1501_79598"/>
</filter>
<filter id="filter12_i_1501_79598" x="82.9824" y="555.86" width="47.2773" height="11.8553" filterUnits="userSpaceOnUse" color-interpolation-filters="sRGB">
<feFlood flood-opacity="0" result="BackgroundImageFix"/>
<feBlend mode="normal" in="SourceGraphic" in2="BackgroundImageFix" result="shape"/>
<feColorMatrix in="SourceAlpha" type="matrix" values="0 0 0 0 0 0 0 0 0 0 0 0 0 0 0 0 0 0 127 0" result="hardAlpha"/>
<feOffset/>
<feGaussianBlur stdDeviation="4"/>
<feComposite in2="hardAlpha" operator="arithmetic" k2="-1" k3="1"/>
<feColorMatrix type="matrix" values="0 0 0 0 1 0 0 0 0 0.807843 0 0 0 0 0.423529 0 0 0 0.05 0"/>
<feBlend mode="normal" in2="shape" result="effect1_innerShadow_1501_79598"/>
</filter>
<filter id="filter13_i_1501_79598" x="82.9824" y="700.095" width="47.2773" height="11.8553" filterUnits="userSpaceOnUse" color-interpolation-filters="sRGB">
<feFlood flood-opacity="0" result="BackgroundImageFix"/>
<feBlend mode="normal" in="SourceGraphic" in2="BackgroundImageFix" result="shape"/>
<feColorMatrix in="SourceAlpha" type="matrix" values="0 0 0 0 0 0 0 0 0 0 0 0 0 0 0 0 0 0 127 0" result="hardAlpha"/>
<feOffset/>
<feGaussianBlur stdDeviation="4"/>
<feComposite in2="hardAlpha" operator="arithmetic" k2="-1" k3="1"/>
<feColorMatrix type="matrix" values="0 0 0 0 1 0 0 0 0 0.807843 0 0 0 0 0.423529 0 0 0 0.05 0"/>
<feBlend mode="normal" in2="shape" result="effect1_innerShadow_1501_79598"/>
</filter>
<filter id="filter14_i_1501_79598" x="328.99" y="555.86" width="47.2773" height="11.8553" filterUnits="userSpaceOnUse" color-interpolation-filters="sRGB">
<feFlood flood-opacity="0" result="BackgroundImageFix"/>
<feBlend mode="normal" in="SourceGraphic" in2="BackgroundImageFix" result="shape"/>
<feColorMatrix in="SourceAlpha" type="matrix" values="0 0 0 0 0 0 0 0 0 0 0 0 0 0 0 0 0 0 127 0" result="hardAlpha"/>
<feOffset/>
<feGaussianBlur stdDeviation="4"/>
<feComposite in2="hardAlpha" operator="arithmetic" k2="-1" k3="1"/>
<feColorMatrix type="matrix" values="0 0 0 0 1 0 0 0 0 0.807843 0 0 0 0 0.423529 0 0 0 0.05 0"/>
<feBlend mode="normal" in2="shape" result="effect1_innerShadow_1501_79598"/>
</filter>
<filter id="filter15_i_1501_79598" x="328.99" y="700.095" width="47.2773" height="11.8553" filterUnits="userSpaceOnUse" color-interpolation-filters="sRGB">
<feFlood flood-opacity="0" result="BackgroundImageFix"/>
<feBlend mode="normal" in="SourceGraphic" in2="BackgroundImageFix" result="shape"/>
<feColorMatrix in="SourceAlpha" type="matrix" values="0 0 0 0 0 0 0 0 0 0 0 0 0 0 0 0 0 0 127 0" result="hardAlpha"/>
<feOffset/>
<feGaussianBlur stdDeviation="4"/>
<feComposite in2="hardAlpha" operator="arithmetic" k2="-1" k3="1"/>
<feColorMatrix type="matrix" values="0 0 0 0 1 0 0 0 0 0.807843 0 0 0 0 0.423529 0 0 0 0.05 0"/>
<feBlend mode="normal" in2="shape" result="effect1_innerShadow_1501_79598"/>
</filter>
<filter id="filter16_i_1501_79598" x="410.992" y="555.86" width="47.2773" height="11.8553" filterUnits="userSpaceOnUse" color-interpolation-filters="sRGB">
<feFlood flood-opacity="0" result="BackgroundImageFix"/>
<feBlend mode="normal" in="SourceGraphic" in2="BackgroundImageFix" result="shape"/>
<feColorMatrix in="SourceAlpha" type="matrix" values="0 0 0 0 0 0 0 0 0 0 0 0 0 0 0 0 0 0 127 0" result="hardAlpha"/>
<feOffset/>
<feGaussianBlur stdDeviation="4"/>
<feComposite in2="hardAlpha" operator="arithmetic" k2="-1" k3="1"/>
<feColorMatrix type="matrix" values="0 0 0 0 1 0 0 0 0 0.807843 0 0 0 0 0.423529 0 0 0 0.05 0"/>
<feBlend mode="normal" in2="shape" result="effect1_innerShadow_1501_79598"/>
</filter>
<filter id="filter17_i_1501_79598" x="410.992" y="700.095" width="47.2773" height="11.8553" filterUnits="userSpaceOnUse" color-interpolation-filters="sRGB">
<feFlood flood-opacity="0" result="BackgroundImageFix"/>
<feBlend mode="normal" in="SourceGraphic" in2="BackgroundImageFix" result="shape"/>
<feColorMatrix in="SourceAlpha" type="matrix" values="0 0 0 0 0 0 0 0 0 0 0 0 0 0 0 0 0 0 127 0" result="hardAlpha"/>
<feOffset/>
<feGaussianBlur stdDeviation="4"/>
<feComposite in2="hardAlpha" operator="arithmetic" k2="-1" k3="1"/>
<feColorMatrix type="matrix" values="0 0 0 0 1 0 0 0 0 0.807843 0 0 0 0 0.423529 0 0 0 0.05 0"/>
<feBlend mode="normal" in2="shape" result="effect1_innerShadow_1501_79598"/>
</filter>
<filter id="filter18_i_1501_79598" x="164.984" y="555.86" width="47.2773" height="11.8553" filterUnits="userSpaceOnUse" color-interpolation-filters="sRGB">
<feFlood flood-opacity="0" result="BackgroundImageFix"/>
<feBlend mode="normal" in="SourceGraphic" in2="BackgroundImageFix" result="shape"/>
<feColorMatrix in="SourceAlpha" type="matrix" values="0 0 0 0 0 0 0 0 0 0 0 0 0 0 0 0 0 0 127 0" result="hardAlpha"/>
<feOffset/>
<feGaussianBlur stdDeviation="4"/>
<feComposite in2="hardAlpha" operator="arithmetic" k2="-1" k3="1"/>
<feColorMatrix type="matrix" values="0 0 0 0 1 0 0 0 0 0.807843 0 0 0 0 0.423529 0 0 0 0.05 0"/>
<feBlend mode="normal" in2="shape" result="effect1_innerShadow_1501_79598"/>
</filter>
<filter id="filter19_i_1501_79598" x="164.984" y="700.095" width="47.2773" height="11.8553" filterUnits="userSpaceOnUse" color-interpolation-filters="sRGB">
<feFlood flood-opacity="0" result="BackgroundImageFix"/>
<feBlend mode="normal" in="SourceGraphic" in2="BackgroundImageFix" result="shape"/>
<feColorMatrix in="SourceAlpha" type="matrix" values="0 0 0 0 0 0 0 0 0 0 0 0 0 0 0 0 0 0 127 0" result="hardAlpha"/>
<feOffset/>
<feGaussianBlur stdDeviation="4"/>
<feComposite in2="hardAlpha" operator="arithmetic" k2="-1" k3="1"/>
<feColorMatrix type="matrix" values="0 0 0 0 1 0 0 0 0 0.807843 0 0 0 0 0.423529 0 0 0 0.05 0"/>
<feBlend mode="normal" in2="shape" result="effect1_innerShadow_1501_79598"/>
</filter>
<filter id="filter20_i_1501_79598" x="246.988" y="555.86" width="47.2773" height="11.8553" filterUnits="userSpaceOnUse" color-interpolation-filters="sRGB">
<feFlood flood-opacity="0" result="BackgroundImageFix"/>
<feBlend mode="normal" in="SourceGraphic" in2="BackgroundImageFix" result="shape"/>
<feColorMatrix in="SourceAlpha" type="matrix" values="0 0 0 0 0 0 0 0 0 0 0 0 0 0 0 0 0 0 127 0" result="hardAlpha"/>
<feOffset/>
<feGaussianBlur stdDeviation="4"/>
<feComposite in2="hardAlpha" operator="arithmetic" k2="-1" k3="1"/>
<feColorMatrix type="matrix" values="0 0 0 0 1 0 0 0 0 0.807843 0 0 0 0 0.423529 0 0 0 0.05 0"/>
<feBlend mode="normal" in2="shape" result="effect1_innerShadow_1501_79598"/>
</filter>
<filter id="filter21_i_1501_79598" x="246.988" y="700.095" width="47.2773" height="11.8553" filterUnits="userSpaceOnUse" color-interpolation-filters="sRGB">
<feFlood flood-opacity="0" result="BackgroundImageFix"/>
<feBlend mode="normal" in="SourceGraphic" in2="BackgroundImageFix" result="shape"/>
<feColorMatrix in="SourceAlpha" type="matrix" values="0 0 0 0 0 0 0 0 0 0 0 0 0 0 0 0 0 0 127 0" result="hardAlpha"/>
<feOffset/>
<feGaussianBlur stdDeviation="4"/>
<feComposite in2="hardAlpha" operator="arithmetic" k2="-1" k3="1"/>
<feColorMatrix type="matrix" values="0 0 0 0 1 0 0 0 0 0.807843 0 0 0 0 0.423529 0 0 0 0.05 0"/>
<feBlend mode="normal" in2="shape" result="effect1_innerShadow_1501_79598"/>
</filter>
<filter id="filter22_i_1501_79598" x="82.9824" y="591.919" width="47.2773" height="11.8553" filterUnits="userSpaceOnUse" color-interpolation-filters="sRGB">
<feFlood flood-opacity="0" result="BackgroundImageFix"/>
<feBlend mode="normal" in="SourceGraphic" in2="BackgroundImageFix" result="shape"/>
<feColorMatrix in="SourceAlpha" type="matrix" values="0 0 0 0 0 0 0 0 0 0 0 0 0 0 0 0 0 0 127 0" result="hardAlpha"/>
<feOffset/>
<feGaussianBlur stdDeviation="4"/>
<feComposite in2="hardAlpha" operator="arithmetic" k2="-1" k3="1"/>
<feColorMatrix type="matrix" values="0 0 0 0 1 0 0 0 0 0.807843 0 0 0 0 0.423529 0 0 0 0.05 0"/>
<feBlend mode="normal" in2="shape" result="effect1_innerShadow_1501_79598"/>
</filter>
<filter id="filter23_i_1501_79598" x="328.99" y="591.919" width="47.2773" height="11.8553" filterUnits="userSpaceOnUse" color-interpolation-filters="sRGB">
<feFlood flood-opacity="0" result="BackgroundImageFix"/>
<feBlend mode="normal" in="SourceGraphic" in2="BackgroundImageFix" result="shape"/>
<feColorMatrix in="SourceAlpha" type="matrix" values="0 0 0 0 0 0 0 0 0 0 0 0 0 0 0 0 0 0 127 0" result="hardAlpha"/>
<feOffset/>
<feGaussianBlur stdDeviation="4"/>
<feComposite in2="hardAlpha" operator="arithmetic" k2="-1" k3="1"/>
<feColorMatrix type="matrix" values="0 0 0 0 1 0 0 0 0 0.807843 0 0 0 0 0.423529 0 0 0 0.05 0"/>
<feBlend mode="normal" in2="shape" result="effect1_innerShadow_1501_79598"/>
</filter>
<filter id="filter24_i_1501_79598" x="410.992" y="591.919" width="47.2773" height="11.8553" filterUnits="userSpaceOnUse" color-interpolation-filters="sRGB">
<feFlood flood-opacity="0" result="BackgroundImageFix"/>
<feBlend mode="normal" in="SourceGraphic" in2="BackgroundImageFix" result="shape"/>
<feColorMatrix in="SourceAlpha" type="matrix" values="0 0 0 0 0 0 0 0 0 0 0 0 0 0 0 0 0 0 127 0" result="hardAlpha"/>
<feOffset/>
<feGaussianBlur stdDeviation="4"/>
<feComposite in2="hardAlpha" operator="arithmetic" k2="-1" k3="1"/>
<feColorMatrix type="matrix" values="0 0 0 0 1 0 0 0 0 0.807843 0 0 0 0 0.423529 0 0 0 0.05 0"/>
<feBlend mode="normal" in2="shape" result="effect1_innerShadow_1501_79598"/>
</filter>
<filter id="filter25_i_1501_79598" x="164.984" y="591.919" width="47.2773" height="11.8553" filterUnits="userSpaceOnUse" color-interpolation-filters="sRGB">
<feFlood flood-opacity="0" result="BackgroundImageFix"/>
<feBlend mode="normal" in="SourceGraphic" in2="BackgroundImageFix" result="shape"/>
<feColorMatrix in="SourceAlpha" type="matrix" values="0 0 0 0 0 0 0 0 0 0 0 0 0 0 0 0 0 0 127 0" result="hardAlpha"/>
<feOffset/>
<feGaussianBlur stdDeviation="4"/>
<feComposite in2="hardAlpha" operator="arithmetic" k2="-1" k3="1"/>
<feColorMatrix type="matrix" values="0 0 0 0 1 0 0 0 0 0.807843 0 0 0 0 0.423529 0 0 0 0.05 0"/>
<feBlend mode="normal" in2="shape" result="effect1_innerShadow_1501_79598"/>
</filter>
<filter id="filter26_i_1501_79598" x="246.988" y="591.919" width="47.2773" height="11.8553" filterUnits="userSpaceOnUse" color-interpolation-filters="sRGB">
<feFlood flood-opacity="0" result="BackgroundImageFix"/>
<feBlend mode="normal" in="SourceGraphic" in2="BackgroundImageFix" result="shape"/>
<feColorMatrix in="SourceAlpha" type="matrix" values="0 0 0 0 0 0 0 0 0 0 0 0 0 0 0 0 0 0 127 0" result="hardAlpha"/>
<feOffset/>
<feGaussianBlur stdDeviation="4"/>
<feComposite in2="hardAlpha" operator="arithmetic" k2="-1" k3="1"/>
<feColorMatrix type="matrix" values="0 0 0 0 1 0 0 0 0 0.807843 0 0 0 0 0.423529 0 0 0 0.05 0"/>
<feBlend mode="normal" in2="shape" result="effect1_innerShadow_1501_79598"/>
</filter>
<filter id="filter27_i_1501_79598" x="82.9824" y="627.978" width="47.2773" height="11.8554" filterUnits="userSpaceOnUse" color-interpolation-filters="sRGB">
<feFlood flood-opacity="0" result="BackgroundImageFix"/>
<feBlend mode="normal" in="SourceGraphic" in2="BackgroundImageFix" result="shape"/>
<feColorMatrix in="SourceAlpha" type="matrix" values="0 0 0 0 0 0 0 0 0 0 0 0 0 0 0 0 0 0 127 0" result="hardAlpha"/>
<feOffset/>
<feGaussianBlur stdDeviation="4"/>
<feComposite in2="hardAlpha" operator="arithmetic" k2="-1" k3="1"/>
<feColorMatrix type="matrix" values="0 0 0 0 1 0 0 0 0 0.807843 0 0 0 0 0.423529 0 0 0 0.05 0"/>
<feBlend mode="normal" in2="shape" result="effect1_innerShadow_1501_79598"/>
</filter>
<filter id="filter28_i_1501_79598" x="0.980469" y="519.802" width="47.2773" height="11.8553" filterUnits="userSpaceOnUse" color-interpolation-filters="sRGB">
<feFlood flood-opacity="0" result="BackgroundImageFix"/>
<feBlend mode="normal" in="SourceGraphic" in2="BackgroundImageFix" result="shape"/>
<feColorMatrix in="SourceAlpha" type="matrix" values="0 0 0 0 0 0 0 0 0 0 0 0 0 0 0 0 0 0 127 0" result="hardAlpha"/>
<feOffset/>
<feGaussianBlur stdDeviation="4"/>
<feComposite in2="hardAlpha" operator="arithmetic" k2="-1" k3="1"/>
<feColorMatrix type="matrix" values="0 0 0 0 1 0 0 0 0 0.807843 0 0 0 0 0.423529 0 0 0 0.05 0"/>
<feBlend mode="normal" in2="shape" result="effect1_innerShadow_1501_79598"/>
</filter>
<filter id="filter29_i_1501_79598" x="0.980469" y="664.036" width="47.2773" height="11.8555" filterUnits="userSpaceOnUse" color-interpolation-filters="sRGB">
<feFlood flood-opacity="0" result="BackgroundImageFix"/>
<feBlend mode="normal" in="SourceGraphic" in2="BackgroundImageFix" result="shape"/>
<feColorMatrix in="SourceAlpha" type="matrix" values="0 0 0 0 0 0 0 0 0 0 0 0 0 0 0 0 0 0 127 0" result="hardAlpha"/>
<feOffset/>
<feGaussianBlur stdDeviation="4"/>
<feComposite in2="hardAlpha" operator="arithmetic" k2="-1" k3="1"/>
<feColorMatrix type="matrix" values="0 0 0 0 1 0 0 0 0 0.807843 0 0 0 0 0.423529 0 0 0 0.05 0"/>
<feBlend mode="normal" in2="shape" result="effect1_innerShadow_1501_79598"/>
</filter>
<filter id="filter30_i_1501_79598" x="0.980469" y="555.86" width="47.2773" height="11.8553" filterUnits="userSpaceOnUse" color-interpolation-filters="sRGB">
<feFlood flood-opacity="0" result="BackgroundImageFix"/>
<feBlend mode="normal" in="SourceGraphic" in2="BackgroundImageFix" result="shape"/>
<feColorMatrix in="SourceAlpha" type="matrix" values="0 0 0 0 0 0 0 0 0 0 0 0 0 0 0 0 0 0 127 0" result="hardAlpha"/>
<feOffset/>
<feGaussianBlur stdDeviation="4"/>
<feComposite in2="hardAlpha" operator="arithmetic" k2="-1" k3="1"/>
<feColorMatrix type="matrix" values="0 0 0 0 1 0 0 0 0 0.807843 0 0 0 0 0.423529 0 0 0 0.05 0"/>
<feBlend mode="normal" in2="shape" result="effect1_innerShadow_1501_79598"/>
</filter>
<filter id="filter31_i_1501_79598" x="0.980469" y="700.095" width="47.2773" height="11.8553" filterUnits="userSpaceOnUse" color-interpolation-filters="sRGB">
<feFlood flood-opacity="0" result="BackgroundImageFix"/>
<feBlend mode="normal" in="SourceGraphic" in2="BackgroundImageFix" result="shape"/>
<feColorMatrix in="SourceAlpha" type="matrix" values="0 0 0 0 0 0 0 0 0 0 0 0 0 0 0 0 0 0 127 0" result="hardAlpha"/>
<feOffset/>
<feGaussianBlur stdDeviation="4"/>
<feComposite in2="hardAlpha" operator="arithmetic" k2="-1" k3="1"/>
<feColorMatrix type="matrix" values="0 0 0 0 1 0 0 0 0 0.807843 0 0 0 0 0.423529 0 0 0 0.05 0"/>
<feBlend mode="normal" in2="shape" result="effect1_innerShadow_1501_79598"/>
</filter>
<filter id="filter32_i_1501_79598" x="0.980469" y="591.919" width="47.2773" height="11.8553" filterUnits="userSpaceOnUse" color-interpolation-filters="sRGB">
<feFlood flood-opacity="0" result="BackgroundImageFix"/>
<feBlend mode="normal" in="SourceGraphic" in2="BackgroundImageFix" result="shape"/>
<feColorMatrix in="SourceAlpha" type="matrix" values="0 0 0 0 0 0 0 0 0 0 0 0 0 0 0 0 0 0 127 0" result="hardAlpha"/>
<feOffset/>
<feGaussianBlur stdDeviation="4"/>
<feComposite in2="hardAlpha" operator="arithmetic" k2="-1" k3="1"/>
<feColorMatrix type="matrix" values="0 0 0 0 1 0 0 0 0 0.807843 0 0 0 0 0.423529 0 0 0 0.05 0"/>
<feBlend mode="normal" in2="shape" result="effect1_innerShadow_1501_79598"/>
</filter>
<filter id="filter33_i_1501_79598" x="0.980469" y="627.978" width="47.2773" height="11.8554" filterUnits="userSpaceOnUse" color-interpolation-filters="sRGB">
<feFlood flood-opacity="0" result="BackgroundImageFix"/>
<feBlend mode="normal" in="SourceGraphic" in2="BackgroundImageFix" result="shape"/>
<feColorMatrix in="SourceAlpha" type="matrix" values="0 0 0 0 0 0 0 0 0 0 0 0 0 0 0 0 0 0 127 0" result="hardAlpha"/>
<feOffset/>
<feGaussianBlur stdDeviation="4"/>
<feComposite in2="hardAlpha" operator="arithmetic" k2="-1" k3="1"/>
<feColorMatrix type="matrix" values="0 0 0 0 1 0 0 0 0 0.807843 0 0 0 0 0.423529 0 0 0 0.05 0"/>
<feBlend mode="normal" in2="shape" result="effect1_innerShadow_1501_79598"/>
</filter>
<filter id="filter34_i_1501_79598" x="328.99" y="627.978" width="47.2773" height="11.8554" filterUnits="userSpaceOnUse" color-interpolation-filters="sRGB">
<feFlood flood-opacity="0" result="BackgroundImageFix"/>
<feBlend mode="normal" in="SourceGraphic" in2="BackgroundImageFix" result="shape"/>
<feColorMatrix in="SourceAlpha" type="matrix" values="0 0 0 0 0 0 0 0 0 0 0 0 0 0 0 0 0 0 127 0" result="hardAlpha"/>
<feOffset/>
<feGaussianBlur stdDeviation="4"/>
<feComposite in2="hardAlpha" operator="arithmetic" k2="-1" k3="1"/>
<feColorMatrix type="matrix" values="0 0 0 0 1 0 0 0 0 0.807843 0 0 0 0 0.423529 0 0 0 0.05 0"/>
<feBlend mode="normal" in2="shape" result="effect1_innerShadow_1501_79598"/>
</filter>
<filter id="filter35_i_1501_79598" x="410.992" y="627.978" width="47.2773" height="11.8554" filterUnits="userSpaceOnUse" color-interpolation-filters="sRGB">
<feFlood flood-opacity="0" result="BackgroundImageFix"/>
<feBlend mode="normal" in="SourceGraphic" in2="BackgroundImageFix" result="shape"/>
<feColorMatrix in="SourceAlpha" type="matrix" values="0 0 0 0 0 0 0 0 0 0 0 0 0 0 0 0 0 0 127 0" result="hardAlpha"/>
<feOffset/>
<feGaussianBlur stdDeviation="4"/>
<feComposite in2="hardAlpha" operator="arithmetic" k2="-1" k3="1"/>
<feColorMatrix type="matrix" values="0 0 0 0 1 0 0 0 0 0.807843 0 0 0 0 0.423529 0 0 0 0.05 0"/>
<feBlend mode="normal" in2="shape" result="effect1_innerShadow_1501_79598"/>
</filter>
<filter id="filter36_i_1501_79598" x="164.984" y="627.978" width="47.2773" height="11.8554" filterUnits="userSpaceOnUse" color-interpolation-filters="sRGB">
<feFlood flood-opacity="0" result="BackgroundImageFix"/>
<feBlend mode="normal" in="SourceGraphic" in2="BackgroundImageFix" result="shape"/>
<feColorMatrix in="SourceAlpha" type="matrix" values="0 0 0 0 0 0 0 0 0 0 0 0 0 0 0 0 0 0 127 0" result="hardAlpha"/>
<feOffset/>
<feGaussianBlur stdDeviation="4"/>
<feComposite in2="hardAlpha" operator="arithmetic" k2="-1" k3="1"/>
<feColorMatrix type="matrix" values="0 0 0 0 1 0 0 0 0 0.807843 0 0 0 0 0.423529 0 0 0 0.05 0"/>
<feBlend mode="normal" in2="shape" result="effect1_innerShadow_1501_79598"/>
</filter>
<filter id="filter37_i_1501_79598" x="246.988" y="627.978" width="47.2773" height="11.8554" filterUnits="userSpaceOnUse" color-interpolation-filters="sRGB">
<feFlood flood-opacity="0" result="BackgroundImageFix"/>
<feBlend mode="normal" in="SourceGraphic" in2="BackgroundImageFix" result="shape"/>
<feColorMatrix in="SourceAlpha" type="matrix" values="0 0 0 0 0 0 0 0 0 0 0 0 0 0 0 0 0 0 127 0" result="hardAlpha"/>
<feOffset/>
<feGaussianBlur stdDeviation="4"/>
<feComposite in2="hardAlpha" operator="arithmetic" k2="-1" k3="1"/>
<feColorMatrix type="matrix" values="0 0 0 0 1 0 0 0 0 0.807843 0 0 0 0 0.423529 0 0 0 0.05 0"/>
<feBlend mode="normal" in2="shape" result="effect1_innerShadow_1501_79598"/>
</filter>
</defs>
</svg>
