<svg width="1440" height="676" viewBox="0 0 1440 676" fill="none" xmlns="http://www.w3.org/2000/svg">
<g clip-path="url(#clip0_1404_74189)" filter="url(#filter0_d_1404_74189)">
<rect width="1440" height="375" fill="url(#paint0_linear_1404_74189)"/>
<g opacity="0.4" filter="url(#filter1_f_1404_74189)">
<circle cx="1405" cy="438" r="170" fill="#5650DE"/>
</g>
<g opacity="0.4" filter="url(#filter2_f_1404_74189)">
<circle cx="617.5" cy="31.5" r="148.5" fill="#5650DE"/>
</g>
<g opacity="0.3" filter="url(#filter3_f_1404_74189)">
<circle cx="1006.5" cy="415.5" r="310.5" fill="#FFCF1B"/>
</g>
<g opacity="0.3" filter="url(#filter4_f_1404_74189)">
<circle cx="162" cy="377" r="190" fill="#FFCF1B"/>
</g>
<g filter="url(#filter5_i_1404_74189)">
<g filter="url(#filter6_i_1404_74189)">
<path d="M1170.48 365.519C1156.85 357.099 1146.04 364.814 1147.74 368.98C1159.02 363.02 1161.96 375.016 1175.27 375.477C1187.19 375.042 1191.42 368.044 1191.12 361.854C1190.87 357.022 1185.32 374.683 1170.48 365.519Z" fill="white" fill-opacity="0.4"/>
</g>
<g filter="url(#filter7_i_1404_74189)">
<path d="M1170.48 541.652C1156.85 533.232 1146.04 540.947 1147.74 545.112C1159.02 539.153 1161.96 551.149 1175.27 551.61C1187.19 551.174 1191.42 544.177 1191.12 537.987C1190.87 533.155 1185.32 550.816 1170.48 541.652Z" fill="white" fill-opacity="0.4"/>
</g>
<g filter="url(#filter8_i_1404_74189)">
<path d="M1397.18 365.519C1383.56 357.099 1372.74 364.814 1374.45 368.98C1385.73 363.02 1388.66 375.016 1401.98 375.477C1413.89 375.042 1418.12 368.044 1417.82 361.854C1417.57 357.022 1412.03 374.683 1397.18 365.519Z" fill="white" fill-opacity="0.4"/>
</g>
<g filter="url(#filter9_i_1404_74189)">
<path d="M1397.18 541.652C1383.56 533.232 1372.74 540.947 1374.45 545.112C1385.73 539.153 1388.66 551.149 1401.98 551.61C1413.89 551.174 1418.12 544.177 1417.82 537.987C1417.57 533.155 1412.03 550.816 1397.18 541.652Z" fill="white" fill-opacity="0.4"/>
</g>
<g filter="url(#filter10_i_1404_74189)">
<path d="M1246.05 365.519C1232.42 357.099 1221.61 364.814 1223.31 368.98C1234.59 363.02 1237.53 375.016 1250.84 375.477C1262.76 375.042 1266.99 368.044 1266.69 361.854C1266.44 357.022 1260.89 374.683 1246.05 365.519Z" fill="white" fill-opacity="0.4"/>
</g>
<g filter="url(#filter11_i_1404_74189)">
<path d="M1246.05 541.652C1232.42 533.232 1221.61 540.947 1223.31 545.112C1234.59 539.153 1237.53 551.149 1250.84 551.61C1262.76 551.174 1266.99 544.177 1266.69 537.987C1266.44 533.155 1260.89 550.816 1246.05 541.652Z" fill="white" fill-opacity="0.4"/>
</g>
<g filter="url(#filter12_i_1404_74189)">
<path d="M1321.62 365.519C1307.99 357.099 1297.17 364.814 1298.88 368.98C1310.16 363.02 1313.1 375.016 1326.41 375.477C1338.33 375.042 1342.56 368.044 1342.26 361.854C1342 357.022 1336.46 374.683 1321.62 365.519Z" fill="white" fill-opacity="0.4"/>
</g>
<g filter="url(#filter13_i_1404_74189)">
<path d="M1321.62 541.652C1307.99 533.232 1297.17 540.947 1298.88 545.112C1310.16 539.153 1313.1 551.149 1326.41 551.61C1338.33 551.174 1342.56 544.177 1342.26 537.987C1342 533.155 1336.46 550.816 1321.62 541.652Z" fill="white" fill-opacity="0.4"/>
</g>
<g filter="url(#filter14_i_1404_74189)">
<path d="M1170.48 409.555C1156.85 401.135 1146.04 408.85 1147.74 413.016C1159.02 407.056 1161.96 419.052 1175.27 419.513C1187.19 419.077 1191.42 412.08 1191.12 405.89C1190.87 401.058 1185.32 418.719 1170.48 409.555Z" fill="white" fill-opacity="0.4"/>
</g>
<g filter="url(#filter15_i_1404_74189)">
<path d="M1170.48 585.688C1156.85 577.268 1146.04 584.983 1147.74 589.148C1159.02 583.189 1161.96 595.185 1175.27 595.646C1187.19 595.21 1191.42 588.213 1191.12 582.023C1190.87 577.191 1185.32 594.852 1170.48 585.688Z" fill="white" fill-opacity="0.4"/>
</g>
<g filter="url(#filter16_i_1404_74189)">
<path d="M1397.18 409.555C1383.56 401.135 1372.74 408.85 1374.45 413.016C1385.73 407.056 1388.66 419.052 1401.98 419.513C1413.89 419.077 1418.12 412.08 1417.82 405.89C1417.57 401.058 1412.03 418.719 1397.18 409.555Z" fill="white" fill-opacity="0.4"/>
</g>
<g filter="url(#filter17_i_1404_74189)">
<path d="M1397.18 585.688C1383.56 577.268 1372.74 584.983 1374.45 589.148C1385.73 583.189 1388.66 595.185 1401.98 595.646C1413.89 595.21 1418.12 588.213 1417.82 582.023C1417.57 577.191 1412.03 594.852 1397.18 585.688Z" fill="white" fill-opacity="0.4"/>
</g>
<g filter="url(#filter18_i_1404_74189)">
<path d="M1246.05 409.555C1232.42 401.135 1221.61 408.85 1223.31 413.016C1234.59 407.056 1237.53 419.052 1250.84 419.513C1262.76 419.077 1266.99 412.08 1266.69 405.89C1266.44 401.058 1260.89 418.719 1246.05 409.555Z" fill="white" fill-opacity="0.4"/>
</g>
<g filter="url(#filter19_i_1404_74189)">
<path d="M1246.05 585.688C1232.42 577.268 1221.61 584.983 1223.31 589.148C1234.59 583.189 1237.53 595.185 1250.84 595.646C1262.76 595.21 1266.99 588.213 1266.69 582.023C1266.44 577.191 1260.89 594.852 1246.05 585.688Z" fill="white" fill-opacity="0.4"/>
</g>
<g filter="url(#filter20_i_1404_74189)">
<path d="M1321.62 409.555C1307.99 401.135 1297.17 408.85 1298.88 413.016C1310.16 407.056 1313.1 419.052 1326.41 419.513C1338.33 419.077 1342.56 412.08 1342.26 405.89C1342 401.058 1336.46 418.719 1321.62 409.555Z" fill="white" fill-opacity="0.4"/>
</g>
<g filter="url(#filter21_i_1404_74189)">
<path d="M1321.62 585.688C1307.99 577.268 1297.17 584.983 1298.88 589.148C1310.16 583.189 1313.1 595.185 1326.41 595.646C1338.33 595.21 1342.56 588.213 1342.26 582.023C1342 577.191 1336.46 594.852 1321.62 585.688Z" fill="white" fill-opacity="0.4"/>
</g>
<g filter="url(#filter22_i_1404_74189)">
<path d="M1170.48 453.586C1156.85 445.166 1146.04 452.882 1147.74 457.047C1159.02 451.087 1161.96 463.083 1175.27 463.544C1187.19 463.109 1191.42 456.111 1191.12 449.921C1190.87 445.089 1185.32 462.75 1170.48 453.586Z" fill="white" fill-opacity="0.4"/>
</g>
<g filter="url(#filter23_i_1404_74189)">
<path d="M1397.18 453.586C1383.56 445.166 1372.74 452.882 1374.45 457.047C1385.73 451.087 1388.66 463.083 1401.98 463.544C1413.89 463.109 1418.12 456.111 1417.82 449.921C1417.57 445.089 1412.03 462.75 1397.18 453.586Z" fill="white" fill-opacity="0.4"/>
</g>
<g filter="url(#filter24_i_1404_74189)">
<path d="M1246.05 453.586C1232.42 445.166 1221.61 452.882 1223.31 457.047C1234.59 451.087 1237.53 463.083 1250.84 463.544C1262.76 463.109 1266.99 456.111 1266.69 449.921C1266.44 445.089 1260.89 462.75 1246.05 453.586Z" fill="white" fill-opacity="0.4"/>
</g>
<g filter="url(#filter25_i_1404_74189)">
<path d="M1321.62 453.586C1307.99 445.166 1297.17 452.882 1298.88 457.047C1310.16 451.087 1313.1 463.083 1326.41 463.544C1338.33 463.109 1342.56 456.111 1342.26 449.921C1342 445.089 1336.46 462.75 1321.62 453.586Z" fill="white" fill-opacity="0.4"/>
</g>
<g filter="url(#filter26_i_1404_74189)">
<path d="M1170.48 497.621C1156.85 489.201 1146.04 496.916 1147.74 501.081C1159.02 495.122 1161.96 507.118 1175.27 507.579C1187.19 507.143 1191.42 500.146 1191.12 493.955C1190.87 489.124 1185.32 506.784 1170.48 497.621Z" fill="white" fill-opacity="0.4"/>
</g>
<g filter="url(#filter27_i_1404_74189)">
<path d="M1094.91 365.519C1081.29 357.099 1070.47 364.814 1072.18 368.98C1083.46 363.02 1086.39 375.016 1099.71 375.477C1111.63 375.042 1115.85 368.044 1115.55 361.854C1115.3 357.022 1109.76 374.683 1094.91 365.519Z" fill="white" fill-opacity="0.4"/>
</g>
<g filter="url(#filter28_i_1404_74189)">
<path d="M1094.91 541.652C1081.29 533.232 1070.47 540.947 1072.18 545.112C1083.46 539.153 1086.39 551.149 1099.71 551.61C1111.63 551.174 1115.85 544.177 1115.55 537.987C1115.3 533.155 1109.76 550.816 1094.91 541.652Z" fill="white" fill-opacity="0.4"/>
</g>
<g filter="url(#filter29_i_1404_74189)">
<path d="M1094.91 409.555C1081.29 401.135 1070.47 408.85 1072.18 413.016C1083.46 407.056 1086.39 419.052 1099.71 419.513C1111.63 419.077 1115.85 412.08 1115.55 405.89C1115.3 401.058 1109.76 418.719 1094.91 409.555Z" fill="white" fill-opacity="0.4"/>
</g>
<g filter="url(#filter30_i_1404_74189)">
<path d="M1094.91 585.688C1081.29 577.268 1070.47 584.983 1072.18 589.148C1083.46 583.189 1086.39 595.185 1099.71 595.646C1111.63 595.21 1115.85 588.213 1115.55 582.023C1115.3 577.191 1109.76 594.852 1094.91 585.688Z" fill="white" fill-opacity="0.4"/>
</g>
<g filter="url(#filter31_i_1404_74189)">
<path d="M1094.91 453.586C1081.29 445.166 1070.47 452.882 1072.18 457.047C1083.46 451.087 1086.39 463.083 1099.71 463.544C1111.63 463.109 1115.85 456.111 1115.55 449.921C1115.3 445.089 1109.76 462.75 1094.91 453.586Z" fill="white" fill-opacity="0.4"/>
</g>
<g filter="url(#filter32_i_1404_74189)">
<path d="M1094.91 497.621C1081.29 489.201 1070.47 496.916 1072.18 501.081C1083.46 495.122 1086.39 507.118 1099.71 507.579C1111.63 507.143 1115.85 500.146 1115.55 493.955C1115.3 489.124 1109.76 506.784 1094.91 497.621Z" fill="white" fill-opacity="0.4"/>
</g>
<g filter="url(#filter33_i_1404_74189)">
<path d="M1397.18 497.621C1383.56 489.201 1372.74 496.916 1374.45 501.081C1385.73 495.122 1388.66 507.118 1401.98 507.579C1413.89 507.143 1418.12 500.146 1417.82 493.955C1417.57 489.124 1412.03 506.784 1397.18 497.621Z" fill="white" fill-opacity="0.4"/>
</g>
<g filter="url(#filter34_i_1404_74189)">
<path d="M1246.05 497.621C1232.42 489.201 1221.61 496.916 1223.31 501.081C1234.59 495.122 1237.53 507.118 1250.84 507.579C1262.76 507.143 1266.99 500.146 1266.69 493.955C1266.44 489.124 1260.89 506.784 1246.05 497.621Z" fill="white" fill-opacity="0.4"/>
</g>
<g filter="url(#filter35_i_1404_74189)">
<path d="M1321.62 497.621C1307.99 489.201 1297.17 496.916 1298.88 501.081C1310.16 495.122 1313.1 507.118 1326.41 507.579C1338.33 507.143 1342.56 500.146 1342.26 493.955C1342 489.124 1336.46 506.784 1321.62 497.621Z" fill="white" fill-opacity="0.4"/>
</g>
</g>
<g opacity="0.5" filter="url(#filter36_i_1404_74189)">
<path d="M317.439 24C155.643 24 24 156.564 24 319.509C24 482.436 155.643 615 317.439 615C479.858 615 612 482.436 612 319.509C612 156.564 479.858 24 317.439 24ZM317.439 519.135C212.385 519.135 123.637 427.72 123.637 319.509C123.637 211.297 212.385 119.883 317.439 119.883C424.31 119.883 511.241 209.431 511.241 319.509C511.241 429.569 424.31 519.135 317.439 519.135Z" fill="white"/>
</g>
</g>
<defs>
<filter id="filter0_d_1404_74189" x="-64" y="-64" width="1568" height="740" filterUnits="userSpaceOnUse" color-interpolation-filters="sRGB">
<feFlood flood-opacity="0" result="BackgroundImageFix"/>
<feColorMatrix in="SourceAlpha" type="matrix" values="0 0 0 0 0 0 0 0 0 0 0 0 0 0 0 0 0 0 127 0" result="hardAlpha"/>
<feOffset/>
<feGaussianBlur stdDeviation="32"/>
<feComposite in2="hardAlpha" operator="out"/>
<feColorMatrix type="matrix" values="0 0 0 0 0 0 0 0 0 0 0 0 0 0 0 0 0 0 0.12 0"/>
<feBlend mode="normal" in2="BackgroundImageFix" result="effect1_dropShadow_1404_74189"/>
<feBlend mode="normal" in="SourceGraphic" in2="effect1_dropShadow_1404_74189" result="shape"/>
</filter>
<filter id="filter1_f_1404_74189" x="835" y="-132" width="1140" height="1140" filterUnits="userSpaceOnUse" color-interpolation-filters="sRGB">
<feFlood flood-opacity="0" result="BackgroundImageFix"/>
<feBlend mode="normal" in="SourceGraphic" in2="BackgroundImageFix" result="shape"/>
<feGaussianBlur stdDeviation="200" result="effect1_foregroundBlur_1404_74189"/>
</filter>
<filter id="filter2_f_1404_74189" x="69" y="-517" width="1097" height="1097" filterUnits="userSpaceOnUse" color-interpolation-filters="sRGB">
<feFlood flood-opacity="0" result="BackgroundImageFix"/>
<feBlend mode="normal" in="SourceGraphic" in2="BackgroundImageFix" result="shape"/>
<feGaussianBlur stdDeviation="200" result="effect1_foregroundBlur_1404_74189"/>
</filter>
<filter id="filter3_f_1404_74189" x="296" y="-295" width="1421" height="1421" filterUnits="userSpaceOnUse" color-interpolation-filters="sRGB">
<feFlood flood-opacity="0" result="BackgroundImageFix"/>
<feBlend mode="normal" in="SourceGraphic" in2="BackgroundImageFix" result="shape"/>
<feGaussianBlur stdDeviation="200" result="effect1_foregroundBlur_1404_74189"/>
</filter>
<filter id="filter4_f_1404_74189" x="-428" y="-213" width="1180" height="1180" filterUnits="userSpaceOnUse" color-interpolation-filters="sRGB">
<feFlood flood-opacity="0" result="BackgroundImageFix"/>
<feBlend mode="normal" in="SourceGraphic" in2="BackgroundImageFix" result="shape"/>
<feGaussianBlur stdDeviation="200" result="effect1_foregroundBlur_1404_74189"/>
</filter>
<filter id="filter5_i_1404_74189" x="1072" y="361" width="421.402" height="238.646" filterUnits="userSpaceOnUse" color-interpolation-filters="sRGB">
<feFlood flood-opacity="0" result="BackgroundImageFix"/>
<feBlend mode="normal" in="SourceGraphic" in2="BackgroundImageFix" result="shape"/>
<feColorMatrix in="SourceAlpha" type="matrix" values="0 0 0 0 0 0 0 0 0 0 0 0 0 0 0 0 0 0 127 0" result="hardAlpha"/>
<feOffset dy="4"/>
<feGaussianBlur stdDeviation="2"/>
<feComposite in2="hardAlpha" operator="arithmetic" k2="-1" k3="1"/>
<feColorMatrix type="matrix" values="0 0 0 0 0 0 0 0 0 0 0 0 0 0 0 0 0 0 0.01 0"/>
<feBlend mode="normal" in2="shape" result="effect1_innerShadow_1404_74189"/>
</filter>
<filter id="filter6_i_1404_74189" x="1147.57" y="361" width="43.5664" height="14.4773" filterUnits="userSpaceOnUse" color-interpolation-filters="sRGB">
<feFlood flood-opacity="0" result="BackgroundImageFix"/>
<feBlend mode="normal" in="SourceGraphic" in2="BackgroundImageFix" result="shape"/>
<feColorMatrix in="SourceAlpha" type="matrix" values="0 0 0 0 0 0 0 0 0 0 0 0 0 0 0 0 0 0 127 0" result="hardAlpha"/>
<feOffset/>
<feGaussianBlur stdDeviation="4"/>
<feComposite in2="hardAlpha" operator="arithmetic" k2="-1" k3="1"/>
<feColorMatrix type="matrix" values="0 0 0 0 1 0 0 0 0 0.807843 0 0 0 0 0.423529 0 0 0 0.05 0"/>
<feBlend mode="normal" in2="shape" result="effect1_innerShadow_1404_74189"/>
</filter>
<filter id="filter7_i_1404_74189" x="1147.57" y="537.133" width="43.5664" height="14.4773" filterUnits="userSpaceOnUse" color-interpolation-filters="sRGB">
<feFlood flood-opacity="0" result="BackgroundImageFix"/>
<feBlend mode="normal" in="SourceGraphic" in2="BackgroundImageFix" result="shape"/>
<feColorMatrix in="SourceAlpha" type="matrix" values="0 0 0 0 0 0 0 0 0 0 0 0 0 0 0 0 0 0 127 0" result="hardAlpha"/>
<feOffset/>
<feGaussianBlur stdDeviation="4"/>
<feComposite in2="hardAlpha" operator="arithmetic" k2="-1" k3="1"/>
<feColorMatrix type="matrix" values="0 0 0 0 1 0 0 0 0 0.807843 0 0 0 0 0.423529 0 0 0 0.05 0"/>
<feBlend mode="normal" in2="shape" result="effect1_innerShadow_1404_74189"/>
</filter>
<filter id="filter8_i_1404_74189" x="1374.27" y="361" width="43.5664" height="14.4773" filterUnits="userSpaceOnUse" color-interpolation-filters="sRGB">
<feFlood flood-opacity="0" result="BackgroundImageFix"/>
<feBlend mode="normal" in="SourceGraphic" in2="BackgroundImageFix" result="shape"/>
<feColorMatrix in="SourceAlpha" type="matrix" values="0 0 0 0 0 0 0 0 0 0 0 0 0 0 0 0 0 0 127 0" result="hardAlpha"/>
<feOffset/>
<feGaussianBlur stdDeviation="4"/>
<feComposite in2="hardAlpha" operator="arithmetic" k2="-1" k3="1"/>
<feColorMatrix type="matrix" values="0 0 0 0 1 0 0 0 0 0.807843 0 0 0 0 0.423529 0 0 0 0.05 0"/>
<feBlend mode="normal" in2="shape" result="effect1_innerShadow_1404_74189"/>
</filter>
<filter id="filter9_i_1404_74189" x="1374.27" y="537.133" width="43.5664" height="14.4773" filterUnits="userSpaceOnUse" color-interpolation-filters="sRGB">
<feFlood flood-opacity="0" result="BackgroundImageFix"/>
<feBlend mode="normal" in="SourceGraphic" in2="BackgroundImageFix" result="shape"/>
<feColorMatrix in="SourceAlpha" type="matrix" values="0 0 0 0 0 0 0 0 0 0 0 0 0 0 0 0 0 0 127 0" result="hardAlpha"/>
<feOffset/>
<feGaussianBlur stdDeviation="4"/>
<feComposite in2="hardAlpha" operator="arithmetic" k2="-1" k3="1"/>
<feColorMatrix type="matrix" values="0 0 0 0 1 0 0 0 0 0.807843 0 0 0 0 0.423529 0 0 0 0.05 0"/>
<feBlend mode="normal" in2="shape" result="effect1_innerShadow_1404_74189"/>
</filter>
<filter id="filter10_i_1404_74189" x="1223.14" y="361" width="43.5664" height="14.4773" filterUnits="userSpaceOnUse" color-interpolation-filters="sRGB">
<feFlood flood-opacity="0" result="BackgroundImageFix"/>
<feBlend mode="normal" in="SourceGraphic" in2="BackgroundImageFix" result="shape"/>
<feColorMatrix in="SourceAlpha" type="matrix" values="0 0 0 0 0 0 0 0 0 0 0 0 0 0 0 0 0 0 127 0" result="hardAlpha"/>
<feOffset/>
<feGaussianBlur stdDeviation="4"/>
<feComposite in2="hardAlpha" operator="arithmetic" k2="-1" k3="1"/>
<feColorMatrix type="matrix" values="0 0 0 0 1 0 0 0 0 0.807843 0 0 0 0 0.423529 0 0 0 0.05 0"/>
<feBlend mode="normal" in2="shape" result="effect1_innerShadow_1404_74189"/>
</filter>
<filter id="filter11_i_1404_74189" x="1223.14" y="537.133" width="43.5664" height="14.4773" filterUnits="userSpaceOnUse" color-interpolation-filters="sRGB">
<feFlood flood-opacity="0" result="BackgroundImageFix"/>
<feBlend mode="normal" in="SourceGraphic" in2="BackgroundImageFix" result="shape"/>
<feColorMatrix in="SourceAlpha" type="matrix" values="0 0 0 0 0 0 0 0 0 0 0 0 0 0 0 0 0 0 127 0" result="hardAlpha"/>
<feOffset/>
<feGaussianBlur stdDeviation="4"/>
<feComposite in2="hardAlpha" operator="arithmetic" k2="-1" k3="1"/>
<feColorMatrix type="matrix" values="0 0 0 0 1 0 0 0 0 0.807843 0 0 0 0 0.423529 0 0 0 0.05 0"/>
<feBlend mode="normal" in2="shape" result="effect1_innerShadow_1404_74189"/>
</filter>
<filter id="filter12_i_1404_74189" x="1298.7" y="361" width="43.5664" height="14.4773" filterUnits="userSpaceOnUse" color-interpolation-filters="sRGB">
<feFlood flood-opacity="0" result="BackgroundImageFix"/>
<feBlend mode="normal" in="SourceGraphic" in2="BackgroundImageFix" result="shape"/>
<feColorMatrix in="SourceAlpha" type="matrix" values="0 0 0 0 0 0 0 0 0 0 0 0 0 0 0 0 0 0 127 0" result="hardAlpha"/>
<feOffset/>
<feGaussianBlur stdDeviation="4"/>
<feComposite in2="hardAlpha" operator="arithmetic" k2="-1" k3="1"/>
<feColorMatrix type="matrix" values="0 0 0 0 1 0 0 0 0 0.807843 0 0 0 0 0.423529 0 0 0 0.05 0"/>
<feBlend mode="normal" in2="shape" result="effect1_innerShadow_1404_74189"/>
</filter>
<filter id="filter13_i_1404_74189" x="1298.7" y="537.133" width="43.5664" height="14.4773" filterUnits="userSpaceOnUse" color-interpolation-filters="sRGB">
<feFlood flood-opacity="0" result="BackgroundImageFix"/>
<feBlend mode="normal" in="SourceGraphic" in2="BackgroundImageFix" result="shape"/>
<feColorMatrix in="SourceAlpha" type="matrix" values="0 0 0 0 0 0 0 0 0 0 0 0 0 0 0 0 0 0 127 0" result="hardAlpha"/>
<feOffset/>
<feGaussianBlur stdDeviation="4"/>
<feComposite in2="hardAlpha" operator="arithmetic" k2="-1" k3="1"/>
<feColorMatrix type="matrix" values="0 0 0 0 1 0 0 0 0 0.807843 0 0 0 0 0.423529 0 0 0 0.05 0"/>
<feBlend mode="normal" in2="shape" result="effect1_innerShadow_1404_74189"/>
</filter>
<filter id="filter14_i_1404_74189" x="1147.57" y="405.036" width="43.5664" height="14.4773" filterUnits="userSpaceOnUse" color-interpolation-filters="sRGB">
<feFlood flood-opacity="0" result="BackgroundImageFix"/>
<feBlend mode="normal" in="SourceGraphic" in2="BackgroundImageFix" result="shape"/>
<feColorMatrix in="SourceAlpha" type="matrix" values="0 0 0 0 0 0 0 0 0 0 0 0 0 0 0 0 0 0 127 0" result="hardAlpha"/>
<feOffset/>
<feGaussianBlur stdDeviation="4"/>
<feComposite in2="hardAlpha" operator="arithmetic" k2="-1" k3="1"/>
<feColorMatrix type="matrix" values="0 0 0 0 1 0 0 0 0 0.807843 0 0 0 0 0.423529 0 0 0 0.05 0"/>
<feBlend mode="normal" in2="shape" result="effect1_innerShadow_1404_74189"/>
</filter>
<filter id="filter15_i_1404_74189" x="1147.57" y="581.169" width="43.5664" height="14.4773" filterUnits="userSpaceOnUse" color-interpolation-filters="sRGB">
<feFlood flood-opacity="0" result="BackgroundImageFix"/>
<feBlend mode="normal" in="SourceGraphic" in2="BackgroundImageFix" result="shape"/>
<feColorMatrix in="SourceAlpha" type="matrix" values="0 0 0 0 0 0 0 0 0 0 0 0 0 0 0 0 0 0 127 0" result="hardAlpha"/>
<feOffset/>
<feGaussianBlur stdDeviation="4"/>
<feComposite in2="hardAlpha" operator="arithmetic" k2="-1" k3="1"/>
<feColorMatrix type="matrix" values="0 0 0 0 1 0 0 0 0 0.807843 0 0 0 0 0.423529 0 0 0 0.05 0"/>
<feBlend mode="normal" in2="shape" result="effect1_innerShadow_1404_74189"/>
</filter>
<filter id="filter16_i_1404_74189" x="1374.27" y="405.036" width="43.5664" height="14.4773" filterUnits="userSpaceOnUse" color-interpolation-filters="sRGB">
<feFlood flood-opacity="0" result="BackgroundImageFix"/>
<feBlend mode="normal" in="SourceGraphic" in2="BackgroundImageFix" result="shape"/>
<feColorMatrix in="SourceAlpha" type="matrix" values="0 0 0 0 0 0 0 0 0 0 0 0 0 0 0 0 0 0 127 0" result="hardAlpha"/>
<feOffset/>
<feGaussianBlur stdDeviation="4"/>
<feComposite in2="hardAlpha" operator="arithmetic" k2="-1" k3="1"/>
<feColorMatrix type="matrix" values="0 0 0 0 1 0 0 0 0 0.807843 0 0 0 0 0.423529 0 0 0 0.05 0"/>
<feBlend mode="normal" in2="shape" result="effect1_innerShadow_1404_74189"/>
</filter>
<filter id="filter17_i_1404_74189" x="1374.27" y="581.169" width="43.5664" height="14.4773" filterUnits="userSpaceOnUse" color-interpolation-filters="sRGB">
<feFlood flood-opacity="0" result="BackgroundImageFix"/>
<feBlend mode="normal" in="SourceGraphic" in2="BackgroundImageFix" result="shape"/>
<feColorMatrix in="SourceAlpha" type="matrix" values="0 0 0 0 0 0 0 0 0 0 0 0 0 0 0 0 0 0 127 0" result="hardAlpha"/>
<feOffset/>
<feGaussianBlur stdDeviation="4"/>
<feComposite in2="hardAlpha" operator="arithmetic" k2="-1" k3="1"/>
<feColorMatrix type="matrix" values="0 0 0 0 1 0 0 0 0 0.807843 0 0 0 0 0.423529 0 0 0 0.05 0"/>
<feBlend mode="normal" in2="shape" result="effect1_innerShadow_1404_74189"/>
</filter>
<filter id="filter18_i_1404_74189" x="1223.14" y="405.036" width="43.5664" height="14.4773" filterUnits="userSpaceOnUse" color-interpolation-filters="sRGB">
<feFlood flood-opacity="0" result="BackgroundImageFix"/>
<feBlend mode="normal" in="SourceGraphic" in2="BackgroundImageFix" result="shape"/>
<feColorMatrix in="SourceAlpha" type="matrix" values="0 0 0 0 0 0 0 0 0 0 0 0 0 0 0 0 0 0 127 0" result="hardAlpha"/>
<feOffset/>
<feGaussianBlur stdDeviation="4"/>
<feComposite in2="hardAlpha" operator="arithmetic" k2="-1" k3="1"/>
<feColorMatrix type="matrix" values="0 0 0 0 1 0 0 0 0 0.807843 0 0 0 0 0.423529 0 0 0 0.05 0"/>
<feBlend mode="normal" in2="shape" result="effect1_innerShadow_1404_74189"/>
</filter>
<filter id="filter19_i_1404_74189" x="1223.14" y="581.169" width="43.5664" height="14.4773" filterUnits="userSpaceOnUse" color-interpolation-filters="sRGB">
<feFlood flood-opacity="0" result="BackgroundImageFix"/>
<feBlend mode="normal" in="SourceGraphic" in2="BackgroundImageFix" result="shape"/>
<feColorMatrix in="SourceAlpha" type="matrix" values="0 0 0 0 0 0 0 0 0 0 0 0 0 0 0 0 0 0 127 0" result="hardAlpha"/>
<feOffset/>
<feGaussianBlur stdDeviation="4"/>
<feComposite in2="hardAlpha" operator="arithmetic" k2="-1" k3="1"/>
<feColorMatrix type="matrix" values="0 0 0 0 1 0 0 0 0 0.807843 0 0 0 0 0.423529 0 0 0 0.05 0"/>
<feBlend mode="normal" in2="shape" result="effect1_innerShadow_1404_74189"/>
</filter>
<filter id="filter20_i_1404_74189" x="1298.7" y="405.036" width="43.5664" height="14.4773" filterUnits="userSpaceOnUse" color-interpolation-filters="sRGB">
<feFlood flood-opacity="0" result="BackgroundImageFix"/>
<feBlend mode="normal" in="SourceGraphic" in2="BackgroundImageFix" result="shape"/>
<feColorMatrix in="SourceAlpha" type="matrix" values="0 0 0 0 0 0 0 0 0 0 0 0 0 0 0 0 0 0 127 0" result="hardAlpha"/>
<feOffset/>
<feGaussianBlur stdDeviation="4"/>
<feComposite in2="hardAlpha" operator="arithmetic" k2="-1" k3="1"/>
<feColorMatrix type="matrix" values="0 0 0 0 1 0 0 0 0 0.807843 0 0 0 0 0.423529 0 0 0 0.05 0"/>
<feBlend mode="normal" in2="shape" result="effect1_innerShadow_1404_74189"/>
</filter>
<filter id="filter21_i_1404_74189" x="1298.7" y="581.169" width="43.5664" height="14.4773" filterUnits="userSpaceOnUse" color-interpolation-filters="sRGB">
<feFlood flood-opacity="0" result="BackgroundImageFix"/>
<feBlend mode="normal" in="SourceGraphic" in2="BackgroundImageFix" result="shape"/>
<feColorMatrix in="SourceAlpha" type="matrix" values="0 0 0 0 0 0 0 0 0 0 0 0 0 0 0 0 0 0 127 0" result="hardAlpha"/>
<feOffset/>
<feGaussianBlur stdDeviation="4"/>
<feComposite in2="hardAlpha" operator="arithmetic" k2="-1" k3="1"/>
<feColorMatrix type="matrix" values="0 0 0 0 1 0 0 0 0 0.807843 0 0 0 0 0.423529 0 0 0 0.05 0"/>
<feBlend mode="normal" in2="shape" result="effect1_innerShadow_1404_74189"/>
</filter>
<filter id="filter22_i_1404_74189" x="1147.57" y="449.067" width="43.5664" height="14.4773" filterUnits="userSpaceOnUse" color-interpolation-filters="sRGB">
<feFlood flood-opacity="0" result="BackgroundImageFix"/>
<feBlend mode="normal" in="SourceGraphic" in2="BackgroundImageFix" result="shape"/>
<feColorMatrix in="SourceAlpha" type="matrix" values="0 0 0 0 0 0 0 0 0 0 0 0 0 0 0 0 0 0 127 0" result="hardAlpha"/>
<feOffset/>
<feGaussianBlur stdDeviation="4"/>
<feComposite in2="hardAlpha" operator="arithmetic" k2="-1" k3="1"/>
<feColorMatrix type="matrix" values="0 0 0 0 1 0 0 0 0 0.807843 0 0 0 0 0.423529 0 0 0 0.05 0"/>
<feBlend mode="normal" in2="shape" result="effect1_innerShadow_1404_74189"/>
</filter>
<filter id="filter23_i_1404_74189" x="1374.27" y="449.067" width="43.5664" height="14.4773" filterUnits="userSpaceOnUse" color-interpolation-filters="sRGB">
<feFlood flood-opacity="0" result="BackgroundImageFix"/>
<feBlend mode="normal" in="SourceGraphic" in2="BackgroundImageFix" result="shape"/>
<feColorMatrix in="SourceAlpha" type="matrix" values="0 0 0 0 0 0 0 0 0 0 0 0 0 0 0 0 0 0 127 0" result="hardAlpha"/>
<feOffset/>
<feGaussianBlur stdDeviation="4"/>
<feComposite in2="hardAlpha" operator="arithmetic" k2="-1" k3="1"/>
<feColorMatrix type="matrix" values="0 0 0 0 1 0 0 0 0 0.807843 0 0 0 0 0.423529 0 0 0 0.05 0"/>
<feBlend mode="normal" in2="shape" result="effect1_innerShadow_1404_74189"/>
</filter>
<filter id="filter24_i_1404_74189" x="1223.14" y="449.067" width="43.5664" height="14.4773" filterUnits="userSpaceOnUse" color-interpolation-filters="sRGB">
<feFlood flood-opacity="0" result="BackgroundImageFix"/>
<feBlend mode="normal" in="SourceGraphic" in2="BackgroundImageFix" result="shape"/>
<feColorMatrix in="SourceAlpha" type="matrix" values="0 0 0 0 0 0 0 0 0 0 0 0 0 0 0 0 0 0 127 0" result="hardAlpha"/>
<feOffset/>
<feGaussianBlur stdDeviation="4"/>
<feComposite in2="hardAlpha" operator="arithmetic" k2="-1" k3="1"/>
<feColorMatrix type="matrix" values="0 0 0 0 1 0 0 0 0 0.807843 0 0 0 0 0.423529 0 0 0 0.05 0"/>
<feBlend mode="normal" in2="shape" result="effect1_innerShadow_1404_74189"/>
</filter>
<filter id="filter25_i_1404_74189" x="1298.7" y="449.067" width="43.5664" height="14.4773" filterUnits="userSpaceOnUse" color-interpolation-filters="sRGB">
<feFlood flood-opacity="0" result="BackgroundImageFix"/>
<feBlend mode="normal" in="SourceGraphic" in2="BackgroundImageFix" result="shape"/>
<feColorMatrix in="SourceAlpha" type="matrix" values="0 0 0 0 0 0 0 0 0 0 0 0 0 0 0 0 0 0 127 0" result="hardAlpha"/>
<feOffset/>
<feGaussianBlur stdDeviation="4"/>
<feComposite in2="hardAlpha" operator="arithmetic" k2="-1" k3="1"/>
<feColorMatrix type="matrix" values="0 0 0 0 1 0 0 0 0 0.807843 0 0 0 0 0.423529 0 0 0 0.05 0"/>
<feBlend mode="normal" in2="shape" result="effect1_innerShadow_1404_74189"/>
</filter>
<filter id="filter26_i_1404_74189" x="1147.57" y="493.102" width="43.5664" height="14.4773" filterUnits="userSpaceOnUse" color-interpolation-filters="sRGB">
<feFlood flood-opacity="0" result="BackgroundImageFix"/>
<feBlend mode="normal" in="SourceGraphic" in2="BackgroundImageFix" result="shape"/>
<feColorMatrix in="SourceAlpha" type="matrix" values="0 0 0 0 0 0 0 0 0 0 0 0 0 0 0 0 0 0 127 0" result="hardAlpha"/>
<feOffset/>
<feGaussianBlur stdDeviation="4"/>
<feComposite in2="hardAlpha" operator="arithmetic" k2="-1" k3="1"/>
<feColorMatrix type="matrix" values="0 0 0 0 1 0 0 0 0 0.807843 0 0 0 0 0.423529 0 0 0 0.05 0"/>
<feBlend mode="normal" in2="shape" result="effect1_innerShadow_1404_74189"/>
</filter>
<filter id="filter27_i_1404_74189" x="1072" y="361" width="43.5664" height="14.4773" filterUnits="userSpaceOnUse" color-interpolation-filters="sRGB">
<feFlood flood-opacity="0" result="BackgroundImageFix"/>
<feBlend mode="normal" in="SourceGraphic" in2="BackgroundImageFix" result="shape"/>
<feColorMatrix in="SourceAlpha" type="matrix" values="0 0 0 0 0 0 0 0 0 0 0 0 0 0 0 0 0 0 127 0" result="hardAlpha"/>
<feOffset/>
<feGaussianBlur stdDeviation="4"/>
<feComposite in2="hardAlpha" operator="arithmetic" k2="-1" k3="1"/>
<feColorMatrix type="matrix" values="0 0 0 0 1 0 0 0 0 0.807843 0 0 0 0 0.423529 0 0 0 0.05 0"/>
<feBlend mode="normal" in2="shape" result="effect1_innerShadow_1404_74189"/>
</filter>
<filter id="filter28_i_1404_74189" x="1072" y="537.133" width="43.5664" height="14.4773" filterUnits="userSpaceOnUse" color-interpolation-filters="sRGB">
<feFlood flood-opacity="0" result="BackgroundImageFix"/>
<feBlend mode="normal" in="SourceGraphic" in2="BackgroundImageFix" result="shape"/>
<feColorMatrix in="SourceAlpha" type="matrix" values="0 0 0 0 0 0 0 0 0 0 0 0 0 0 0 0 0 0 127 0" result="hardAlpha"/>
<feOffset/>
<feGaussianBlur stdDeviation="4"/>
<feComposite in2="hardAlpha" operator="arithmetic" k2="-1" k3="1"/>
<feColorMatrix type="matrix" values="0 0 0 0 1 0 0 0 0 0.807843 0 0 0 0 0.423529 0 0 0 0.05 0"/>
<feBlend mode="normal" in2="shape" result="effect1_innerShadow_1404_74189"/>
</filter>
<filter id="filter29_i_1404_74189" x="1072" y="405.036" width="43.5664" height="14.4773" filterUnits="userSpaceOnUse" color-interpolation-filters="sRGB">
<feFlood flood-opacity="0" result="BackgroundImageFix"/>
<feBlend mode="normal" in="SourceGraphic" in2="BackgroundImageFix" result="shape"/>
<feColorMatrix in="SourceAlpha" type="matrix" values="0 0 0 0 0 0 0 0 0 0 0 0 0 0 0 0 0 0 127 0" result="hardAlpha"/>
<feOffset/>
<feGaussianBlur stdDeviation="4"/>
<feComposite in2="hardAlpha" operator="arithmetic" k2="-1" k3="1"/>
<feColorMatrix type="matrix" values="0 0 0 0 1 0 0 0 0 0.807843 0 0 0 0 0.423529 0 0 0 0.05 0"/>
<feBlend mode="normal" in2="shape" result="effect1_innerShadow_1404_74189"/>
</filter>
<filter id="filter30_i_1404_74189" x="1072" y="581.169" width="43.5664" height="14.4773" filterUnits="userSpaceOnUse" color-interpolation-filters="sRGB">
<feFlood flood-opacity="0" result="BackgroundImageFix"/>
<feBlend mode="normal" in="SourceGraphic" in2="BackgroundImageFix" result="shape"/>
<feColorMatrix in="SourceAlpha" type="matrix" values="0 0 0 0 0 0 0 0 0 0 0 0 0 0 0 0 0 0 127 0" result="hardAlpha"/>
<feOffset/>
<feGaussianBlur stdDeviation="4"/>
<feComposite in2="hardAlpha" operator="arithmetic" k2="-1" k3="1"/>
<feColorMatrix type="matrix" values="0 0 0 0 1 0 0 0 0 0.807843 0 0 0 0 0.423529 0 0 0 0.05 0"/>
<feBlend mode="normal" in2="shape" result="effect1_innerShadow_1404_74189"/>
</filter>
<filter id="filter31_i_1404_74189" x="1072" y="449.067" width="43.5664" height="14.4773" filterUnits="userSpaceOnUse" color-interpolation-filters="sRGB">
<feFlood flood-opacity="0" result="BackgroundImageFix"/>
<feBlend mode="normal" in="SourceGraphic" in2="BackgroundImageFix" result="shape"/>
<feColorMatrix in="SourceAlpha" type="matrix" values="0 0 0 0 0 0 0 0 0 0 0 0 0 0 0 0 0 0 127 0" result="hardAlpha"/>
<feOffset/>
<feGaussianBlur stdDeviation="4"/>
<feComposite in2="hardAlpha" operator="arithmetic" k2="-1" k3="1"/>
<feColorMatrix type="matrix" values="0 0 0 0 1 0 0 0 0 0.807843 0 0 0 0 0.423529 0 0 0 0.05 0"/>
<feBlend mode="normal" in2="shape" result="effect1_innerShadow_1404_74189"/>
</filter>
<filter id="filter32_i_1404_74189" x="1072" y="493.102" width="43.5664" height="14.4773" filterUnits="userSpaceOnUse" color-interpolation-filters="sRGB">
<feFlood flood-opacity="0" result="BackgroundImageFix"/>
<feBlend mode="normal" in="SourceGraphic" in2="BackgroundImageFix" result="shape"/>
<feColorMatrix in="SourceAlpha" type="matrix" values="0 0 0 0 0 0 0 0 0 0 0 0 0 0 0 0 0 0 127 0" result="hardAlpha"/>
<feOffset/>
<feGaussianBlur stdDeviation="4"/>
<feComposite in2="hardAlpha" operator="arithmetic" k2="-1" k3="1"/>
<feColorMatrix type="matrix" values="0 0 0 0 1 0 0 0 0 0.807843 0 0 0 0 0.423529 0 0 0 0.05 0"/>
<feBlend mode="normal" in2="shape" result="effect1_innerShadow_1404_74189"/>
</filter>
<filter id="filter33_i_1404_74189" x="1374.27" y="493.102" width="43.5664" height="14.4773" filterUnits="userSpaceOnUse" color-interpolation-filters="sRGB">
<feFlood flood-opacity="0" result="BackgroundImageFix"/>
<feBlend mode="normal" in="SourceGraphic" in2="BackgroundImageFix" result="shape"/>
<feColorMatrix in="SourceAlpha" type="matrix" values="0 0 0 0 0 0 0 0 0 0 0 0 0 0 0 0 0 0 127 0" result="hardAlpha"/>
<feOffset/>
<feGaussianBlur stdDeviation="4"/>
<feComposite in2="hardAlpha" operator="arithmetic" k2="-1" k3="1"/>
<feColorMatrix type="matrix" values="0 0 0 0 1 0 0 0 0 0.807843 0 0 0 0 0.423529 0 0 0 0.05 0"/>
<feBlend mode="normal" in2="shape" result="effect1_innerShadow_1404_74189"/>
</filter>
<filter id="filter34_i_1404_74189" x="1223.14" y="493.102" width="43.5664" height="14.4773" filterUnits="userSpaceOnUse" color-interpolation-filters="sRGB">
<feFlood flood-opacity="0" result="BackgroundImageFix"/>
<feBlend mode="normal" in="SourceGraphic" in2="BackgroundImageFix" result="shape"/>
<feColorMatrix in="SourceAlpha" type="matrix" values="0 0 0 0 0 0 0 0 0 0 0 0 0 0 0 0 0 0 127 0" result="hardAlpha"/>
<feOffset/>
<feGaussianBlur stdDeviation="4"/>
<feComposite in2="hardAlpha" operator="arithmetic" k2="-1" k3="1"/>
<feColorMatrix type="matrix" values="0 0 0 0 1 0 0 0 0 0.807843 0 0 0 0 0.423529 0 0 0 0.05 0"/>
<feBlend mode="normal" in2="shape" result="effect1_innerShadow_1404_74189"/>
</filter>
<filter id="filter35_i_1404_74189" x="1298.7" y="493.102" width="43.5664" height="14.4773" filterUnits="userSpaceOnUse" color-interpolation-filters="sRGB">
<feFlood flood-opacity="0" result="BackgroundImageFix"/>
<feBlend mode="normal" in="SourceGraphic" in2="BackgroundImageFix" result="shape"/>
<feColorMatrix in="SourceAlpha" type="matrix" values="0 0 0 0 0 0 0 0 0 0 0 0 0 0 0 0 0 0 127 0" result="hardAlpha"/>
<feOffset/>
<feGaussianBlur stdDeviation="4"/>
<feComposite in2="hardAlpha" operator="arithmetic" k2="-1" k3="1"/>
<feColorMatrix type="matrix" values="0 0 0 0 1 0 0 0 0 0.807843 0 0 0 0 0.423529 0 0 0 0.05 0"/>
<feBlend mode="normal" in2="shape" result="effect1_innerShadow_1404_74189"/>
</filter>
<filter id="filter36_i_1404_74189" x="24" y="24" width="588" height="591" filterUnits="userSpaceOnUse" color-interpolation-filters="sRGB">
<feFlood flood-opacity="0" result="BackgroundImageFix"/>
<feBlend mode="normal" in="SourceGraphic" in2="BackgroundImageFix" result="shape"/>
<feColorMatrix in="SourceAlpha" type="matrix" values="0 0 0 0 0 0 0 0 0 0 0 0 0 0 0 0 0 0 127 0" result="hardAlpha"/>
<feOffset/>
<feGaussianBlur stdDeviation="20"/>
<feComposite in2="hardAlpha" operator="arithmetic" k2="-1" k3="1"/>
<feColorMatrix type="matrix" values="0 0 0 0 0.354167 0 0 0 0 0.336458 0 0 0 0 0.301042 0 0 0 0.1 0"/>
<feBlend mode="normal" in2="shape" result="effect1_innerShadow_1404_74189"/>
</filter>
<linearGradient id="paint0_linear_1404_74189" x1="686" y1="1497.55" x2="783.619" y2="-333.541" gradientUnits="userSpaceOnUse">
<stop stop-color="white" stop-opacity="0.35"/>
<stop offset="1" stop-color="white"/>
</linearGradient>
<clipPath id="clip0_1404_74189">
<rect width="1440" height="612" fill="white"/>
</clipPath>
</defs>
</svg>
