<svg width="1440" height="420" viewBox="0 0 1440 420" fill="none" xmlns="http://www.w3.org/2000/svg">
<g clip-path="url(#clip0_1097)">
<rect width="1440" height="420" fill="#F9FBFE"/>
<g opacity="0.1" filter="url(#filter0_i_1097)">
<g filter="url(#filter1_i_1097)">
<path d="M1118.48 206.973C1104.85 199.578 1094.04 206.354 1095.74 210.012C1107.02 204.778 1109.96 215.314 1123.27 215.719C1135.19 215.336 1139.42 209.191 1139.12 203.754C1138.87 199.51 1133.32 215.021 1118.48 206.973Z" fill="#9790E1"/>
</g>
<g filter="url(#filter2_i_1097)">
<path d="M1118.48 361.67C1104.85 354.274 1094.04 361.051 1095.74 364.709C1107.02 359.475 1109.96 370.011 1123.27 370.416C1135.19 370.033 1139.42 363.887 1139.12 358.45C1138.87 354.207 1133.32 369.718 1118.48 361.67Z" fill="#9790E1"/>
</g>
<g filter="url(#filter3_i_1097)">
<path d="M1345.18 206.973C1331.56 199.578 1320.74 206.354 1322.45 210.012C1333.73 204.778 1336.66 215.314 1349.98 215.719C1361.89 215.336 1366.12 209.191 1365.82 203.754C1365.57 199.51 1360.03 215.021 1345.18 206.973Z" fill="#9790E1"/>
</g>
<g filter="url(#filter4_i_1097)">
<path d="M1345.18 361.67C1331.56 354.274 1320.74 361.051 1322.45 364.709C1333.73 359.475 1336.66 370.011 1349.98 370.416C1361.89 370.033 1366.12 363.887 1365.82 358.45C1365.57 354.207 1360.03 369.718 1345.18 361.67Z" fill="#9790E1"/>
</g>
<g filter="url(#filter5_i_1097)">
<path d="M1420.75 206.973C1407.12 199.578 1396.31 206.354 1398.02 210.012C1409.3 204.778 1412.23 215.314 1425.54 215.719C1437.46 215.336 1441.69 209.191 1441.39 203.754C1441.14 199.51 1435.59 215.021 1420.75 206.973Z" fill="#9790E1"/>
</g>
<g filter="url(#filter6_i_1097)">
<path d="M1420.75 361.67C1407.12 354.274 1396.31 361.051 1398.02 364.709C1409.3 359.475 1412.23 370.011 1425.54 370.416C1437.46 370.033 1441.69 363.887 1441.39 358.45C1441.14 354.207 1435.59 369.718 1420.75 361.67Z" fill="#9790E1"/>
</g>
<g filter="url(#filter7_i_1097)">
<path d="M1194.05 206.973C1180.42 199.578 1169.61 206.354 1171.31 210.012C1182.59 204.778 1185.53 215.314 1198.84 215.719C1210.76 215.336 1214.99 209.191 1214.69 203.754C1214.44 199.51 1208.89 215.021 1194.05 206.973Z" fill="#9790E1"/>
</g>
<g filter="url(#filter8_i_1097)">
<path d="M1194.05 361.67C1180.42 354.274 1169.61 361.051 1171.31 364.709C1182.59 359.475 1185.53 370.011 1198.84 370.416C1210.76 370.033 1214.99 363.887 1214.69 358.45C1214.44 354.207 1208.89 369.718 1194.05 361.67Z" fill="#9790E1"/>
</g>
<g filter="url(#filter9_i_1097)">
<path d="M1269.62 206.973C1255.99 199.578 1245.17 206.354 1246.88 210.012C1258.16 204.778 1261.1 215.314 1274.41 215.719C1286.33 215.336 1290.56 209.191 1290.26 203.754C1290 199.51 1284.46 215.021 1269.62 206.973Z" fill="#9790E1"/>
</g>
<g filter="url(#filter10_i_1097)">
<path d="M1269.62 361.67C1255.99 354.274 1245.17 361.051 1246.88 364.709C1258.16 359.475 1261.1 370.011 1274.41 370.416C1286.33 370.033 1290.56 363.887 1290.26 358.45C1290 354.207 1284.46 369.718 1269.62 361.67Z" fill="#9790E1"/>
</g>
<g filter="url(#filter11_i_1097)">
<path d="M1118.48 245.647C1104.85 238.252 1094.04 245.028 1095.74 248.686C1107.02 243.452 1109.96 253.988 1123.27 254.393C1135.19 254.011 1139.42 247.865 1139.12 242.428C1138.87 238.184 1133.32 253.695 1118.48 245.647Z" fill="#9790E1"/>
</g>
<g filter="url(#filter12_i_1097)">
<path d="M1118.48 400.344C1104.85 392.948 1094.04 399.725 1095.74 403.383C1107.02 398.149 1109.96 408.685 1123.27 409.09C1135.19 408.707 1139.42 402.561 1139.12 397.124C1138.87 392.881 1133.32 408.392 1118.48 400.344Z" fill="#9790E1"/>
</g>
<g filter="url(#filter13_i_1097)">
<path d="M1345.18 245.647C1331.56 238.252 1320.74 245.028 1322.45 248.686C1333.73 243.452 1336.66 253.988 1349.98 254.393C1361.89 254.011 1366.12 247.865 1365.82 242.428C1365.57 238.184 1360.03 253.695 1345.18 245.647Z" fill="#9790E1"/>
</g>
<g filter="url(#filter14_i_1097)">
<path d="M1345.18 400.344C1331.56 392.948 1320.74 399.725 1322.45 403.383C1333.73 398.149 1336.66 408.685 1349.98 409.09C1361.89 408.707 1366.12 402.561 1365.82 397.124C1365.57 392.881 1360.03 408.392 1345.18 400.344Z" fill="#9790E1"/>
</g>
<g filter="url(#filter15_i_1097)">
<path d="M1420.75 245.647C1407.12 238.252 1396.31 245.028 1398.02 248.686C1409.3 243.452 1412.23 253.988 1425.54 254.393C1437.46 254.011 1441.69 247.865 1441.39 242.428C1441.14 238.184 1435.59 253.695 1420.75 245.647Z" fill="#9790E1"/>
</g>
<g filter="url(#filter16_i_1097)">
<path d="M1420.75 400.344C1407.12 392.948 1396.31 399.725 1398.02 403.383C1409.3 398.149 1412.23 408.685 1425.54 409.09C1437.46 408.707 1441.69 402.561 1441.39 397.124C1441.14 392.881 1435.59 408.392 1420.75 400.344Z" fill="#9790E1"/>
</g>
<g filter="url(#filter17_i_1097)">
<path d="M1194.05 245.647C1180.42 238.252 1169.61 245.028 1171.31 248.686C1182.59 243.452 1185.53 253.988 1198.84 254.393C1210.76 254.011 1214.99 247.865 1214.69 242.428C1214.44 238.184 1208.89 253.695 1194.05 245.647Z" fill="#9790E1"/>
</g>
<g filter="url(#filter18_i_1097)">
<path d="M1194.05 400.344C1180.42 392.948 1169.61 399.725 1171.31 403.383C1182.59 398.149 1185.53 408.685 1198.84 409.09C1210.76 408.707 1214.99 402.561 1214.69 397.124C1214.44 392.881 1208.89 408.392 1194.05 400.344Z" fill="#9790E1"/>
</g>
<g filter="url(#filter19_i_1097)">
<path d="M1269.62 245.647C1255.99 238.252 1245.17 245.028 1246.88 248.686C1258.16 243.452 1261.1 253.988 1274.41 254.393C1286.33 254.011 1290.56 247.865 1290.26 242.428C1290 238.184 1284.46 253.695 1269.62 245.647Z" fill="#9790E1"/>
</g>
<g filter="url(#filter20_i_1097)">
<path d="M1269.62 400.344C1255.99 392.948 1245.17 399.725 1246.88 403.383C1258.16 398.149 1261.1 408.685 1274.41 409.09C1286.33 408.707 1290.56 402.561 1290.26 397.124C1290 392.881 1284.46 408.392 1269.62 400.344Z" fill="#9790E1"/>
</g>
<g filter="url(#filter21_i_1097)">
<path d="M1118.48 284.321C1104.85 276.926 1094.04 283.702 1095.74 287.361C1107.02 282.126 1109.96 292.662 1123.27 293.067C1135.19 292.685 1139.42 286.539 1139.12 281.102C1138.87 276.859 1133.32 292.37 1118.48 284.321Z" fill="#9790E1"/>
</g>
<g filter="url(#filter22_i_1097)">
<path d="M1345.18 284.321C1331.56 276.926 1320.74 283.702 1322.45 287.361C1333.73 282.126 1336.66 292.662 1349.98 293.067C1361.89 292.685 1366.12 286.539 1365.82 281.102C1365.57 276.859 1360.03 292.37 1345.18 284.321Z" fill="#9790E1"/>
</g>
<g filter="url(#filter23_i_1097)">
<path d="M1420.75 284.321C1407.12 276.926 1396.31 283.702 1398.02 287.361C1409.3 282.126 1412.23 292.662 1425.54 293.067C1437.46 292.685 1441.69 286.539 1441.39 281.102C1441.14 276.859 1435.59 292.37 1420.75 284.321Z" fill="#9790E1"/>
</g>
<g filter="url(#filter24_i_1097)">
<path d="M1194.05 284.321C1180.42 276.926 1169.61 283.702 1171.31 287.361C1182.59 282.126 1185.53 292.662 1198.84 293.067C1210.76 292.685 1214.99 286.539 1214.69 281.102C1214.44 276.859 1208.89 292.37 1194.05 284.321Z" fill="#9790E1"/>
</g>
<g filter="url(#filter25_i_1097)">
<path d="M1269.62 284.321C1255.99 276.926 1245.17 283.702 1246.88 287.361C1258.16 282.126 1261.1 292.662 1274.41 293.067C1286.33 292.685 1290.56 286.539 1290.26 281.102C1290 276.859 1284.46 292.37 1269.62 284.321Z" fill="#9790E1"/>
</g>
<g filter="url(#filter26_i_1097)">
<path d="M1118.48 322.995C1104.85 315.6 1094.04 322.376 1095.74 326.035C1107.02 320.801 1109.96 331.336 1123.27 331.742C1135.19 331.359 1139.42 325.213 1139.12 319.776C1138.87 315.533 1133.32 331.044 1118.48 322.995Z" fill="#9790E1"/>
</g>
<g filter="url(#filter27_i_1097)">
<path d="M1042.91 206.973C1029.29 199.578 1018.47 206.354 1020.18 210.012C1031.46 204.778 1034.39 215.314 1047.71 215.719C1059.63 215.336 1063.85 209.191 1063.55 203.754C1063.3 199.51 1057.76 215.021 1042.91 206.973Z" fill="#9790E1"/>
</g>
<g filter="url(#filter28_i_1097)">
<path d="M1042.91 361.67C1029.29 354.274 1018.47 361.051 1020.18 364.709C1031.46 359.475 1034.39 370.011 1047.71 370.416C1059.63 370.033 1063.85 363.887 1063.55 358.45C1063.3 354.207 1057.76 369.718 1042.91 361.67Z" fill="#9790E1"/>
</g>
<g filter="url(#filter29_i_1097)">
<path d="M1042.91 245.647C1029.29 238.252 1018.47 245.028 1020.18 248.686C1031.46 243.452 1034.39 253.988 1047.71 254.393C1059.63 254.011 1063.85 247.865 1063.55 242.428C1063.3 238.184 1057.76 253.695 1042.91 245.647Z" fill="#9790E1"/>
</g>
<g filter="url(#filter30_i_1097)">
<path d="M1042.91 400.344C1029.29 392.948 1018.47 399.725 1020.18 403.383C1031.46 398.149 1034.39 408.685 1047.71 409.09C1059.63 408.707 1063.85 402.561 1063.55 397.124C1063.3 392.881 1057.76 408.392 1042.91 400.344Z" fill="#9790E1"/>
</g>
<g filter="url(#filter31_i_1097)">
<path d="M1042.91 284.321C1029.29 276.926 1018.47 283.702 1020.18 287.361C1031.46 282.126 1034.39 292.662 1047.71 293.067C1059.63 292.685 1063.85 286.539 1063.55 281.102C1063.3 276.859 1057.76 292.37 1042.91 284.321Z" fill="#9790E1"/>
</g>
<g filter="url(#filter32_i_1097)">
<path d="M1042.91 322.995C1029.29 315.6 1018.47 322.376 1020.18 326.035C1031.46 320.801 1034.39 331.336 1047.71 331.742C1059.63 331.359 1063.85 325.213 1063.55 319.776C1063.3 315.533 1057.76 331.044 1042.91 322.995Z" fill="#9790E1"/>
</g>
<g filter="url(#filter33_i_1097)">
<path d="M1345.18 322.995C1331.56 315.6 1320.74 322.376 1322.45 326.035C1333.73 320.801 1336.66 331.336 1349.98 331.742C1361.89 331.359 1366.12 325.213 1365.82 319.776C1365.57 315.533 1360.03 331.044 1345.18 322.995Z" fill="#9790E1"/>
</g>
<g filter="url(#filter34_i_1097)">
<path d="M1420.75 322.995C1407.12 315.6 1396.31 322.376 1398.02 326.035C1409.3 320.801 1412.23 331.336 1425.54 331.742C1437.46 331.359 1441.69 325.213 1441.39 319.776C1441.14 315.533 1435.59 331.044 1420.75 322.995Z" fill="#9790E1"/>
</g>
<g filter="url(#filter35_i_1097)">
<path d="M1194.05 322.995C1180.42 315.6 1169.61 322.376 1171.31 326.035C1182.59 320.801 1185.53 331.336 1198.84 331.742C1210.76 331.359 1214.99 325.213 1214.69 319.776C1214.44 315.533 1208.89 331.044 1194.05 322.995Z" fill="#9790E1"/>
</g>
<g filter="url(#filter36_i_1097)">
<path d="M1269.62 322.995C1255.99 315.6 1245.17 322.376 1246.88 326.035C1258.16 320.801 1261.1 331.336 1274.41 331.742C1286.33 331.359 1290.56 325.213 1290.26 319.776C1290 315.533 1284.46 331.044 1269.62 322.995Z" fill="#9790E1"/>
</g>
</g>
<g opacity="0.1" filter="url(#filter37_i_1097)">
<path d="M202.612 6C90.8963 6 0 97.516 0 210.006C0 322.484 90.8963 414 202.612 414C314.759 414 406 322.484 406 210.006C406 97.516 314.759 6 202.612 6ZM202.612 347.819C130.075 347.819 68.7967 284.711 68.7967 210.006C68.7967 135.302 130.075 72.1933 202.612 72.1933C276.405 72.1933 336.428 134.013 336.428 210.006C336.428 285.987 276.405 347.819 202.612 347.819Z" fill="#9790E1"/>
</g>
</g>
<defs>
<filter id="filter0_i_1097" x="1020" y="203.004" width="421.406" height="210.086" filterUnits="userSpaceOnUse" color-interpolation-filters="sRGB">
<feFlood flood-opacity="0" result="BackgroundImageFix"/>
<feBlend mode="normal" in="SourceGraphic" in2="BackgroundImageFix" result="shape"/>
<feColorMatrix in="SourceAlpha" type="matrix" values="0 0 0 0 0 0 0 0 0 0 0 0 0 0 0 0 0 0 127 0" result="hardAlpha"/>
<feOffset dy="4"/>
<feGaussianBlur stdDeviation="2"/>
<feComposite in2="hardAlpha" operator="arithmetic" k2="-1" k3="1"/>
<feColorMatrix type="matrix" values="0 0 0 0 0 0 0 0 0 0 0 0 0 0 0 0 0 0 0.01 0"/>
<feBlend mode="normal" in2="shape" result="effect1_innerShadow_1097"/>
</filter>
<filter id="filter1_i_1097" x="1095.57" y="203.004" width="43.5684" height="12.7152" filterUnits="userSpaceOnUse" color-interpolation-filters="sRGB">
<feFlood flood-opacity="0" result="BackgroundImageFix"/>
<feBlend mode="normal" in="SourceGraphic" in2="BackgroundImageFix" result="shape"/>
<feColorMatrix in="SourceAlpha" type="matrix" values="0 0 0 0 0 0 0 0 0 0 0 0 0 0 0 0 0 0 127 0" result="hardAlpha"/>
<feOffset/>
<feGaussianBlur stdDeviation="4"/>
<feComposite in2="hardAlpha" operator="arithmetic" k2="-1" k3="1"/>
<feColorMatrix type="matrix" values="0 0 0 0 1 0 0 0 0 0.807843 0 0 0 0 0.423529 0 0 0 0.05 0"/>
<feBlend mode="normal" in2="shape" result="effect1_innerShadow_1097"/>
</filter>
<filter id="filter2_i_1097" x="1095.57" y="357.7" width="43.5684" height="12.7153" filterUnits="userSpaceOnUse" color-interpolation-filters="sRGB">
<feFlood flood-opacity="0" result="BackgroundImageFix"/>
<feBlend mode="normal" in="SourceGraphic" in2="BackgroundImageFix" result="shape"/>
<feColorMatrix in="SourceAlpha" type="matrix" values="0 0 0 0 0 0 0 0 0 0 0 0 0 0 0 0 0 0 127 0" result="hardAlpha"/>
<feOffset/>
<feGaussianBlur stdDeviation="4"/>
<feComposite in2="hardAlpha" operator="arithmetic" k2="-1" k3="1"/>
<feColorMatrix type="matrix" values="0 0 0 0 1 0 0 0 0 0.807843 0 0 0 0 0.423529 0 0 0 0.05 0"/>
<feBlend mode="normal" in2="shape" result="effect1_innerShadow_1097"/>
</filter>
<filter id="filter3_i_1097" x="1322.27" y="203.004" width="43.5684" height="12.7152" filterUnits="userSpaceOnUse" color-interpolation-filters="sRGB">
<feFlood flood-opacity="0" result="BackgroundImageFix"/>
<feBlend mode="normal" in="SourceGraphic" in2="BackgroundImageFix" result="shape"/>
<feColorMatrix in="SourceAlpha" type="matrix" values="0 0 0 0 0 0 0 0 0 0 0 0 0 0 0 0 0 0 127 0" result="hardAlpha"/>
<feOffset/>
<feGaussianBlur stdDeviation="4"/>
<feComposite in2="hardAlpha" operator="arithmetic" k2="-1" k3="1"/>
<feColorMatrix type="matrix" values="0 0 0 0 1 0 0 0 0 0.807843 0 0 0 0 0.423529 0 0 0 0.05 0"/>
<feBlend mode="normal" in2="shape" result="effect1_innerShadow_1097"/>
</filter>
<filter id="filter4_i_1097" x="1322.27" y="357.7" width="43.5684" height="12.7153" filterUnits="userSpaceOnUse" color-interpolation-filters="sRGB">
<feFlood flood-opacity="0" result="BackgroundImageFix"/>
<feBlend mode="normal" in="SourceGraphic" in2="BackgroundImageFix" result="shape"/>
<feColorMatrix in="SourceAlpha" type="matrix" values="0 0 0 0 0 0 0 0 0 0 0 0 0 0 0 0 0 0 127 0" result="hardAlpha"/>
<feOffset/>
<feGaussianBlur stdDeviation="4"/>
<feComposite in2="hardAlpha" operator="arithmetic" k2="-1" k3="1"/>
<feColorMatrix type="matrix" values="0 0 0 0 1 0 0 0 0 0.807843 0 0 0 0 0.423529 0 0 0 0.05 0"/>
<feBlend mode="normal" in2="shape" result="effect1_innerShadow_1097"/>
</filter>
<filter id="filter5_i_1097" x="1397.84" y="203.004" width="43.5684" height="12.7152" filterUnits="userSpaceOnUse" color-interpolation-filters="sRGB">
<feFlood flood-opacity="0" result="BackgroundImageFix"/>
<feBlend mode="normal" in="SourceGraphic" in2="BackgroundImageFix" result="shape"/>
<feColorMatrix in="SourceAlpha" type="matrix" values="0 0 0 0 0 0 0 0 0 0 0 0 0 0 0 0 0 0 127 0" result="hardAlpha"/>
<feOffset/>
<feGaussianBlur stdDeviation="4"/>
<feComposite in2="hardAlpha" operator="arithmetic" k2="-1" k3="1"/>
<feColorMatrix type="matrix" values="0 0 0 0 1 0 0 0 0 0.807843 0 0 0 0 0.423529 0 0 0 0.05 0"/>
<feBlend mode="normal" in2="shape" result="effect1_innerShadow_1097"/>
</filter>
<filter id="filter6_i_1097" x="1397.84" y="357.7" width="43.5684" height="12.7153" filterUnits="userSpaceOnUse" color-interpolation-filters="sRGB">
<feFlood flood-opacity="0" result="BackgroundImageFix"/>
<feBlend mode="normal" in="SourceGraphic" in2="BackgroundImageFix" result="shape"/>
<feColorMatrix in="SourceAlpha" type="matrix" values="0 0 0 0 0 0 0 0 0 0 0 0 0 0 0 0 0 0 127 0" result="hardAlpha"/>
<feOffset/>
<feGaussianBlur stdDeviation="4"/>
<feComposite in2="hardAlpha" operator="arithmetic" k2="-1" k3="1"/>
<feColorMatrix type="matrix" values="0 0 0 0 1 0 0 0 0 0.807843 0 0 0 0 0.423529 0 0 0 0.05 0"/>
<feBlend mode="normal" in2="shape" result="effect1_innerShadow_1097"/>
</filter>
<filter id="filter7_i_1097" x="1171.13" y="203.004" width="43.5684" height="12.7152" filterUnits="userSpaceOnUse" color-interpolation-filters="sRGB">
<feFlood flood-opacity="0" result="BackgroundImageFix"/>
<feBlend mode="normal" in="SourceGraphic" in2="BackgroundImageFix" result="shape"/>
<feColorMatrix in="SourceAlpha" type="matrix" values="0 0 0 0 0 0 0 0 0 0 0 0 0 0 0 0 0 0 127 0" result="hardAlpha"/>
<feOffset/>
<feGaussianBlur stdDeviation="4"/>
<feComposite in2="hardAlpha" operator="arithmetic" k2="-1" k3="1"/>
<feColorMatrix type="matrix" values="0 0 0 0 1 0 0 0 0 0.807843 0 0 0 0 0.423529 0 0 0 0.05 0"/>
<feBlend mode="normal" in2="shape" result="effect1_innerShadow_1097"/>
</filter>
<filter id="filter8_i_1097" x="1171.13" y="357.7" width="43.5684" height="12.7153" filterUnits="userSpaceOnUse" color-interpolation-filters="sRGB">
<feFlood flood-opacity="0" result="BackgroundImageFix"/>
<feBlend mode="normal" in="SourceGraphic" in2="BackgroundImageFix" result="shape"/>
<feColorMatrix in="SourceAlpha" type="matrix" values="0 0 0 0 0 0 0 0 0 0 0 0 0 0 0 0 0 0 127 0" result="hardAlpha"/>
<feOffset/>
<feGaussianBlur stdDeviation="4"/>
<feComposite in2="hardAlpha" operator="arithmetic" k2="-1" k3="1"/>
<feColorMatrix type="matrix" values="0 0 0 0 1 0 0 0 0 0.807843 0 0 0 0 0.423529 0 0 0 0.05 0"/>
<feBlend mode="normal" in2="shape" result="effect1_innerShadow_1097"/>
</filter>
<filter id="filter9_i_1097" x="1246.7" y="203.004" width="43.5684" height="12.7152" filterUnits="userSpaceOnUse" color-interpolation-filters="sRGB">
<feFlood flood-opacity="0" result="BackgroundImageFix"/>
<feBlend mode="normal" in="SourceGraphic" in2="BackgroundImageFix" result="shape"/>
<feColorMatrix in="SourceAlpha" type="matrix" values="0 0 0 0 0 0 0 0 0 0 0 0 0 0 0 0 0 0 127 0" result="hardAlpha"/>
<feOffset/>
<feGaussianBlur stdDeviation="4"/>
<feComposite in2="hardAlpha" operator="arithmetic" k2="-1" k3="1"/>
<feColorMatrix type="matrix" values="0 0 0 0 1 0 0 0 0 0.807843 0 0 0 0 0.423529 0 0 0 0.05 0"/>
<feBlend mode="normal" in2="shape" result="effect1_innerShadow_1097"/>
</filter>
<filter id="filter10_i_1097" x="1246.7" y="357.7" width="43.5684" height="12.7153" filterUnits="userSpaceOnUse" color-interpolation-filters="sRGB">
<feFlood flood-opacity="0" result="BackgroundImageFix"/>
<feBlend mode="normal" in="SourceGraphic" in2="BackgroundImageFix" result="shape"/>
<feColorMatrix in="SourceAlpha" type="matrix" values="0 0 0 0 0 0 0 0 0 0 0 0 0 0 0 0 0 0 127 0" result="hardAlpha"/>
<feOffset/>
<feGaussianBlur stdDeviation="4"/>
<feComposite in2="hardAlpha" operator="arithmetic" k2="-1" k3="1"/>
<feColorMatrix type="matrix" values="0 0 0 0 1 0 0 0 0 0.807843 0 0 0 0 0.423529 0 0 0 0.05 0"/>
<feBlend mode="normal" in2="shape" result="effect1_innerShadow_1097"/>
</filter>
<filter id="filter11_i_1097" x="1095.57" y="241.678" width="43.5684" height="12.7152" filterUnits="userSpaceOnUse" color-interpolation-filters="sRGB">
<feFlood flood-opacity="0" result="BackgroundImageFix"/>
<feBlend mode="normal" in="SourceGraphic" in2="BackgroundImageFix" result="shape"/>
<feColorMatrix in="SourceAlpha" type="matrix" values="0 0 0 0 0 0 0 0 0 0 0 0 0 0 0 0 0 0 127 0" result="hardAlpha"/>
<feOffset/>
<feGaussianBlur stdDeviation="4"/>
<feComposite in2="hardAlpha" operator="arithmetic" k2="-1" k3="1"/>
<feColorMatrix type="matrix" values="0 0 0 0 1 0 0 0 0 0.807843 0 0 0 0 0.423529 0 0 0 0.05 0"/>
<feBlend mode="normal" in2="shape" result="effect1_innerShadow_1097"/>
</filter>
<filter id="filter12_i_1097" x="1095.57" y="396.375" width="43.5684" height="12.7153" filterUnits="userSpaceOnUse" color-interpolation-filters="sRGB">
<feFlood flood-opacity="0" result="BackgroundImageFix"/>
<feBlend mode="normal" in="SourceGraphic" in2="BackgroundImageFix" result="shape"/>
<feColorMatrix in="SourceAlpha" type="matrix" values="0 0 0 0 0 0 0 0 0 0 0 0 0 0 0 0 0 0 127 0" result="hardAlpha"/>
<feOffset/>
<feGaussianBlur stdDeviation="4"/>
<feComposite in2="hardAlpha" operator="arithmetic" k2="-1" k3="1"/>
<feColorMatrix type="matrix" values="0 0 0 0 1 0 0 0 0 0.807843 0 0 0 0 0.423529 0 0 0 0.05 0"/>
<feBlend mode="normal" in2="shape" result="effect1_innerShadow_1097"/>
</filter>
<filter id="filter13_i_1097" x="1322.27" y="241.678" width="43.5684" height="12.7152" filterUnits="userSpaceOnUse" color-interpolation-filters="sRGB">
<feFlood flood-opacity="0" result="BackgroundImageFix"/>
<feBlend mode="normal" in="SourceGraphic" in2="BackgroundImageFix" result="shape"/>
<feColorMatrix in="SourceAlpha" type="matrix" values="0 0 0 0 0 0 0 0 0 0 0 0 0 0 0 0 0 0 127 0" result="hardAlpha"/>
<feOffset/>
<feGaussianBlur stdDeviation="4"/>
<feComposite in2="hardAlpha" operator="arithmetic" k2="-1" k3="1"/>
<feColorMatrix type="matrix" values="0 0 0 0 1 0 0 0 0 0.807843 0 0 0 0 0.423529 0 0 0 0.05 0"/>
<feBlend mode="normal" in2="shape" result="effect1_innerShadow_1097"/>
</filter>
<filter id="filter14_i_1097" x="1322.27" y="396.375" width="43.5684" height="12.7153" filterUnits="userSpaceOnUse" color-interpolation-filters="sRGB">
<feFlood flood-opacity="0" result="BackgroundImageFix"/>
<feBlend mode="normal" in="SourceGraphic" in2="BackgroundImageFix" result="shape"/>
<feColorMatrix in="SourceAlpha" type="matrix" values="0 0 0 0 0 0 0 0 0 0 0 0 0 0 0 0 0 0 127 0" result="hardAlpha"/>
<feOffset/>
<feGaussianBlur stdDeviation="4"/>
<feComposite in2="hardAlpha" operator="arithmetic" k2="-1" k3="1"/>
<feColorMatrix type="matrix" values="0 0 0 0 1 0 0 0 0 0.807843 0 0 0 0 0.423529 0 0 0 0.05 0"/>
<feBlend mode="normal" in2="shape" result="effect1_innerShadow_1097"/>
</filter>
<filter id="filter15_i_1097" x="1397.84" y="241.678" width="43.5684" height="12.7152" filterUnits="userSpaceOnUse" color-interpolation-filters="sRGB">
<feFlood flood-opacity="0" result="BackgroundImageFix"/>
<feBlend mode="normal" in="SourceGraphic" in2="BackgroundImageFix" result="shape"/>
<feColorMatrix in="SourceAlpha" type="matrix" values="0 0 0 0 0 0 0 0 0 0 0 0 0 0 0 0 0 0 127 0" result="hardAlpha"/>
<feOffset/>
<feGaussianBlur stdDeviation="4"/>
<feComposite in2="hardAlpha" operator="arithmetic" k2="-1" k3="1"/>
<feColorMatrix type="matrix" values="0 0 0 0 1 0 0 0 0 0.807843 0 0 0 0 0.423529 0 0 0 0.05 0"/>
<feBlend mode="normal" in2="shape" result="effect1_innerShadow_1097"/>
</filter>
<filter id="filter16_i_1097" x="1397.84" y="396.375" width="43.5684" height="12.7153" filterUnits="userSpaceOnUse" color-interpolation-filters="sRGB">
<feFlood flood-opacity="0" result="BackgroundImageFix"/>
<feBlend mode="normal" in="SourceGraphic" in2="BackgroundImageFix" result="shape"/>
<feColorMatrix in="SourceAlpha" type="matrix" values="0 0 0 0 0 0 0 0 0 0 0 0 0 0 0 0 0 0 127 0" result="hardAlpha"/>
<feOffset/>
<feGaussianBlur stdDeviation="4"/>
<feComposite in2="hardAlpha" operator="arithmetic" k2="-1" k3="1"/>
<feColorMatrix type="matrix" values="0 0 0 0 1 0 0 0 0 0.807843 0 0 0 0 0.423529 0 0 0 0.05 0"/>
<feBlend mode="normal" in2="shape" result="effect1_innerShadow_1097"/>
</filter>
<filter id="filter17_i_1097" x="1171.13" y="241.678" width="43.5684" height="12.7152" filterUnits="userSpaceOnUse" color-interpolation-filters="sRGB">
<feFlood flood-opacity="0" result="BackgroundImageFix"/>
<feBlend mode="normal" in="SourceGraphic" in2="BackgroundImageFix" result="shape"/>
<feColorMatrix in="SourceAlpha" type="matrix" values="0 0 0 0 0 0 0 0 0 0 0 0 0 0 0 0 0 0 127 0" result="hardAlpha"/>
<feOffset/>
<feGaussianBlur stdDeviation="4"/>
<feComposite in2="hardAlpha" operator="arithmetic" k2="-1" k3="1"/>
<feColorMatrix type="matrix" values="0 0 0 0 1 0 0 0 0 0.807843 0 0 0 0 0.423529 0 0 0 0.05 0"/>
<feBlend mode="normal" in2="shape" result="effect1_innerShadow_1097"/>
</filter>
<filter id="filter18_i_1097" x="1171.13" y="396.375" width="43.5684" height="12.7153" filterUnits="userSpaceOnUse" color-interpolation-filters="sRGB">
<feFlood flood-opacity="0" result="BackgroundImageFix"/>
<feBlend mode="normal" in="SourceGraphic" in2="BackgroundImageFix" result="shape"/>
<feColorMatrix in="SourceAlpha" type="matrix" values="0 0 0 0 0 0 0 0 0 0 0 0 0 0 0 0 0 0 127 0" result="hardAlpha"/>
<feOffset/>
<feGaussianBlur stdDeviation="4"/>
<feComposite in2="hardAlpha" operator="arithmetic" k2="-1" k3="1"/>
<feColorMatrix type="matrix" values="0 0 0 0 1 0 0 0 0 0.807843 0 0 0 0 0.423529 0 0 0 0.05 0"/>
<feBlend mode="normal" in2="shape" result="effect1_innerShadow_1097"/>
</filter>
<filter id="filter19_i_1097" x="1246.7" y="241.678" width="43.5684" height="12.7152" filterUnits="userSpaceOnUse" color-interpolation-filters="sRGB">
<feFlood flood-opacity="0" result="BackgroundImageFix"/>
<feBlend mode="normal" in="SourceGraphic" in2="BackgroundImageFix" result="shape"/>
<feColorMatrix in="SourceAlpha" type="matrix" values="0 0 0 0 0 0 0 0 0 0 0 0 0 0 0 0 0 0 127 0" result="hardAlpha"/>
<feOffset/>
<feGaussianBlur stdDeviation="4"/>
<feComposite in2="hardAlpha" operator="arithmetic" k2="-1" k3="1"/>
<feColorMatrix type="matrix" values="0 0 0 0 1 0 0 0 0 0.807843 0 0 0 0 0.423529 0 0 0 0.05 0"/>
<feBlend mode="normal" in2="shape" result="effect1_innerShadow_1097"/>
</filter>
<filter id="filter20_i_1097" x="1246.7" y="396.375" width="43.5684" height="12.7153" filterUnits="userSpaceOnUse" color-interpolation-filters="sRGB">
<feFlood flood-opacity="0" result="BackgroundImageFix"/>
<feBlend mode="normal" in="SourceGraphic" in2="BackgroundImageFix" result="shape"/>
<feColorMatrix in="SourceAlpha" type="matrix" values="0 0 0 0 0 0 0 0 0 0 0 0 0 0 0 0 0 0 127 0" result="hardAlpha"/>
<feOffset/>
<feGaussianBlur stdDeviation="4"/>
<feComposite in2="hardAlpha" operator="arithmetic" k2="-1" k3="1"/>
<feColorMatrix type="matrix" values="0 0 0 0 1 0 0 0 0 0.807843 0 0 0 0 0.423529 0 0 0 0.05 0"/>
<feBlend mode="normal" in2="shape" result="effect1_innerShadow_1097"/>
</filter>
<filter id="filter21_i_1097" x="1095.57" y="280.352" width="43.5684" height="12.7152" filterUnits="userSpaceOnUse" color-interpolation-filters="sRGB">
<feFlood flood-opacity="0" result="BackgroundImageFix"/>
<feBlend mode="normal" in="SourceGraphic" in2="BackgroundImageFix" result="shape"/>
<feColorMatrix in="SourceAlpha" type="matrix" values="0 0 0 0 0 0 0 0 0 0 0 0 0 0 0 0 0 0 127 0" result="hardAlpha"/>
<feOffset/>
<feGaussianBlur stdDeviation="4"/>
<feComposite in2="hardAlpha" operator="arithmetic" k2="-1" k3="1"/>
<feColorMatrix type="matrix" values="0 0 0 0 1 0 0 0 0 0.807843 0 0 0 0 0.423529 0 0 0 0.05 0"/>
<feBlend mode="normal" in2="shape" result="effect1_innerShadow_1097"/>
</filter>
<filter id="filter22_i_1097" x="1322.27" y="280.352" width="43.5684" height="12.7152" filterUnits="userSpaceOnUse" color-interpolation-filters="sRGB">
<feFlood flood-opacity="0" result="BackgroundImageFix"/>
<feBlend mode="normal" in="SourceGraphic" in2="BackgroundImageFix" result="shape"/>
<feColorMatrix in="SourceAlpha" type="matrix" values="0 0 0 0 0 0 0 0 0 0 0 0 0 0 0 0 0 0 127 0" result="hardAlpha"/>
<feOffset/>
<feGaussianBlur stdDeviation="4"/>
<feComposite in2="hardAlpha" operator="arithmetic" k2="-1" k3="1"/>
<feColorMatrix type="matrix" values="0 0 0 0 1 0 0 0 0 0.807843 0 0 0 0 0.423529 0 0 0 0.05 0"/>
<feBlend mode="normal" in2="shape" result="effect1_innerShadow_1097"/>
</filter>
<filter id="filter23_i_1097" x="1397.84" y="280.352" width="43.5684" height="12.7152" filterUnits="userSpaceOnUse" color-interpolation-filters="sRGB">
<feFlood flood-opacity="0" result="BackgroundImageFix"/>
<feBlend mode="normal" in="SourceGraphic" in2="BackgroundImageFix" result="shape"/>
<feColorMatrix in="SourceAlpha" type="matrix" values="0 0 0 0 0 0 0 0 0 0 0 0 0 0 0 0 0 0 127 0" result="hardAlpha"/>
<feOffset/>
<feGaussianBlur stdDeviation="4"/>
<feComposite in2="hardAlpha" operator="arithmetic" k2="-1" k3="1"/>
<feColorMatrix type="matrix" values="0 0 0 0 1 0 0 0 0 0.807843 0 0 0 0 0.423529 0 0 0 0.05 0"/>
<feBlend mode="normal" in2="shape" result="effect1_innerShadow_1097"/>
</filter>
<filter id="filter24_i_1097" x="1171.13" y="280.352" width="43.5684" height="12.7152" filterUnits="userSpaceOnUse" color-interpolation-filters="sRGB">
<feFlood flood-opacity="0" result="BackgroundImageFix"/>
<feBlend mode="normal" in="SourceGraphic" in2="BackgroundImageFix" result="shape"/>
<feColorMatrix in="SourceAlpha" type="matrix" values="0 0 0 0 0 0 0 0 0 0 0 0 0 0 0 0 0 0 127 0" result="hardAlpha"/>
<feOffset/>
<feGaussianBlur stdDeviation="4"/>
<feComposite in2="hardAlpha" operator="arithmetic" k2="-1" k3="1"/>
<feColorMatrix type="matrix" values="0 0 0 0 1 0 0 0 0 0.807843 0 0 0 0 0.423529 0 0 0 0.05 0"/>
<feBlend mode="normal" in2="shape" result="effect1_innerShadow_1097"/>
</filter>
<filter id="filter25_i_1097" x="1246.7" y="280.352" width="43.5684" height="12.7152" filterUnits="userSpaceOnUse" color-interpolation-filters="sRGB">
<feFlood flood-opacity="0" result="BackgroundImageFix"/>
<feBlend mode="normal" in="SourceGraphic" in2="BackgroundImageFix" result="shape"/>
<feColorMatrix in="SourceAlpha" type="matrix" values="0 0 0 0 0 0 0 0 0 0 0 0 0 0 0 0 0 0 127 0" result="hardAlpha"/>
<feOffset/>
<feGaussianBlur stdDeviation="4"/>
<feComposite in2="hardAlpha" operator="arithmetic" k2="-1" k3="1"/>
<feColorMatrix type="matrix" values="0 0 0 0 1 0 0 0 0 0.807843 0 0 0 0 0.423529 0 0 0 0.05 0"/>
<feBlend mode="normal" in2="shape" result="effect1_innerShadow_1097"/>
</filter>
<filter id="filter26_i_1097" x="1095.57" y="319.026" width="43.5684" height="12.7153" filterUnits="userSpaceOnUse" color-interpolation-filters="sRGB">
<feFlood flood-opacity="0" result="BackgroundImageFix"/>
<feBlend mode="normal" in="SourceGraphic" in2="BackgroundImageFix" result="shape"/>
<feColorMatrix in="SourceAlpha" type="matrix" values="0 0 0 0 0 0 0 0 0 0 0 0 0 0 0 0 0 0 127 0" result="hardAlpha"/>
<feOffset/>
<feGaussianBlur stdDeviation="4"/>
<feComposite in2="hardAlpha" operator="arithmetic" k2="-1" k3="1"/>
<feColorMatrix type="matrix" values="0 0 0 0 1 0 0 0 0 0.807843 0 0 0 0 0.423529 0 0 0 0.05 0"/>
<feBlend mode="normal" in2="shape" result="effect1_innerShadow_1097"/>
</filter>
<filter id="filter27_i_1097" x="1020" y="203.004" width="43.5674" height="12.7152" filterUnits="userSpaceOnUse" color-interpolation-filters="sRGB">
<feFlood flood-opacity="0" result="BackgroundImageFix"/>
<feBlend mode="normal" in="SourceGraphic" in2="BackgroundImageFix" result="shape"/>
<feColorMatrix in="SourceAlpha" type="matrix" values="0 0 0 0 0 0 0 0 0 0 0 0 0 0 0 0 0 0 127 0" result="hardAlpha"/>
<feOffset/>
<feGaussianBlur stdDeviation="4"/>
<feComposite in2="hardAlpha" operator="arithmetic" k2="-1" k3="1"/>
<feColorMatrix type="matrix" values="0 0 0 0 1 0 0 0 0 0.807843 0 0 0 0 0.423529 0 0 0 0.05 0"/>
<feBlend mode="normal" in2="shape" result="effect1_innerShadow_1097"/>
</filter>
<filter id="filter28_i_1097" x="1020" y="357.7" width="43.5674" height="12.7153" filterUnits="userSpaceOnUse" color-interpolation-filters="sRGB">
<feFlood flood-opacity="0" result="BackgroundImageFix"/>
<feBlend mode="normal" in="SourceGraphic" in2="BackgroundImageFix" result="shape"/>
<feColorMatrix in="SourceAlpha" type="matrix" values="0 0 0 0 0 0 0 0 0 0 0 0 0 0 0 0 0 0 127 0" result="hardAlpha"/>
<feOffset/>
<feGaussianBlur stdDeviation="4"/>
<feComposite in2="hardAlpha" operator="arithmetic" k2="-1" k3="1"/>
<feColorMatrix type="matrix" values="0 0 0 0 1 0 0 0 0 0.807843 0 0 0 0 0.423529 0 0 0 0.05 0"/>
<feBlend mode="normal" in2="shape" result="effect1_innerShadow_1097"/>
</filter>
<filter id="filter29_i_1097" x="1020" y="241.678" width="43.5674" height="12.7152" filterUnits="userSpaceOnUse" color-interpolation-filters="sRGB">
<feFlood flood-opacity="0" result="BackgroundImageFix"/>
<feBlend mode="normal" in="SourceGraphic" in2="BackgroundImageFix" result="shape"/>
<feColorMatrix in="SourceAlpha" type="matrix" values="0 0 0 0 0 0 0 0 0 0 0 0 0 0 0 0 0 0 127 0" result="hardAlpha"/>
<feOffset/>
<feGaussianBlur stdDeviation="4"/>
<feComposite in2="hardAlpha" operator="arithmetic" k2="-1" k3="1"/>
<feColorMatrix type="matrix" values="0 0 0 0 1 0 0 0 0 0.807843 0 0 0 0 0.423529 0 0 0 0.05 0"/>
<feBlend mode="normal" in2="shape" result="effect1_innerShadow_1097"/>
</filter>
<filter id="filter30_i_1097" x="1020" y="396.375" width="43.5674" height="12.7153" filterUnits="userSpaceOnUse" color-interpolation-filters="sRGB">
<feFlood flood-opacity="0" result="BackgroundImageFix"/>
<feBlend mode="normal" in="SourceGraphic" in2="BackgroundImageFix" result="shape"/>
<feColorMatrix in="SourceAlpha" type="matrix" values="0 0 0 0 0 0 0 0 0 0 0 0 0 0 0 0 0 0 127 0" result="hardAlpha"/>
<feOffset/>
<feGaussianBlur stdDeviation="4"/>
<feComposite in2="hardAlpha" operator="arithmetic" k2="-1" k3="1"/>
<feColorMatrix type="matrix" values="0 0 0 0 1 0 0 0 0 0.807843 0 0 0 0 0.423529 0 0 0 0.05 0"/>
<feBlend mode="normal" in2="shape" result="effect1_innerShadow_1097"/>
</filter>
<filter id="filter31_i_1097" x="1020" y="280.352" width="43.5674" height="12.7152" filterUnits="userSpaceOnUse" color-interpolation-filters="sRGB">
<feFlood flood-opacity="0" result="BackgroundImageFix"/>
<feBlend mode="normal" in="SourceGraphic" in2="BackgroundImageFix" result="shape"/>
<feColorMatrix in="SourceAlpha" type="matrix" values="0 0 0 0 0 0 0 0 0 0 0 0 0 0 0 0 0 0 127 0" result="hardAlpha"/>
<feOffset/>
<feGaussianBlur stdDeviation="4"/>
<feComposite in2="hardAlpha" operator="arithmetic" k2="-1" k3="1"/>
<feColorMatrix type="matrix" values="0 0 0 0 1 0 0 0 0 0.807843 0 0 0 0 0.423529 0 0 0 0.05 0"/>
<feBlend mode="normal" in2="shape" result="effect1_innerShadow_1097"/>
</filter>
<filter id="filter32_i_1097" x="1020" y="319.026" width="43.5674" height="12.7153" filterUnits="userSpaceOnUse" color-interpolation-filters="sRGB">
<feFlood flood-opacity="0" result="BackgroundImageFix"/>
<feBlend mode="normal" in="SourceGraphic" in2="BackgroundImageFix" result="shape"/>
<feColorMatrix in="SourceAlpha" type="matrix" values="0 0 0 0 0 0 0 0 0 0 0 0 0 0 0 0 0 0 127 0" result="hardAlpha"/>
<feOffset/>
<feGaussianBlur stdDeviation="4"/>
<feComposite in2="hardAlpha" operator="arithmetic" k2="-1" k3="1"/>
<feColorMatrix type="matrix" values="0 0 0 0 1 0 0 0 0 0.807843 0 0 0 0 0.423529 0 0 0 0.05 0"/>
<feBlend mode="normal" in2="shape" result="effect1_innerShadow_1097"/>
</filter>
<filter id="filter33_i_1097" x="1322.27" y="319.026" width="43.5684" height="12.7153" filterUnits="userSpaceOnUse" color-interpolation-filters="sRGB">
<feFlood flood-opacity="0" result="BackgroundImageFix"/>
<feBlend mode="normal" in="SourceGraphic" in2="BackgroundImageFix" result="shape"/>
<feColorMatrix in="SourceAlpha" type="matrix" values="0 0 0 0 0 0 0 0 0 0 0 0 0 0 0 0 0 0 127 0" result="hardAlpha"/>
<feOffset/>
<feGaussianBlur stdDeviation="4"/>
<feComposite in2="hardAlpha" operator="arithmetic" k2="-1" k3="1"/>
<feColorMatrix type="matrix" values="0 0 0 0 1 0 0 0 0 0.807843 0 0 0 0 0.423529 0 0 0 0.05 0"/>
<feBlend mode="normal" in2="shape" result="effect1_innerShadow_1097"/>
</filter>
<filter id="filter34_i_1097" x="1397.84" y="319.026" width="43.5684" height="12.7153" filterUnits="userSpaceOnUse" color-interpolation-filters="sRGB">
<feFlood flood-opacity="0" result="BackgroundImageFix"/>
<feBlend mode="normal" in="SourceGraphic" in2="BackgroundImageFix" result="shape"/>
<feColorMatrix in="SourceAlpha" type="matrix" values="0 0 0 0 0 0 0 0 0 0 0 0 0 0 0 0 0 0 127 0" result="hardAlpha"/>
<feOffset/>
<feGaussianBlur stdDeviation="4"/>
<feComposite in2="hardAlpha" operator="arithmetic" k2="-1" k3="1"/>
<feColorMatrix type="matrix" values="0 0 0 0 1 0 0 0 0 0.807843 0 0 0 0 0.423529 0 0 0 0.05 0"/>
<feBlend mode="normal" in2="shape" result="effect1_innerShadow_1097"/>
</filter>
<filter id="filter35_i_1097" x="1171.13" y="319.026" width="43.5684" height="12.7153" filterUnits="userSpaceOnUse" color-interpolation-filters="sRGB">
<feFlood flood-opacity="0" result="BackgroundImageFix"/>
<feBlend mode="normal" in="SourceGraphic" in2="BackgroundImageFix" result="shape"/>
<feColorMatrix in="SourceAlpha" type="matrix" values="0 0 0 0 0 0 0 0 0 0 0 0 0 0 0 0 0 0 127 0" result="hardAlpha"/>
<feOffset/>
<feGaussianBlur stdDeviation="4"/>
<feComposite in2="hardAlpha" operator="arithmetic" k2="-1" k3="1"/>
<feColorMatrix type="matrix" values="0 0 0 0 1 0 0 0 0 0.807843 0 0 0 0 0.423529 0 0 0 0.05 0"/>
<feBlend mode="normal" in2="shape" result="effect1_innerShadow_1097"/>
</filter>
<filter id="filter36_i_1097" x="1246.7" y="319.026" width="43.5684" height="12.7153" filterUnits="userSpaceOnUse" color-interpolation-filters="sRGB">
<feFlood flood-opacity="0" result="BackgroundImageFix"/>
<feBlend mode="normal" in="SourceGraphic" in2="BackgroundImageFix" result="shape"/>
<feColorMatrix in="SourceAlpha" type="matrix" values="0 0 0 0 0 0 0 0 0 0 0 0 0 0 0 0 0 0 127 0" result="hardAlpha"/>
<feOffset/>
<feGaussianBlur stdDeviation="4"/>
<feComposite in2="hardAlpha" operator="arithmetic" k2="-1" k3="1"/>
<feColorMatrix type="matrix" values="0 0 0 0 1 0 0 0 0 0.807843 0 0 0 0 0.423529 0 0 0 0.05 0"/>
<feBlend mode="normal" in2="shape" result="effect1_innerShadow_1097"/>
</filter>
<filter id="filter37_i_1097" x="0" y="6" width="406" height="408" filterUnits="userSpaceOnUse" color-interpolation-filters="sRGB">
<feFlood flood-opacity="0" result="BackgroundImageFix"/>
<feBlend mode="normal" in="SourceGraphic" in2="BackgroundImageFix" result="shape"/>
<feColorMatrix in="SourceAlpha" type="matrix" values="0 0 0 0 0 0 0 0 0 0 0 0 0 0 0 0 0 0 127 0" result="hardAlpha"/>
<feOffset/>
<feGaussianBlur stdDeviation="20"/>
<feComposite in2="hardAlpha" operator="arithmetic" k2="-1" k3="1"/>
<feColorMatrix type="matrix" values="0 0 0 0 0.354167 0 0 0 0 0.336458 0 0 0 0 0.301042 0 0 0 0.1 0"/>
<feBlend mode="normal" in2="shape" result="effect1_innerShadow_1097"/>
</filter>
<clipPath id="clip0_1097">
<rect width="1440" height="420" fill="white"/>
</clipPath>
</defs>
</svg>
