<svg width="87" height="22" viewBox="0 0 87 22" fill="none" xmlns="http://www.w3.org/2000/svg">
<path d="M17.9958 0.980469H17.7552C16.5056 0.980469 16.0245 1.28605 15.5016 2.40994C15.4546 2.52389 10.5499 13.8924 10.1578 14.7055C10.1107 14.7987 10.048 14.9489 9.98522 15.1147C9.89633 14.9023 9.81267 14.7159 9.76561 14.6278C9.45188 14.0063 6.1891 6.3669 4.48973 2.38405C4.00868 1.43106 3.55378 0.980469 2.2518 0.980469H2.01127C1.23218 0.980469 0.866163 1.35855 0.714527 1.58644C0.447857 1.9956 0.4374 2.54978 0.693612 3.12468C0.97074 3.6685 8.89763 20.6824 8.97606 20.8481C9.28979 21.5577 9.7813 21.6354 9.97999 21.6354C10.1787 21.6354 10.6702 21.5577 10.9787 20.8585C11.0571 20.6875 18.9631 3.76691 19.35 2.96412C19.5696 2.52907 19.554 2.07847 19.3134 1.69521C19.052 1.26533 18.5239 0.980469 17.9958 0.980469Z" fill="#453F9B"/>
<path d="M36.6364 0.980469H36.558C35.5802 0.980469 34.7854 1.76772 34.7854 2.73624V12.986C34.7854 16.8445 32.1396 18.2119 29.8756 18.2119C27.6115 18.2119 24.9657 16.8445 24.9657 12.986V2.73624C24.9657 1.76772 24.1709 0.980469 23.1931 0.980469H23.0729C22.0951 0.980469 21.3003 1.76772 21.3003 2.73624V13.1465C21.3003 19.4083 25.7291 21.6405 29.8756 21.6405C31.8782 21.6405 38.409 21.0294 38.409 13.1465V2.73624C38.409 1.76772 37.6142 0.980469 36.6364 0.980469Z" fill="#453F9B"/>
<path d="M48.4171 7.77043C48.1557 7.65648 47.9413 7.56844 47.8106 7.50629C47.2093 7.21107 46.4145 6.71904 46.4145 5.88518C46.4145 4.67323 47.6642 3.9326 48.5583 3.9326C49.6041 3.9326 49.8551 4.13977 50.2002 4.42463L50.3257 4.52303C50.425 4.60072 50.5296 4.69395 50.6446 4.79235C51.2564 5.331 52.4015 6.33059 53.6303 5.47084C54.4407 4.95291 54.6865 3.99993 54.2002 3.20232C53.4107 1.93858 51.2355 0.964881 49.5466 0.597154C48.9453 0.462493 47.7949 0.446955 46.7282 0.685201C45.9335 0.90791 45.2223 1.12544 44.5792 1.56568C43.0994 2.58599 42.2524 4.16048 42.2524 5.88518C42.2524 8.2262 43.6276 9.46922 44.6733 10.2099C45.4786 10.7485 46.3152 11.0334 47.1988 11.3338C47.9779 11.5979 48.7884 11.8724 49.6145 12.3437C51.6172 13.509 52.229 14.2497 52.1244 15.3788C52.0093 16.6891 50.5819 18.2118 48.9034 18.2118C47.2825 18.2118 46.106 17.6525 45.0759 16.3835C45.0184 16.3162 44.9557 16.223 44.8877 16.1246C44.4746 15.529 43.5125 14.1306 41.7975 14.9178C40.3282 15.5963 40.6785 16.974 40.9347 17.4297C42.7334 20.2628 45.3374 21.6405 48.8982 21.6405C51.4499 21.6405 53.5884 20.6771 54.9061 18.9214C56.2708 17.1086 56.5584 14.6433 55.6434 12.6286C54.6499 10.4326 50.4407 8.63536 48.4171 7.77043Z" fill="#453F9B"/>
<path d="M68.4485 0.503906C62.5661 0.503906 57.7817 5.24293 57.7817 11.0696C57.7817 16.8963 62.5661 21.6353 68.4485 21.6353C74.3519 21.6353 79.1572 16.8963 79.1572 11.0696C79.1572 5.24293 74.3571 0.503906 68.4485 0.503906ZM68.4485 18.2066C64.6315 18.2066 61.4001 14.9385 61.4001 11.0696C61.4001 7.20069 64.6263 3.93258 68.4485 3.93258C72.3336 3.93258 75.497 7.13336 75.497 11.0696C75.497 15.0058 72.3336 18.2066 68.4485 18.2066Z" fill="#453F9B"/>
<path d="M77.8606 11.7638C72.1822 8.36107 67.6749 11.479 68.386 13.1622C73.0867 10.7539 74.3103 15.6017 79.8581 15.7881C84.8254 15.612 86.5875 12.7842 86.4621 10.2826C86.3575 8.33 84.0463 15.467 77.8606 11.7638Z" fill="#FFCE6B"/>
</svg>
