<svg width="16" height="16" viewBox="0 0 16 16" fill="none" xmlns="http://www.w3.org/2000/svg">
<path d="M0 8C0 3.58172 3.58172 0 8 0C12.4183 0 16 3.58172 16 8C16 12.4183 12.4183 16 8 16C3.58172 16 0 12.4183 0 8Z" fill="white"/>
<path fill-rule="evenodd" clip-rule="evenodd" d="M9.21954 4.46109C9.52022 4.08219 9.74816 3.54665 9.66571 3C9.17428 3.03334 8.59986 3.34027 8.2647 3.74034C7.95917 4.10283 7.70806 4.64208 7.80613 5.16545C8.34337 5.18185 8.89785 4.86751 9.21954 4.46109Z" fill="#151826"/>
<path fill-rule="evenodd" clip-rule="evenodd" d="M11.875 9.60327C11.66 10.0711 11.5565 10.2801 11.2796 10.6945C10.8932 11.2729 10.3484 11.9931 9.67272 11.9984C9.07298 12.0047 8.91833 11.6147 8.10412 11.6195C7.28991 11.6237 7.12017 12.0058 6.51935 12C5.84417 11.9941 5.32795 11.3443 4.94159 10.7659C3.86065 9.14975 3.74696 7.2526 4.41352 6.24344C4.88771 5.52691 5.63564 5.10779 6.3383 5.10779C7.05336 5.10779 7.5033 5.49304 8.0955 5.49304C8.66992 5.49304 9.01963 5.10674 9.84677 5.10674C10.4729 5.10674 11.1362 5.44171 11.6083 6.01959C10.0607 6.85253 10.3113 9.02274 11.875 9.60327Z" fill="#151826"/>
</svg>
