<svg width="48" height="48" viewBox="0 0 48 48" fill="none" xmlns="http://www.w3.org/2000/svg">
<circle cx="24" cy="24" r="24" fill="#453F9B"/>
<path d="M32.5433 22.3949C32.543 22.3945 32.5426 22.3942 32.5422 22.3938L25.6068 15.4587C25.3112 15.1629 24.9182 15 24.5001 15C24.082 15 23.689 15.1628 23.3933 15.4585L16.4615 22.3901C16.4592 22.3925 16.4569 22.3949 16.4545 22.3973C15.8475 23.0078 15.8485 23.9984 16.4575 24.6074C16.7357 24.8858 17.1032 25.047 17.4961 25.0639C17.5121 25.0655 17.5282 25.0662 17.5444 25.0662H17.8208V30.1701C17.8208 31.18 18.6425 32.0017 19.6527 32.0017H22.3661C22.6411 32.0017 22.8642 31.7788 22.8642 31.5036V27.5023C22.8642 27.0414 23.239 26.6665 23.6999 26.6665H25.3003C25.7612 26.6665 26.136 27.0414 26.136 27.5023V31.5036C26.136 31.7788 26.359 32.0017 26.6341 32.0017H29.3475C30.3577 32.0017 31.1794 31.18 31.1794 30.1701V25.0662H31.4357C31.8537 25.0662 32.2467 24.9035 32.5426 24.6077C33.1522 23.9977 33.1525 23.0054 32.5433 22.3949Z" fill="white"/>
</svg>
