<svg width="40" height="40" viewBox="0 0 40 40" fill="none" xmlns="http://www.w3.org/2000/svg">
<rect width="40" height="40" rx="20" fill="#03BC69"/>
<path d="M26 29.9999H14C12.8954 29.9999 12 29.1045 12 27.9999V11.9999C12 10.8953 12.8954 9.99989 14 9.99989H21C21.009 9.99873 21.018 9.99873 21.027 9.99989H21.033C21.0424 10.0029 21.0522 10.0049 21.062 10.0059C21.1502 10.0115 21.2373 10.0287 21.321 10.0569H21.336H21.351H21.363C21.3815 10.0698 21.3988 10.0842 21.415 10.0999C21.5239 10.1483 21.6232 10.2161 21.708 10.2999L27.708 16.2999C27.7918 16.3847 27.8596 16.484 27.908 16.5929C27.917 16.6149 27.924 16.6359 27.931 16.6589L27.941 16.6869C27.9689 16.7703 27.9854 16.8571 27.99 16.9449C27.9909 16.9549 27.9932 16.9646 27.997 16.9739V16.9799C27.9986 16.9864 27.9996 16.9931 28 16.9999V27.9999C28 28.5303 27.7893 29.039 27.4142 29.4141C27.0391 29.7892 26.5304 29.9999 26 29.9999ZM22.424 21.9999V26.9999H23.364V24.9599H24.824V24.1219H23.364V22.8409H25V21.9999H22.424ZM18.724 21.9999V26.9999H19.93C20.4359 27.0248 20.9258 26.8188 21.262 26.4399C21.6069 25.9998 21.7797 25.4491 21.748 24.8909V24.0809C21.7712 23.5285 21.5936 22.9864 21.248 22.5549C20.9226 22.1845 20.4476 21.9806 19.955 21.9999H18.724ZM15 21.9999V26.9999H15.94V25.2409H16.566C16.984 25.264 17.3923 25.1093 17.69 24.8149C17.9741 24.4973 18.1214 24.0805 18.1 23.6549C18.1186 23.2191 17.9713 22.7925 17.688 22.4609C17.4077 22.1501 17.0031 21.981 16.585 21.9999H15ZM21 11.9999V16.9999H26L21 11.9999ZM19.946 26.1619H19.664V22.8409H20.006C20.2489 22.8266 20.4824 22.9366 20.626 23.1329C20.7726 23.4362 20.8354 23.7732 20.808 24.1089V24.9779C20.83 25.2976 20.7606 25.6171 20.608 25.8989C20.4441 26.0902 20.1965 26.1886 19.946 26.1619ZM16.585 24.3999H15.939V22.8409H16.594C16.7575 22.8427 16.9086 22.9284 16.994 23.0679C17.1022 23.2465 17.1545 23.4534 17.144 23.6619C17.1565 23.8564 17.1049 24.0496 16.997 24.2119C16.8975 24.3367 16.7445 24.4066 16.585 24.3999Z" fill="white"/>
</svg>
