<svg width="24" height="24" viewBox="0 0 24 24" fill="none" xmlns="http://www.w3.org/2000/svg">
<path d="M22.4314 13.9164C22.4316 13.1247 22.1861 12.3523 21.7287 11.7061C21.2714 11.0598 20.6247 10.5714 19.8779 10.3083V9.66055C19.8779 7.62885 19.0708 5.68036 17.6342 4.24372C16.1975 2.80709 14.2491 2 12.2173 2C10.1856 2 8.23715 2.80709 6.80052 4.24372C5.36389 5.68036 4.55679 7.62885 4.55679 9.66055V10.3083C3.80922 10.5718 3.16182 11.0608 2.70387 11.7078C2.24593 12.3548 2 13.128 2 13.9207C2 14.7133 2.24593 15.4865 2.70387 16.1335C3.16182 16.7805 3.80922 17.2695 4.55679 17.533C4.74976 17.6013 4.95631 17.6221 5.15901 17.5938C5.36172 17.5655 5.55465 17.4888 5.72153 17.3704C5.88842 17.2519 6.02438 17.095 6.11794 16.913C6.2115 16.7309 6.25993 16.5291 6.25914 16.3244V9.66055C6.25914 8.87811 6.41325 8.10333 6.71268 7.38045C7.01211 6.65756 7.45099 6.00073 8.00426 5.44746C8.55753 4.89419 9.21436 4.45531 9.93724 4.15589C10.6601 3.85646 11.4349 3.70234 12.2173 3.70234C12.9998 3.70234 13.7746 3.85646 14.4975 4.15589C15.2203 4.45531 15.8772 4.89419 16.4304 5.44746C16.9837 6.00073 17.4226 6.65756 17.722 7.38045C18.0214 8.10333 18.1756 8.87811 18.1756 9.66055V16.3244C18.1774 16.5015 18.2162 16.6762 18.2895 16.8375C18.3628 16.9987 18.4689 17.1428 18.6011 17.2607V17.7441C18.6011 18.9988 17.5023 19.4465 16.4732 19.4465H14.9598C14.7725 19.1219 14.4832 18.8683 14.137 18.7249C13.7908 18.5815 13.4069 18.5563 13.045 18.6533C12.683 18.7503 12.3631 18.964 12.135 19.2613C11.9069 19.5586 11.7832 19.9229 11.7832 20.2977C11.7832 20.6724 11.9069 21.0367 12.135 21.334C12.3631 21.6313 12.683 21.845 13.045 21.942C13.4069 22.039 13.7908 22.0138 14.137 21.8704C14.4832 21.727 14.7725 21.4734 14.9598 21.1488H16.4732C18.728 21.1488 20.3035 19.7486 20.3035 17.7441V17.3373C20.9409 17.021 21.4777 16.5334 21.8535 15.9292C22.2294 15.325 22.4295 14.628 22.4314 13.9164V13.9164Z" fill="#03BC69"/>
</svg>
