<svg width="48" height="48" viewBox="0 0 48 48" fill="none" xmlns="http://www.w3.org/2000/svg">
<circle cx="24" cy="24" r="24" fill="#453F9B"/>
<g clip-path="url(#clip0_283_10814)">
<path d="M24.4954 18.2409C20.7899 15 16.0785 17.8476 16.0012 21.708C15.9815 22.6918 16.2655 23.6501 16.8308 24.5336H20.495L21.1467 23.4474C21.3359 23.132 21.7939 23.1219 21.9939 23.4363L23.3689 25.5971L25.3734 21.3656C25.5482 20.9964 26.0691 20.9847 26.2619 21.3427L27.9801 24.5336H32.16C35.2564 19.6943 29.1369 14.1813 24.4954 18.2409Z" fill="white"/>
<path d="M27.243 25.2675L25.8507 22.6818L23.8819 26.8381C23.7144 27.1918 23.2217 27.2225 23.0116 26.8923L21.585 24.6505L21.2028 25.2876C21.1128 25.4376 20.9507 25.5293 20.7757 25.5293H17.6174C17.7164 25.633 17.1888 25.1064 24.1429 32.0245C24.3372 32.2178 24.6511 32.2178 24.8454 32.0245C31.6926 25.2128 31.2721 25.6328 31.3709 25.5293H27.6815C27.4982 25.5294 27.3298 25.4288 27.243 25.2675Z" fill="white"/>
</g>
<defs>
<clipPath id="clip0_283_10814">
<rect width="17" height="17" fill="white" transform="translate(16 16)"/>
</clipPath>
</defs>
</svg>
