<svg width="48" height="48" viewBox="0 0 48 48" fill="none" xmlns="http://www.w3.org/2000/svg">
<circle cx="24" cy="24" r="24" fill="#453F9B"/>
<g clip-path="url(#clip0_283_10812)">
<path d="M16.136 31.4843L23.7716 19.1419L22.4358 17.0757C22.257 16.7991 22.3361 16.4304 22.6127 16.2516C22.8893 16.0728 23.2588 16.1516 23.4379 16.4289L24.4994 18.0722L25.5624 16.4285C25.7411 16.1519 26.1106 16.0728 26.3868 16.2516C26.6634 16.4304 26.7425 16.7995 26.5645 17.0761L25.2291 19.1423L32.8643 31.4847C33.0363 31.759 33.0457 32.1028 32.8885 32.3861C32.7318 32.6697 32.4332 32.8433 32.1096 32.8433H28.73C28.4251 32.8433 28.1407 32.6876 27.9757 32.4312L25.1044 27.9498C24.9723 27.7438 24.7446 27.6195 24.5001 27.6195C24.256 27.6195 24.028 27.7438 23.8959 27.9502L21.0261 32.4312C20.8619 32.6884 20.5775 32.844 20.2718 32.844H16.891C16.5671 32.844 16.2685 32.6705 16.1117 32.3864C15.955 32.1024 15.9639 31.7587 16.136 31.4843Z" fill="white"/>
</g>
<defs>
<clipPath id="clip0_283_10812">
<rect width="17" height="16.9996" fill="white" transform="translate(16 16)"/>
</clipPath>
</defs>
</svg>
